<?xml version="1.0" encoding="UTF-8" standalone="no"?>
<!-- Created with Sodipodi ("http://www.sodipodi.com/") -->

<svg
   xmlns:dc="http://purl.org/dc/elements/1.1/"
   xmlns:cc="http://creativecommons.org/ns#"
   xmlns:rdf="http://www.w3.org/1999/02/22-rdf-syntax-ns#"
   xmlns:svg="http://www.w3.org/2000/svg"
   xmlns="http://www.w3.org/2000/svg"
   xmlns:xlink="http://www.w3.org/1999/xlink"
   xmlns:sodipodi="http://sodipodi.sourceforge.net/DTD/sodipodi-0.dtd"
   xmlns:inkscape="http://www.inkscape.org/namespaces/inkscape"
   height="320"
   id="svg32"
   sodipodi:docname="home.svg"
   sodipodi:version="0.32"
   style="fill:#000000;fill-opacity:0.5;stroke:none"
   width="320"
   inkscape:version="0.48.1 "
   inkscape:export-filename="D:\web\xampp\htdocs\limesurvey_yii\styles\blobblueish\images\home.png"
   inkscape:export-xdpi="9"
   inkscape:export-ydpi="9"
   version="1.0"
   inkscape:output_extension="org.inkscape.output.svg.inkscape">
  <metadata
     id="metadata2268">
    <rdf:RDF>
      <cc:Work
         rdf:about="">
        <dc:title>Homes Clipart</dc:title>
        <dc:description />
        <dc:subject>
          <rdf:Bag>
            <rdf:li>house</rdf:li>
            <rdf:li />
            <rdf:li>building</rdf:li>
            <rdf:li>home</rdf:li>
          </rdf:Bag>
        </dc:subject>
        <dc:publisher>
          <cc:Agent
             rdf:about="http://www.openclipart.org">
            <dc:title>Jose Hevia </dc:title>
          </cc:Agent>
        </dc:publisher>
        <dc:creator>
          <cc:Agent>
            <dc:title>Jose Hevia</dc:title>
          </cc:Agent>
        </dc:creator>
        <dc:rights>
          <cc:Agent>
            <dc:title>Jose Hevia </dc:title>
          </cc:Agent>
        </dc:rights>
        <dc:date />
        <dc:format>image/svg+xml</dc:format>
        <dc:type
           rdf:resource="http://purl.org/dc/dcmitype/StillImage" />
        <cc:license
           rdf:resource="http://web.resource.org/cc/PublicDomain" />
        <dc:language>en</dc:language>
      </cc:Work>
      <cc:License
         rdf:about="http://web.resource.org/cc/PublicDomain">
        <cc:permits
           rdf:resource="http://web.resource.org/cc/Reproduction" />
        <cc:permits
           rdf:resource="http://web.resource.org/cc/Distribution" />
        <cc:permits
           rdf:resource="http://web.resource.org/cc/DerivativeWorks" />
      </cc:License>
    </rdf:RDF>
  </metadata>
  <defs
     id="defs34">
    <inkscape:perspective
       sodipodi:type="inkscape:persp3d"
       inkscape:vp_x="0 : 200 : 1"
       inkscape:vp_y="0 : 1000 : 0"
       inkscape:vp_z="400 : 200 : 1"
       inkscape:persp3d-origin="200 : 133.33333 : 1"
       id="perspective49" />
    <linearGradient
       id="linearGradient60">
      <stop
         id="stop61"
         offset="0.000000"
         style="stop-color:#ffffb2;stop-opacity:0.960784;" />
      <stop
         id="stop62"
         offset="1.000000"
         style="stop-color:#000000;stop-opacity:0.458824;" />
    </linearGradient>
    <linearGradient
       id="linearGradient57">
      <stop
         id="stop58"
         offset="0.000000"
         style="stop-color:#ffff9f;stop-opacity:0.960784;" />
      <stop
         id="stop59"
         offset="1.000000"
         style="stop-color:#000000;stop-opacity:0.458824;" />
    </linearGradient>
    <linearGradient
       id="linearGradient129">
      <stop
         id="stop130"
         offset="0.000000"
         style="stop-color:#ffffff;stop-opacity:0.270588;" />
      <stop
         id="stop131"
         offset="1.000000"
         style="stop-color:#000000;stop-opacity:0.678431;" />
    </linearGradient>
    <linearGradient
       id="linearGradient132"
       x1="263.77655"
       x2="360.86487"
       xlink:href="#linearGradient129"
       y1="143.78529"
       y2="240.87363"
       gradientTransform="scale(0.692146,1.444783)"
       gradientUnits="userSpaceOnUse" />
    <linearGradient
       id="linearGradient142"
       x1="211.92114"
       x2="282.52576"
       xlink:href="#linearGradient57"
       y1="253.85275"
       y2="324.45737"
       gradientTransform="scale(1.202247,0.831776)"
       gradientUnits="userSpaceOnUse" />
    <linearGradient
       id="linearGradient48"
       x1="0"
       x2="1"
       xlink:href="#linearGradient129"
       y1="0"
       y2="1" />
    <linearGradient
       id="linearGradient49"
       x1="73.753273"
       x2="144.42528"
       xlink:href="#linearGradient57"
       y1="247.72217"
       y2="318.39417"
       gradientTransform="scale(1.201518,0.83228)"
       gradientUnits="userSpaceOnUse" />
    <linearGradient
       id="linearGradient50"
       x1="0.45062399"
       x2="0.40768901"
       xlink:href="#linearGradient129"
       y1="0.42857099"
       y2="0.47428599" />
    <linearGradient
       id="linearGradient53"
       x1="-0.33721501"
       x2="0.46689001"
       xlink:href="#linearGradient129"
       y1="0.54857099"
       y2="0.56" />
    <linearGradient
       id="linearGradient54"
       x1="1.09466"
       x2="0.41306201"
       xlink:href="#linearGradient129"
       y1="0.125"
       y2="0.8125" />
    <linearGradient
       inkscape:collect="always"
       xlink:href="#linearGradient57"
       id="linearGradient2609"
       gradientUnits="userSpaceOnUse"
       gradientTransform="matrix(1.0391905,0,0,0.84212,162.53205,16.306424)"
       x1="73.753273"
       y1="247.72217"
       x2="144.42528"
       y2="318.39417" />
    <linearGradient
       inkscape:collect="always"
       xlink:href="#linearGradient129"
       id="linearGradient2614"
       gradientUnits="userSpaceOnUse"
       gradientTransform="matrix(0.6946257,0,0,1.4499591,-14.403708,16.675478)"
       x1="263.77655"
       y1="143.78529"
       x2="360.86487"
       y2="240.87363" />
    <linearGradient
       inkscape:collect="always"
       xlink:href="#linearGradient57"
       id="linearGradient2619"
       gradientUnits="userSpaceOnUse"
       gradientTransform="matrix(1.0391905,0,0,0.84212,9.491979,14.740796)"
       x1="73.753273"
       y1="247.72217"
       x2="144.42528"
       y2="318.39417" />
    <linearGradient
       inkscape:collect="always"
       xlink:href="#linearGradient57"
       id="linearGradient4882"
       gradientUnits="userSpaceOnUse"
       gradientTransform="matrix(0.91315265,0,0,0.77449543,127.86939,-11.74449)"
       x1="73.753273"
       y1="247.72217"
       x2="144.42528"
       y2="318.39417" />
    <linearGradient
       inkscape:collect="always"
       xlink:href="#linearGradient129"
       id="linearGradient4887"
       gradientUnits="userSpaceOnUse"
       gradientTransform="matrix(0.61037827,0,0,1.3335234,-27.606771,-11.405073)"
       x1="263.77655"
       y1="143.78529"
       x2="360.86487"
       y2="240.87363" />
    <linearGradient
       inkscape:collect="always"
       xlink:href="#linearGradient57"
       id="linearGradient4892"
       gradientUnits="userSpaceOnUse"
       gradientTransform="matrix(0.91315265,0,0,0.77449543,-6.609265,-13.184395)"
       x1="73.753273"
       y1="247.72217"
       x2="144.42528"
       y2="318.39417" />
  </defs>
  <sodipodi:namedview
     id="base"
     width="400px"
     height="400px"
     inkscape:zoom="1"
     inkscape:cx="181.18774"
     inkscape:cy="46.359553"
     inkscape:window-width="1276"
     inkscape:window-height="968"
     inkscape:window-x="-4"
     inkscape:window-y="-4"
     inkscape:current-layer="svg32"
     showgrid="false"
     showguides="true"
     inkscape:guide-bbox="true"
     fit-margin-top="0"
     fit-margin-left="0"
     fit-margin-right="0"
     fit-margin-bottom="0"
     inkscape:window-maximized="0"
     inkscape:snap-global="false">
    <sodipodi:guide
       orientation="1,0"
       position="310,512"
       id="guide2424" />
    <sodipodi:guide
       orientation="0,1"
       position="204,310"
       id="guide2464" />
    <sodipodi:guide
       orientation="1,0"
       position="10,522"
       id="guide2466" />
    <sodipodi:guide
       orientation="0,1"
       position="200,10"
       id="guide3030" />
  </sodipodi:namedview>
  <path
     d=""
     id="path68"
     style="font-size:12px;fill:#7f7f7f;fill-opacity:1;fill-rule:evenodd;stroke:#000000;stroke-width:0.99701399"
     inkscape:connector-curvature="0" />
  <path
     d=""
     id="path47"
     style="font-size:12px;fill:#7f7f7f;fill-opacity:1;fill-rule:evenodd;stroke:#000000;stroke-width:0.99701399"
     inkscape:connector-curvature="0" />
  <path
     sodipodi:nodetypes="ccccc"
     d="m 51.57898,138.2908 c 0,17.47894 -0.06474,162.80812 0,162.60315 -0.01792,0.0327 140.92145,0 222.09845,0 0.038,0.1745 0,-147.97488 0,-162.60315 3.13094,-11.7591 -219.091349,-3.6405 -222.09845,0 z"
     id="path77"
     style="font-size:12px;fill:#ffffff;fill-opacity:1;fill-rule:evenodd;stroke:#000000;stroke-width:18.1612072;stroke-miterlimit:4;stroke-dasharray:none"
     inkscape:connector-curvature="0" />
  <path
     sodipodi:nodetypes="cccss"
     d="m 40.996196,19.337248 c -0.531752,7.78e-4 9.030451,86.004462 -30.628437,155.341772 105.652231,-34.6733 204.733421,-37.70052 300.850591,0 C 281.1164,127.18652 283.82873,19.340653 282.9633,19.337248 c -62.54439,-0.248196 -150.68496,-0.133027 -241.967104,0 z"
     id="path48"
     style="font-size:12px;fill:#eede70;fill-opacity:1;fill-rule:evenodd;stroke:#000000;stroke-width:17.97945595;stroke-linejoin:round;stroke-miterlimit:4;stroke-dasharray:none"
     inkscape:export-xdpi="9"
     inkscape:export-ydpi="9"
     inkscape:connector-curvature="0" />
  <path
     d="m 58.792545,50.201668 c 0.353883,18.567717 -3.605665,60.101082 -13.02569,95.615312 -1.324798,4.24873 0.6304,4.59038 1.798056,0.84717 5.065433,-5.29119 13.115198,-28.52732 16.773077,-54.741481 2.607394,-19.033584 -4.752243,-43.521044 -5.545443,-41.721001 z"
     id="path49"
     style="fill:#ffffff;fill-opacity:0.53846196;fill-rule:evenodd;stroke:none"
     inkscape:connector-curvature="0" />
  <path
     d="m 86.557586,42.390341 c 0.353912,18.567701 -3.605702,60.101089 -13.025742,95.615319 -1.324767,4.24874 0.630374,4.59047 1.798097,0.84717 5.065382,-5.29126 13.115276,-28.52731 16.773111,-54.741363 C 94.71042,65.077758 87.350759,40.590284 86.557586,42.390341 z"
     id="path50"
     style="fill:#ffffff;fill-opacity:0.53846196;fill-rule:evenodd;stroke:none"
     inkscape:connector-curvature="0" />
  <path
     d="m 118.037,42.503183 c 0.35385,18.567699 -3.60571,60.101097 -13.02574,95.615307 -1.32476,4.24867 0.63047,4.59048 1.79802,0.84702 5.06547,-5.29103 13.11528,-28.52714 16.77312,-54.741243 2.60745,-19.033673 -4.75223,-43.521143 -5.5454,-41.721084 z"
     id="path51"
     style="fill:#ffffff;fill-opacity:0.53846196;fill-rule:evenodd;stroke:none"
     inkscape:connector-curvature="0" />
  <path
     d="m 149.41436,37.273944 c 0.35383,18.567709 -3.60571,60.101117 -13.02576,95.615256 -1.32476,4.24874 0.63047,4.59055 1.79803,0.84718 5.06546,-5.29126 13.11519,-28.52732 16.77311,-54.741332 2.60736,-19.033685 -4.75224,-43.521153 -5.54538,-41.721104 z"
     id="path52"
     style="fill:#ffffff;fill-opacity:0.53846196;fill-rule:evenodd;stroke:none"
     inkscape:connector-curvature="0" />
  <path
     d="m 172.19381,41.164325 c 0.35381,18.567717 5.89214,59.866175 16.65642,94.881545 1.48543,4.17937 -0.45489,4.61742 -1.7641,0.93528 -5.26223,-5.03593 -14.18979,-27.85242 -18.843,-53.861007 -3.33016,-18.886907 3.08958,-43.714965 3.95068,-41.955818 z"
     id="path53"
     style="fill:#ffffff;fill-opacity:0.53846196;fill-rule:evenodd;stroke:none"
     inkscape:connector-curvature="0" />
  <path
     d="m 203.12999,43.961843 c 0.35391,18.567717 5.89223,59.866247 16.65644,94.881617 1.4855,4.17921 -0.45489,4.61726 -1.76402,0.93519 -5.26231,-5.03593 -14.18979,-27.85241 -18.843,-53.861026 -3.33017,-18.886863 3.08959,-43.714935 3.95058,-41.955781 z"
     id="path54"
     style="fill:#ffffff;fill-opacity:0.53846196;fill-rule:evenodd;stroke:none"
     inkscape:connector-curvature="0" />
  <path
     d="m 231.70956,47.708112 c 0.3539,18.567697 5.89214,59.866328 16.6565,94.881608 1.48543,4.17929 -0.45495,4.61735 -1.76409,0.9351 -5.26232,-5.03592 -14.18978,-27.85223 -18.84306,-53.860881 -3.3301,-18.88692 3.08957,-43.71499 3.95065,-41.955827 z"
     id="path55"
     style="fill:#ffffff;fill-opacity:0.53846196;fill-rule:evenodd;stroke:none"
     inkscape:connector-curvature="0" />
  <path
     d="m 258.47357,49.719289 c 0.35392,18.567695 5.89216,59.866231 16.65652,94.881501 1.48543,4.17939 -0.45496,4.61743 -1.7641,0.93536 -5.26224,-5.03592 -14.18979,-27.85241 -18.843,-53.860975 -3.33017,-18.886991 3.08951,-43.715066 3.95058,-41.955886 z"
     id="path56"
     style="fill:#ffffff;fill-opacity:0.53846196;fill-rule:evenodd;stroke:none"
     inkscape:connector-curvature="0" />
  <path
     d="m 139.3841,301.01942 c 0,-5.3266 -2.60538,-100.40642 -4.09564,-115.45432 8.00661,0 36.52854,-1.40524 48.83399,2.0028 2.34407,16.61655 2.93908,83.19777 2.93908,117.03465 -6.23829,0 -45.46818,0.39716 -47.67743,-3.58313 z"
     id="path58"
     sodipodi:nodetypes="ccccc"
     style="font-size:12px;fill:#7f470e;fill-opacity:1;fill-rule:evenodd;stroke:none"
     inkscape:connector-curvature="0" />
  <path
     sodipodi:nodetypes="ccccc"
     d="m 122.19356,227.38628 c -12.55879,0 -34.708199,0 -55.751858,0 0,-13.43837 0,-31.35852 0,-45.80242 13.940106,0 47.154198,-0.0671 55.751858,0 0,13.29853 0,31.16418 0,45.80242 z"
     id="path67"
     style="font-size:12px;fill:url(#linearGradient4892);fill-opacity:1;fill-rule:evenodd;stroke:#000000;stroke-width:5.25607204;stroke-dasharray:none"
     inkscape:connector-curvature="0" />
  <path
     sodipodi:nodetypes="cs"
     d="m 93.862486,182.68399 c 0,16.38229 0,28.5594 0,44.48193"
     id="path70"
     style="font-size:12px;fill:none;stroke:#000000;stroke-width:5.25607204;stroke-dasharray:none"
     inkscape:connector-curvature="0" />
  <path
     sodipodi:nodetypes="cc"
     d="m 123.1741,204.5833 c -7.97765,0 -48.105998,0 -57.72553,0"
     id="path73"
     style="font-size:12px;fill:none;stroke:#000000;stroke-width:5.25607204;stroke-dasharray:none"
     inkscape:connector-curvature="0" />
  <path
     d="m 138.35708,303.52262 c 0,-5.32658 0,-102.54777 0,-117.95752 8.00671,0 34.79988,0 48.83389,0 0,17.57949 0,77.50385 0,117.95752 -6.2383,0 -34.56935,0 -48.83389,0 z"
     id="path76"
     sodipodi:nodetypes="ccccc"
     style="font-size:12px;fill:url(#linearGradient4887);fill-opacity:1;fill-rule:evenodd;stroke:#000000;stroke-width:10.14967346;stroke-dasharray:none"
     inkscape:connector-curvature="0" />
  <path
     d="M 53.078422,31.541902 C 108.7808,44.578126 170.6505,43.821305 220.87852,35.766011 180.19222,115.95547 65.610816,111.28242 37.424687,152.26358 43.892035,118.45666 56.835836,59.171689 53.078422,31.541902 z"
     id="path78"
     sodipodi:nodetypes="cccc"
     style="fill:#ffffff;fill-opacity:0.66346196;fill-rule:evenodd;stroke:none"
     inkscape:connector-curvature="0" />
  <path
     d="M 41.198489,164.1652 C 99.30676,143.33816 236.4426,141.23698 286.9515,164.79486 c -3.61353,23.60312 -3.51563,42.49392 -5.71025,60.06889 -78.01157,-51.4606 -196.08662,-39.93298 -236.468886,-9.4329 -3.859617,-35.43302 -2.730135,-20.23577 -3.573875,-51.26565 z"
     id="path190"
     sodipodi:nodetypes="ccccc"
     style="fill:#000059;fill-opacity:0.334975;fill-rule:evenodd;stroke:none"
     inkscape:connector-curvature="0" />
  <path
     style="font-size:12px;fill:url(#linearGradient4882);fill-opacity:1;fill-rule:evenodd;stroke:#000000;stroke-width:5.25607204;stroke-dasharray:none"
     id="path2456"
     d="m 256.67219,228.82618 c -12.55879,0 -34.7082,0 -55.75185,0 0,-13.43836 0,-31.35852 0,-45.8024 13.94011,0 47.15421,-0.0671 55.75185,0 0,13.29852 0,31.16415 0,45.8024 z"
     sodipodi:nodetypes="ccccc"
     inkscape:connector-curvature="0" />
  <path
     style="font-size:12px;fill:none;stroke:#000000;stroke-width:5.25607204;stroke-dasharray:none"
     id="path2458"
     d="m 228.34112,184.1239 c 0,16.38228 0,28.5594 0,44.48194"
     sodipodi:nodetypes="cs"
     inkscape:connector-curvature="0" />
  <path
     style="font-size:12px;fill:none;stroke:#000000;stroke-width:5.25607204;stroke-dasharray:none"
     id="path2460"
     d="m 257.65274,206.0232 c -7.97763,0 -48.10599,0 -57.72553,0"
     sodipodi:nodetypes="cc"
     inkscape:connector-curvature="0" />
</svg>
