<?xml version="1.0" encoding="UTF-8" standalone="no"?>
<!-- Created with Inkscape (http://www.inkscape.org/) -->

<svg
   xmlns:dc="http://purl.org/dc/elements/1.1/"
   xmlns:cc="http://creativecommons.org/ns#"
   xmlns:rdf="http://www.w3.org/1999/02/22-rdf-syntax-ns#"
   xmlns:svg="http://www.w3.org/2000/svg"
   xmlns="http://www.w3.org/2000/svg"
   xmlns:xlink="http://www.w3.org/1999/xlink"
   xmlns:sodipodi="http://sodipodi.sourceforge.net/DTD/sodipodi-0.dtd"
   xmlns:inkscape="http://www.inkscape.org/namespaces/inkscape"
   version="1.0"
   width="400"
   height="400"
   viewBox="0 0 350 350"
   id="Layer_1"
   xml:space="preserve"
   inkscape:version="0.48.3.1 r9886"
   sodipodi:docname="preferences-plugin.svg"
   inkscape:export-filename="D:\web\xampp\htdocs\limesurvey\styles\blobblueish\images\plugin.png"
   inkscape:export-xdpi="9"
   inkscape:export-ydpi="9"><metadata
   id="metadata118"><rdf:RDF><cc:Work
       rdf:about=""><dc:format>image/svg+xml</dc:format><dc:type
         rdf:resource="http://purl.org/dc/dcmitype/StillImage" /><dc:title></dc:title></cc:Work></rdf:RDF></metadata><sodipodi:namedview
   pagecolor="#ffffff"
   bordercolor="#666666"
   borderopacity="1"
   objecttolerance="10"
   gridtolerance="10"
   guidetolerance="10"
   inkscape:pageopacity="0"
   inkscape:pageshadow="2"
   inkscape:window-width="1920"
   inkscape:window-height="996"
   id="namedview116"
   showgrid="false"
   inkscape:zoom="1.84375"
   inkscape:cx="64"
   inkscape:cy="187.80768"
   inkscape:window-x="-8"
   inkscape:window-y="-8"
   inkscape:window-maximized="1"
   inkscape:current-layer="Layer_1" /><defs
   id="defs93"><linearGradient
     id="linearGradient13107"><stop
       style="stop-color:black;stop-opacity:1"
       offset="0"
       id="stop13109" /><stop
       style="stop-color:black;stop-opacity:0"
       offset="1"
       id="stop13111" /></linearGradient><linearGradient
     id="linearGradient7263"><stop
       style="stop-color:white;stop-opacity:0"
       offset="0"
       id="stop7265" /><stop
       style="stop-color:white;stop-opacity:0.48453608"
       offset="1"
       id="stop7267" /></linearGradient><linearGradient
     x1="1.999"
     y1="55.862"
     x2="109.998"
     y2="55.862"
     id="linearGradient3216"
     xlink:href="#SVGID_9_"
     gradientUnits="userSpaceOnUse" /><linearGradient
     x1="1.999"
     y1="55.862"
     x2="109.998"
     y2="55.862"
     id="linearGradient3218"
     xlink:href="#SVGID_9_"
     gradientUnits="userSpaceOnUse" /><linearGradient
     x1="1.999"
     y1="55.862"
     x2="109.998"
     y2="55.862"
     id="linearGradient3222"
     xlink:href="#SVGID_9_"
     gradientUnits="userSpaceOnUse" /><linearGradient
     x1="1.999"
     y1="55.862"
     x2="109.998"
     y2="55.862"
     id="linearGradient3226"
     xlink:href="#SVGID_9_"
     gradientUnits="userSpaceOnUse" /><linearGradient
     x1="1.999"
     y1="55.862"
     x2="109.998"
     y2="55.862"
     id="linearGradient3230"
     xlink:href="#SVGID_9_"
     gradientUnits="userSpaceOnUse" /><linearGradient
     x1="1.999"
     y1="55.862"
     x2="109.998"
     y2="55.862"
     id="linearGradient3234"
     xlink:href="#SVGID_9_"
     gradientUnits="userSpaceOnUse" /><filter
     id="filter3248"
     color-interpolation-filters="sRGB"><feGaussianBlur
       id="feGaussianBlur3250"
       stdDeviation="0.5392541"
       inkscape:collect="always" /></filter><linearGradient
     x1="1.999"
     y1="55.862"
     x2="109.998"
     y2="55.862"
     id="linearGradient3304"
     xlink:href="#SVGID_9_"
     gradientUnits="userSpaceOnUse" /><linearGradient
     x1="1.999"
     y1="55.862"
     x2="109.998"
     y2="55.862"
     id="linearGradient3306"
     xlink:href="#SVGID_9_"
     gradientUnits="userSpaceOnUse" /><linearGradient
     x1="1.999"
     y1="55.862"
     x2="109.998"
     y2="55.862"
     id="linearGradient3310"
     xlink:href="#SVGID_9_"
     gradientUnits="userSpaceOnUse" /><linearGradient
     x1="1.999"
     y1="55.862"
     x2="109.998"
     y2="55.862"
     id="linearGradient3314"
     xlink:href="#SVGID_9_"
     gradientUnits="userSpaceOnUse" /><linearGradient
     x1="1.999"
     y1="55.862"
     x2="109.998"
     y2="55.862"
     id="linearGradient3318"
     xlink:href="#SVGID_9_"
     gradientUnits="userSpaceOnUse" /><linearGradient
     x1="1.999"
     y1="55.862"
     x2="109.998"
     y2="55.862"
     id="linearGradient3322"
     xlink:href="#SVGID_9_"
     gradientUnits="userSpaceOnUse" /><filter
     id="filter4299"
     color-interpolation-filters="sRGB"><feGaussianBlur
       id="feGaussianBlur4301"
       stdDeviation="0.26962705"
       inkscape:collect="always" /></filter><linearGradient
     x1="88.745003"
     y1="55.154892"
     x2="94.44165"
     y2="95.81353"
     id="linearGradient4328"
     xlink:href="#SVGID_9_"
     gradientUnits="userSpaceOnUse" /><linearGradient
     x1="91.39418"
     y1="55.862"
     x2="89.845459"
     y2="26.322001"
     id="linearGradient4334"
     xlink:href="#SVGID_9_"
     gradientUnits="userSpaceOnUse" /><linearGradient
     x1="56.799774"
     y1="11.643"
     x2="80.800003"
     y2="26.163515"
     id="linearGradient4338"
     xlink:href="#SVGID_9_"
     gradientUnits="userSpaceOnUse" /><filter
     id="filter6290"
     color-interpolation-filters="sRGB"><feGaussianBlur
       id="feGaussianBlur6292"
       stdDeviation="2.24"
       inkscape:collect="always" /></filter><linearGradient
     x1="75.195961"
     y1="-4"
     x2="94.433243"
     y2="113.6292"
     id="linearGradient9215"
     xlink:href="#linearGradient4344"
     gradientUnits="userSpaceOnUse" /><filter
     id="filter12134"
     color-interpolation-filters="sRGB"><feGaussianBlur
       id="feGaussianBlur12136"
       stdDeviation="2.4"
       inkscape:collect="always" /></filter><linearGradient
     x1="46.91169"
     y1="116"
     x2="48.325901"
     y2="-2.5101759"
     id="linearGradient13113"
     xlink:href="#linearGradient13107"
     gradientUnits="userSpaceOnUse" /><linearGradient
     x1="46.91169"
     y1="116"
     x2="48.325901"
     y2="-2.5101759"
     id="linearGradient13161"
     xlink:href="#linearGradient13107"
     gradientUnits="userSpaceOnUse" /><linearGradient
     x1="46.91169"
     y1="116"
     x2="48.325901"
     y2="-2.5101759"
     id="linearGradient13163"
     xlink:href="#linearGradient13107"
     gradientUnits="userSpaceOnUse" /><linearGradient
     x1="75.195961"
     y1="-4"
     x2="94.433243"
     y2="113.6292"
     id="linearGradient13165"
     xlink:href="#linearGradient4344"
     gradientUnits="userSpaceOnUse" /><linearGradient
     x1="75.195961"
     y1="-4"
     x2="94.433243"
     y2="113.6292"
     id="linearGradient13167"
     xlink:href="#linearGradient4344"
     gradientUnits="userSpaceOnUse" /><linearGradient
     x1="91.39418"
     y1="55.862"
     x2="89.845459"
     y2="26.322001"
     id="linearGradient13175"
     xlink:href="#SVGID_9_"
     gradientUnits="userSpaceOnUse" /><linearGradient
     x1="88.745003"
     y1="55.154892"
     x2="94.44165"
     y2="95.81353"
     id="linearGradient13179"
     xlink:href="#SVGID_9_"
     gradientUnits="userSpaceOnUse" /><linearGradient
     x1="1.999"
     y1="55.862"
     x2="109.998"
     y2="55.862"
     id="linearGradient13183"
     xlink:href="#SVGID_9_"
     gradientUnits="userSpaceOnUse" /><linearGradient
     x1="1.999"
     y1="55.862"
     x2="109.998"
     y2="55.862"
     id="linearGradient13187"
     xlink:href="#SVGID_9_"
     gradientUnits="userSpaceOnUse" /><linearGradient
     x1="56.799774"
     y1="11.643"
     x2="80.800003"
     y2="26.163515"
     id="linearGradient13191"
     xlink:href="#SVGID_9_"
     gradientUnits="userSpaceOnUse" /><linearGradient
     x1="35.38496"
     y1="13.143368"
     x2="70.239304"
     y2="69.509804"
     id="linearGradient13221"
     xlink:href="#SVGID_9_"
     gradientUnits="userSpaceOnUse"
     gradientTransform="matrix(1.009217,0,0,0.999927,-0.515141,-5.997218)" /><linearGradient
     x1="1.999"
     y1="35.897854"
     x2="109.99844"
     y2="35.897854"
     id="linearGradient13223"
     xlink:href="#linearGradient7263"
     gradientUnits="userSpaceOnUse"
     gradientTransform="matrix(1.009222,0,0,0.999933,-0.515152,-5.997582)" /><linearGradient
     x1="62.578949"
     y1="127.77134"
     x2="58.966991"
     y2="-31.68124"
     id="linearGradient13243"
     xlink:href="#SVGID_2_"
     gradientUnits="userSpaceOnUse" /><linearGradient
     x1="1.999"
     y1="55.862"
     x2="109.998"
     y2="55.862"
     id="linearGradient13245"
     xlink:href="#SVGID_9_"
     gradientUnits="userSpaceOnUse" /><linearGradient
     x1="23.533312"
     y1="107.83435"
     x2="28.680723"
     y2="78.514572"
     id="linearGradient13247"
     xlink:href="#SVGID_9_"
     gradientUnits="userSpaceOnUse" /><linearGradient
     x1="1.999"
     y1="55.862"
     x2="109.998"
     y2="55.862"
     id="linearGradient13249"
     xlink:href="#SVGID_9_"
     gradientUnits="userSpaceOnUse" /><linearGradient
     x1="1.999"
     y1="55.862"
     x2="109.998"
     y2="55.862"
     id="linearGradient13251"
     xlink:href="#SVGID_9_"
     gradientUnits="userSpaceOnUse" /><linearGradient
     x1="88.745003"
     y1="55.154892"
     x2="94.44165"
     y2="95.81353"
     id="linearGradient13257"
     xlink:href="#SVGID_9_"
     gradientUnits="userSpaceOnUse" /><linearGradient
     x1="63.870842"
     y1="86.705002"
     x2="109.998"
     y2="55.862"
     id="linearGradient13259"
     xlink:href="#SVGID_9_"
     gradientUnits="userSpaceOnUse" /><linearGradient
     x1="56.799774"
     y1="11.643"
     x2="80.800003"
     y2="26.163515"
     id="linearGradient13265"
     xlink:href="#SVGID_9_"
     gradientUnits="userSpaceOnUse" /><linearGradient
     x1="45.839619"
     y1="18.38534"
     x2="109.998"
     y2="55.862"
     id="linearGradient13267"
     xlink:href="#SVGID_9_"
     gradientUnits="userSpaceOnUse" /><linearGradient
     x1="91.39418"
     y1="55.862"
     x2="89.845459"
     y2="26.322001"
     id="linearGradient13269"
     xlink:href="#SVGID_9_"
     gradientUnits="userSpaceOnUse" /><linearGradient
     x1="63.870842"
     y1="21.023001"
     x2="109.998"
     y2="55.862"
     id="linearGradient13271"
     xlink:href="#SVGID_9_"
     gradientUnits="userSpaceOnUse" /><filter
     id="filter18426"
     color-interpolation-filters="sRGB"><feGaussianBlur
       id="feGaussianBlur18428"
       stdDeviation="1.12"
       inkscape:collect="always" /></filter><linearGradient
     inkscape:collect="always"
     xlink:href="#SVGID_2_"
     id="linearGradient3095"
     gradientUnits="userSpaceOnUse"
     x1="62.578949"
     y1="127.77134"
     x2="58.966991"
     y2="-31.68124" /><linearGradient
     inkscape:collect="always"
     xlink:href="#SVGID_9_"
     id="linearGradient3123"
     gradientUnits="userSpaceOnUse"
     gradientTransform="matrix(0.88306488,0,0,0.87493613,6.5492516,239.75243)"
     x1="35.38496"
     y1="13.143368"
     x2="70.239304"
     y2="69.509804" /><linearGradient
     inkscape:collect="always"
     xlink:href="#linearGradient7263"
     id="linearGradient3125"
     gradientUnits="userSpaceOnUse"
     gradientTransform="matrix(0.88306925,0,0,0.87494137,6.549242,239.75212)"
     x1="1.999"
     y1="35.897854"
     x2="109.99844"
     y2="35.897854" /><linearGradient
     inkscape:collect="always"
     xlink:href="#linearGradient13107"
     id="linearGradient3910"
     gradientUnits="userSpaceOnUse"
     x1="46.91169"
     y1="116"
     x2="48.325901"
     y2="-2.5101759" /><linearGradient
     inkscape:collect="always"
     xlink:href="#SVGID_2_"
     id="linearGradient3912"
     gradientUnits="userSpaceOnUse"
     x1="62.578949"
     y1="127.77134"
     x2="58.966991"
     y2="-31.68124" /><linearGradient
     inkscape:collect="always"
     xlink:href="#SVGID_9_"
     id="linearGradient3914"
     gradientUnits="userSpaceOnUse"
     x1="91.39418"
     y1="55.862"
     x2="89.845459"
     y2="26.322001" /><linearGradient
     inkscape:collect="always"
     xlink:href="#SVGID_9_"
     id="linearGradient3916"
     gradientUnits="userSpaceOnUse"
     x1="88.745003"
     y1="55.154892"
     x2="94.44165"
     y2="95.81353" /><linearGradient
     inkscape:collect="always"
     xlink:href="#SVGID_9_"
     id="linearGradient3918"
     gradientUnits="userSpaceOnUse"
     x1="1.999"
     y1="55.862"
     x2="109.998"
     y2="55.862" /><linearGradient
     inkscape:collect="always"
     xlink:href="#SVGID_9_"
     id="linearGradient3920"
     gradientUnits="userSpaceOnUse"
     x1="1.999"
     y1="55.862"
     x2="109.998"
     y2="55.862" /><linearGradient
     inkscape:collect="always"
     xlink:href="#SVGID_9_"
     id="linearGradient3922"
     gradientUnits="userSpaceOnUse"
     x1="56.799774"
     y1="11.643"
     x2="80.800003"
     y2="26.163515" /><linearGradient
     inkscape:collect="always"
     xlink:href="#linearGradient13107"
     id="linearGradient3967"
     gradientUnits="userSpaceOnUse"
     x1="46.91169"
     y1="116"
     x2="48.325901"
     y2="-2.5101759" /><linearGradient
     inkscape:collect="always"
     xlink:href="#linearGradient13107"
     id="linearGradient3969"
     gradientUnits="userSpaceOnUse"
     x1="46.91169"
     y1="116"
     x2="48.325901"
     y2="-2.5101759" /><linearGradient
     inkscape:collect="always"
     xlink:href="#SVGID_2_"
     id="linearGradient3971"
     gradientUnits="userSpaceOnUse"
     x1="62.578949"
     y1="127.77134"
     x2="58.966991"
     y2="-31.68124" /><linearGradient
     inkscape:collect="always"
     xlink:href="#SVGID_2_"
     id="linearGradient3973"
     gradientUnits="userSpaceOnUse"
     x1="62.578949"
     y1="127.77134"
     x2="58.966991"
     y2="-31.68124" /><linearGradient
     inkscape:collect="always"
     xlink:href="#SVGID_9_"
     id="linearGradient3975"
     gradientUnits="userSpaceOnUse"
     gradientTransform="matrix(0.88306488,0,0,0.87493613,6.5492516,239.75243)"
     x1="35.38496"
     y1="13.143368"
     x2="70.239304"
     y2="69.509804" /><linearGradient
     inkscape:collect="always"
     xlink:href="#linearGradient7263"
     id="linearGradient3977"
     gradientUnits="userSpaceOnUse"
     gradientTransform="matrix(0.88306925,0,0,0.87494137,6.549242,239.75212)"
     x1="1.999"
     y1="35.897854"
     x2="109.99844"
     y2="35.897854" /><linearGradient
     inkscape:collect="always"
     xlink:href="#SVGID_9_"
     id="linearGradient3979"
     gradientUnits="userSpaceOnUse"
     x1="63.870842"
     y1="21.023001"
     x2="109.998"
     y2="55.862" /><linearGradient
     inkscape:collect="always"
     xlink:href="#SVGID_9_"
     id="linearGradient3981"
     gradientUnits="userSpaceOnUse"
     x1="91.39418"
     y1="55.862"
     x2="89.845459"
     y2="26.322001" /><linearGradient
     inkscape:collect="always"
     xlink:href="#SVGID_9_"
     id="linearGradient3983"
     gradientUnits="userSpaceOnUse"
     x1="63.870842"
     y1="86.705002"
     x2="109.998"
     y2="55.862" /><linearGradient
     inkscape:collect="always"
     xlink:href="#SVGID_9_"
     id="linearGradient3985"
     gradientUnits="userSpaceOnUse"
     x1="88.745003"
     y1="55.154892"
     x2="94.44165"
     y2="95.81353" /><linearGradient
     inkscape:collect="always"
     xlink:href="#SVGID_9_"
     id="linearGradient3987"
     gradientUnits="userSpaceOnUse"
     x1="1.999"
     y1="55.862"
     x2="109.998"
     y2="55.862" /><linearGradient
     inkscape:collect="always"
     xlink:href="#SVGID_9_"
     id="linearGradient3989"
     gradientUnits="userSpaceOnUse"
     x1="1.999"
     y1="55.862"
     x2="109.998"
     y2="55.862" /><linearGradient
     inkscape:collect="always"
     xlink:href="#SVGID_9_"
     id="linearGradient3991"
     gradientUnits="userSpaceOnUse"
     x1="23.533312"
     y1="107.83435"
     x2="28.680723"
     y2="78.514572" /><linearGradient
     inkscape:collect="always"
     xlink:href="#SVGID_9_"
     id="linearGradient3993"
     gradientUnits="userSpaceOnUse"
     x1="1.999"
     y1="55.862"
     x2="109.998"
     y2="55.862" /><linearGradient
     inkscape:collect="always"
     xlink:href="#SVGID_9_"
     id="linearGradient3995"
     gradientUnits="userSpaceOnUse"
     x1="45.839619"
     y1="18.38534"
     x2="109.998"
     y2="55.862" /><linearGradient
     inkscape:collect="always"
     xlink:href="#SVGID_9_"
     id="linearGradient3997"
     gradientUnits="userSpaceOnUse"
     x1="56.799774"
     y1="11.643"
     x2="80.800003"
     y2="26.163515" /></defs>

<linearGradient
   x1="55.998501"
   y1="122.1953"
   x2="55.998501"
   y2="-27.688801"
   id="SVGID_2_"
   gradientUnits="userSpaceOnUse">
	<stop
   style="stop-color:#00892c;stop-opacity:1"
   offset="0"
   id="stop13" />
	<stop
   style="stop-color:#259e34;stop-opacity:1"
   offset="0.0791"
   id="stop15" />
	<stop
   style="stop-color:#48b23b;stop-opacity:1"
   offset="0.1681"
   id="stop17" />
	<stop
   style="stop-color:#61c041;stop-opacity:1"
   offset="0.25220001"
   id="stop19" />
	<stop
   style="stop-color:#71c944;stop-opacity:1"
   offset="0.32859999"
   id="stop21" />
	<stop
   style="stop-color:#71d73a;stop-opacity:1"
   offset="0.3901"
   id="stop23" />
	<stop
   style="stop-color:#00892c;stop-opacity:1"
   offset="1"
   id="stop25" />
</linearGradient>


<linearGradient
   x1="65.537102"
   y1="106.5479"
   x2="65.537102"
   y2="2.0360999"
   id="SVGID_8_"
   gradientUnits="userSpaceOnUse">
	<stop
   style="stop-color:#f8ffbf;stop-opacity:1"
   offset="0"
   id="stop77" />
	<stop
   style="stop-color:white;stop-opacity:1"
   offset="0.40000001"
   id="stop79" />
	<stop
   style="stop-color:#f8ffbf;stop-opacity:1"
   offset="1"
   id="stop81" />
</linearGradient>

<linearGradient
   x1="29.021"
   y1="6.0723"
   x2="70.239304"
   y2="69.509804"
   id="SVGID_9_"
   gradientUnits="userSpaceOnUse">
	<stop
   style="stop-color:white;stop-opacity:1"
   offset="0"
   id="stop86" />
	<stop
   style="stop-color:white;stop-opacity:0"
   offset="1"
   id="stop88" />
</linearGradient>
<g
   id="g3924"
   transform="matrix(2.9127368,0,0,2.9127368,9.6325027,-676.1924)"><g
     transform="matrix(0.875,0,0,0.875,7,243.25)"
     style="opacity:0.5;fill:#000000;fill-opacity:1;stroke:url(#linearGradient3969);stroke-width:8;stroke-linejoin:round;stroke-miterlimit:4;stroke-opacity:1;stroke-dasharray:none"
     id="g11155">
	<linearGradient
   x1="19.7563"
   y1="5.7275"
   x2="126.7421"
   y2="144.4818"
   id="linearGradient11157"
   gradientUnits="userSpaceOnUse">
		<stop
   style="stop-color:#64ba32;stop-opacity:1"
   offset="0"
   id="stop11159" />
		<stop
   style="stop-color:#00892c;stop-opacity:1"
   offset="1"
   id="stop11161" />
	</linearGradient>
	<path
   d="M 63.718,0 C 71.232,0 78.445,0.652 82,6 85.555,11.348 75.978,14.839 78.645,19.459 85.19,22.815 101.277,22.06 112,22 c 0,0 0,31.03 0,31.376 -5.792,3.336 -11.911,-1.445 -17,-2.376 -9.605,4.274 -9.652,27.515 0,31.68 5.722,0.45 5.419,-5.031 12,-3.72 5.013,6.734 5,33.04 5,33.04 l -90,0 C 22,112 22.422,83.565 19.538,80.682 16.654,77.799 14.483,85.954 7.26,84.41 2.943,82.345 0,78.605 0,68 0,57.395 2.812,52.71 7.068,50.316 13.635,48.93 14.699,57.379 18.178,53.9 21.657,50.421 22.07,34.826 22,22 32.448,22 45.674,24 52,19 52.428,13.665 48.199,13.695 48,9 49.149,2.904 56.22,0.222 63.718,0 z"
   style="fill:#000000;fill-opacity:1;fill-rule:evenodd;stroke:url(#linearGradient3967);stroke-width:8;stroke-linejoin:round;stroke-miterlimit:4;stroke-opacity:1;stroke-dasharray:none"
   id="path11163"
   inkscape:connector-curvature="0" />
</g><g
     transform="matrix(0.875,0,0,0.875,7,241.5)"
     style="fill:none;stroke:#000000;stroke-width:13.89999962;stroke-linejoin:round;stroke-miterlimit:4;stroke-opacity:1;stroke-dasharray:none"
     id="g4342">
	<linearGradient
   x1="19.7563"
   y1="5.7275"
   x2="126.7421"
   y2="144.4818"
   id="linearGradient4344"
   gradientUnits="userSpaceOnUse">
		<stop
   style="stop-color:#64ba32;stop-opacity:1"
   offset="0"
   id="stop4346" />
		<stop
   style="stop-color:#00892c;stop-opacity:1"
   offset="1"
   id="stop4348" />
	</linearGradient>
	<path
   d="M 63.718,0 C 71.232,0 78.445,0.652 82,6 85.555,11.348 75.978,14.839 78.645,19.459 85.19,22.815 101.277,22.06 112,22 c 0,0 0,31.03 0,31.376 -5.792,3.336 -11.911,-1.445 -17,-2.376 -9.605,4.274 -9.652,27.515 0,31.68 5.722,0.45 5.419,-5.031 12,-3.72 5.013,6.734 5,33.04 5,33.04 l -90,0 C 22,112 22.422,83.565 19.538,80.682 16.654,77.799 14.483,85.954 7.26,84.41 2.943,82.345 0,78.605 0,68 0,57.395 2.812,52.71 7.068,50.316 13.635,48.93 14.699,57.379 18.178,53.9 21.657,50.421 22.07,34.826 22,22 32.448,22 45.674,24 52,19 52.428,13.665 48.199,13.695 48,9 49.149,2.904 56.22,0.222 63.718,0 z"
   style="fill:none;stroke:#000000;stroke-width:13.89999962;stroke-linejoin:round;stroke-miterlimit:4;stroke-opacity:1;stroke-dasharray:none"
   id="path4350"
   inkscape:connector-curvature="0" />
</g><g
     transform="matrix(0.875,0,0,0.875,7,241.5)"
     style="fill:url(#linearGradient3973)"
     id="g3">
	<linearGradient
   x1="19.7563"
   y1="5.7275"
   x2="126.7421"
   y2="144.4818"
   id="SVGID_1_"
   gradientUnits="userSpaceOnUse">
		<stop
   style="stop-color:#76cc45;stop-opacity:1"
   offset="0"
   id="stop6" />
		<stop
   style="stop-color:#00892c;stop-opacity:1"
   offset="1"
   id="stop8" />
	</linearGradient>
	<path
   d="M 63.718,0 C 71.232,0 78.445,0.652 82,6 85.555,11.348 75.978,14.839 78.645,19.459 85.19,22.815 101.277,22.06 112,22 c 0,0 0,31.03 0,31.376 -5.792,3.336 -11.911,-1.445 -17,-2.376 -9.605,4.274 -9.652,27.515 0,31.68 5.722,0.45 5.419,-5.031 12,-3.72 5.013,6.734 5,33.04 5,33.04 l -90,0 C 22,112 22.422,83.565 19.538,80.682 16.654,77.799 14.483,85.954 7.26,84.41 2.943,82.345 0,78.605 0,68 0,57.395 2.812,52.71 7.068,50.316 13.635,48.93 14.699,57.379 18.178,53.9 21.657,50.421 22.07,34.826 22,22 32.448,22 45.674,24 52,19 52.428,13.665 48.199,13.695 48,9 49.149,2.904 56.22,0.222 63.718,0 z"
   style="fill:url(#linearGradient3971);fill-rule:evenodd"
   id="path10"
   inkscape:connector-curvature="0" />
</g><path
     d="m 101.91937,260.78941 c -0.007,0 -0.0132,0 -0.0194,0 l -0.56164,0.007 c -2.004556,0.0271 -4.11419,0.0543 -6.243266,0.0543 -10.338921,0 -16.477105,-0.7752 -19.902513,-2.51632 l -0.461864,-0.23624 -0.261386,-0.44534 c -1.576272,-2.7088 -0.172199,-4.90839 1.689302,-7.31185 1.225694,-1.58188 1.671642,-2.27571 1.741404,-3.02028 0.01854,-0.19598 0.0018,-0.39284 -0.04592,-0.58358 -0.06005,-0.24323 -0.182794,-0.50046 -0.362056,-0.76819 -2.484944,-3.70098 -7.645575,-4.46393 -14.685368,-4.46568 -2.409001,0.0761 -10.388375,0.7262 -11.984956,5.84633 -0.08565,0.2791 -0.102435,0.57658 -0.04415,0.86268 0.186326,0.91169 0.680843,1.4979 1.304286,2.23897 1.073808,1.27216 2.406352,2.85754 2.148497,6.06418 l -0.06005,0.75945 -0.6049,0.47334 c -3.767154,2.95116 -9.486766,3.34838 -14.585583,3.34838 -2.203246,0 -4.481553,-0.0892 -6.736018,-0.17586 -0.91044,-0.0359 -1.801452,-0.0709 -2.669504,-0.0997 -0.02031,0 -0.03973,-0.002 -0.06005,-0.002 -0.455661,0 -0.894544,0.17586 -1.224811,0.48909 -0.344395,0.3281 -0.537787,0.77956 -0.541319,1.25203 -0.0989,19.24335 -2.023985,23.73615 -3.895199,25.59189 -0.853923,0.84257 -1.733456,1.25204 -2.689815,1.25204 -1.517988,0 -2.600625,-1.06393 -3.56405,-2.01148 l -0.169549,-0.16449 -0.32585,-0.31498 c -0.994331,-0.94055 -1.85267,-1.52151 -3.051872,-1.52151 -0.350577,0 -0.736476,0.10499 -1.029653,0.29923 -3.2117073,2.14184 -4.7076192,6.45003 -4.7076192,13.55714 0,0.54421 0.00971,1.06305 0.028258,1.56001 25.9727042,0.2739 59.9380262,-5.03259 95.3427542,-26.17455 l 0,-12.09337 c 0,-0.46722 -0.1881,-0.91519 -0.52455,-1.24504 -0.32938,-0.32285 -0.7771,-0.50571 -1.24159,-0.50571 z"
     style="fill:url(#linearGradient3975);fill-rule:evenodd;stroke:url(#linearGradient3977);stroke-width:0.87899584"
     id="path90"
     inkscape:connector-curvature="0" /><g
     transform="matrix(0.875,0,0,0.875,7,239.75)"
     style="fill:url(#linearGradient3981)"
     id="g31">
		<linearGradient
   x1="73.623001"
   y1="23.672899"
   x2="118.9906"
   y2="23.672899"
   id="SVGID_3_"
   gradientUnits="userSpaceOnUse">
			<stop
   style="stop-color:white;stop-opacity:1"
   offset="0"
   id="stop34" />
			<stop
   style="stop-color:black;stop-opacity:1"
   offset="1"
   id="stop36" />
		</linearGradient>
		<path
   d="m 77.314,21.023 c 0.124,0.467 0.314,0.943 0.599,1.437 l 0.296,0.509 0.523,0.27 c 3.879,1.99 10.83,2.876 22.538,2.876 2.411,0 4.801,-0.031 7.07,-0.062 l 0.636,-0.008 c 0.008,0 0.015,0 0.022,0 0.355,0 0.698,0.102 1,0.277 l 0,-0.277 c 0,-0.534 -0.213,-1.046 -0.594,-1.423 -0.373,-0.369 -0.88,-0.578 -1.406,-0.578 -0.008,0 -0.015,0 -0.022,0 l -0.636,0.008 c -2.27,0.031 -4.659,0.062 -7.07,0.062 -11.708,0 -18.659,-0.886 -22.538,-2.876 l -0.418,-0.215 z"
   style="fill:url(#linearGradient3979);fill-rule:evenodd"
   id="path38"
   inkscape:connector-curvature="0" />
	</g><g
     transform="matrix(0.875,0,0,0.875,8.75,239.75)"
     style="fill:url(#linearGradient3985)"
     id="g40">
		<linearGradient
   x1="86.693398"
   y1="83.060501"
   x2="111.9058"
   y2="83.060501"
   id="SVGID_4_"
   gradientUnits="userSpaceOnUse">
			<stop
   style="stop-color:white;stop-opacity:1"
   offset="0"
   id="stop43" />
			<stop
   style="stop-color:black;stop-opacity:1"
   offset="1"
   id="stop45" />
		</linearGradient>
		<path
   d="m 95.208,86.515 0.305,0.133 0.329,0.024 c 0.283,0.022 0.553,0.033 0.81,0.033 2.942,0 4.622,-1.334 5.97,-2.404 0.979,-0.78 1.623,-1.263 2.558,-1.458 0.137,-0.028 0.271,-0.041 0.405,-0.041 0.499,0 0.962,0.203 1.325,0.53 -0.155,-0.469 -0.315,-0.915 -0.484,-1.312 -0.318,-0.75 -1.052,-1.218 -1.841,-1.218 -0.134,0 -0.269,0.013 -0.405,0.041 -0.935,0.195 -1.578,0.678 -2.558,1.458 -1.348,1.07 -3.027,2.404 -5.97,2.404 -0.257,0 -0.526,-0.011 -0.81,-0.033 l -0.329,-0.024 -0.305,-0.133 c -2.372,-1.022 -4.156,-2.855 -5.463,-5.1 1.335,3.144 3.418,5.787 6.463,7.1 z"
   style="fill:url(#linearGradient3983);fill-rule:evenodd"
   id="path47"
   inkscape:connector-curvature="0" />
	</g><g
     transform="matrix(0.875,0,0,0.875,7,239.75)"
     style="fill:url(#linearGradient3989)"
     id="g49">
		<linearGradient
   x1="-3.9907"
   y1="47.521"
   x2="69.618896"
   y2="47.521"
   id="SVGID_5_"
   gradientUnits="userSpaceOnUse">
			<stop
   style="stop-color:white;stop-opacity:1"
   offset="0"
   id="stop52" />
			<stop
   style="stop-color:black;stop-opacity:1"
   offset="1"
   id="stop54" />
		</linearGradient>
		<path
   d="m 2.999,70 c 0,-8.123 1.694,-13.047 5.328,-15.497 0.332,-0.222 0.769,-0.342 1.166,-0.342 1.358,0 2.33,0.665 3.456,1.739 l 0.369,0.36 0.192,0.188 c 1.091,1.083 2.317,2.299 4.036,2.299 1.083,0 2.079,-0.469 3.046,-1.432 2.119,-2.12 4.299,-7.255 4.411,-29.249 0.004,-0.54 0.224,-1.056 0.613,-1.431 0.375,-0.358 0.872,-0.559 1.387,-0.559 0.023,0 0.045,0.002 0.068,0.002 0.983,0.033 1.992,0.073 3.023,0.114 2.553,0.1 5.133,0.201 7.628,0.201 5.773,0 12.25,-0.454 16.517,-3.827 l 0.685,-0.541 0.068,-0.868 c 0.208,-2.619 -0.505,-4.284 -1.372,-5.556 0.316,0.961 0.487,2.11 0.372,3.556 l -0.068,0.868 -0.685,0.541 c -4.266,3.373 -10.743,3.827 -16.517,3.827 -2.495,0 -5.075,-0.102 -7.628,-0.201 -1.031,-0.041 -2.04,-0.081 -3.023,-0.114 -0.023,0 -0.045,-0.002 -0.068,-0.002 -0.516,0 -1.013,0.201 -1.387,0.559 -0.39,0.375 -0.609,0.891 -0.613,1.431 -0.112,21.994 -2.292,27.129 -4.411,29.25 -0.967,0.963 -1.963,1.431 -3.046,1.431 -1.719,0 -2.945,-1.216 -4.036,-2.299 L 12.318,54.26 11.949,53.9 c -1.126,-1.075 -2.098,-1.739 -3.456,-1.739 -0.397,0 -0.834,0.12 -1.166,0.342 -3.634,2.45 -5.328,7.374 -5.328,15.497 0,5.927 0.972,9.338 2.33,11.438 C 3.52,77.321 2.999,74.334 2.999,70 z"
   style="fill:url(#linearGradient3987);fill-rule:evenodd"
   id="path56"
   inkscape:connector-curvature="0" />
	</g><g
     transform="matrix(0.875,0,0,0.875,5.25,241.5)"
     style="fill:url(#linearGradient3993)"
     id="g58">
		<linearGradient
   x1="21.6807"
   y1="95.531197"
   x2="25.875299"
   y2="95.531197"
   id="SVGID_6_"
   gradientUnits="userSpaceOnUse">
			<stop
   style="stop-color:white;stop-opacity:1"
   offset="0"
   id="stop61" />
			<stop
   style="stop-color:black;stop-opacity:1"
   offset="1"
   id="stop63" />
		</linearGradient>
		<path
   d="m 22.022,81.343 c 1.04,3.152 2.095,10.352 2.019,26.648 -0.002,0.529 0.207,1.041 0.582,1.418 0.125,0.125 0.269,0.225 0.419,0.312 0.083,-21.549 -1.822,-27.05 -3.02,-28.378 z"
   style="fill:url(#linearGradient3991);fill-rule:evenodd"
   id="path65"
   inkscape:connector-curvature="0" />
	</g><g
     transform="matrix(0.875,0,0,0.875,7,239.75)"
     style="fill:url(#linearGradient3997)"
     id="g67">
		<linearGradient
   x1="46.571301"
   y1="6.8223"
   x2="89.260399"
   y2="6.8223"
   id="SVGID_7_"
   gradientUnits="userSpaceOnUse">
			<stop
   style="stop-color:white;stop-opacity:1"
   offset="0"
   id="stop70" />
			<stop
   style="stop-color:black;stop-opacity:1"
   offset="1"
   id="stop72" />
		</linearGradient>
		<path
   d="M 51.082,11.643 C 51.022,11.324 51.039,10.995 51.134,10.684 52.942,4.832 61.979,4.089 64.706,4.002 72.203,4.004 77.816,4.776 80.8,8.387 80.794,8.252 80.779,8.116 80.746,7.985 80.678,7.707 80.539,7.413 80.336,7.107 77.522,2.877 71.678,2.005 63.706,2.003 60.978,2.09 51.942,2.833 50.134,8.685 c -0.097,0.319 -0.116,0.659 -0.05,0.986 0.161,0.79 0.523,1.369 0.998,1.972 z"
   style="fill:url(#linearGradient3995);fill-rule:evenodd"
   id="path74"
   inkscape:connector-curvature="0" />
	</g></g>
</svg>