<?xml version="1.0" encoding="UTF-8" standalone="no"?>
<!-- Generator: Adobe Illustrator 15.1.0, SVG Export Plug-In . SVG Version: 6.00 Build 0)  -->

<svg
   xmlns:dc="http://purl.org/dc/elements/1.1/"
   xmlns:cc="http://creativecommons.org/ns#"
   xmlns:rdf="http://www.w3.org/1999/02/22-rdf-syntax-ns#"
   xmlns:svg="http://www.w3.org/2000/svg"
   xmlns="http://www.w3.org/2000/svg"
   xmlns:sodipodi="http://sodipodi.sourceforge.net/DTD/sodipodi-0.dtd"
   xmlns:inkscape="http://www.inkscape.org/namespaces/inkscape"
   version="1.1"
   x="0px"
   y="0px"
   width="32"
   height="32"
   viewBox="0 0 32 32"
   xml:space="preserve"
   id="svg2"
   inkscape:version="0.48.3.1 r9886"
   sodipodi:docname="comment_alt2_stroke.svg"><metadata
   id="metadata12"><rdf:RDF><cc:Work
       rdf:about=""><dc:format>image/svg+xml</dc:format><dc:type
         rdf:resource="http://purl.org/dc/dcmitype/StillImage" /><dc:title></dc:title></cc:Work></rdf:RDF></metadata><defs
   id="defs10">
	
</defs><sodipodi:namedview
   pagecolor="#ffffff"
   bordercolor="#666666"
   borderopacity="1"
   objecttolerance="10"
   gridtolerance="10"
   guidetolerance="10"
   inkscape:pageopacity="0"
   inkscape:pageshadow="2"
   inkscape:window-width="1280"
   inkscape:window-height="940"
   id="namedview8"
   showgrid="false"
   inkscape:zoom="22.84375"
   inkscape:cx="16"
   inkscape:cy="16"
   inkscape:window-x="-8"
   inkscape:window-y="-8"
   inkscape:window-maximized="1"
   inkscape:current-layer="svg2" />
<g
   id="Layer_1"
   style="fill:#94d200">
</g>
<path
   inkscape:connector-curvature="0"
   id="path6"
   d="m 18,4 c 5.516,0 10,4.484 10,10 0,5.516 -4.484,10 -10,10 -0.707,0 -5.473,-0.105 -6.34,-0.316 L 9.957,23.262 8.496,24.23 8.039,24.531 8.043,23.847 8.051,22.195 6.891,21.019 C 5.027,19.129 3.9829147,16.636945 4,14 4.0462209,6.86627 10.814013,3.522861 18,4 M 18,0 C 6.9300268,0 -0.04622086,4.8833743 0,14 c 0.01942781,3.831951 1.547,7.297 4.043,9.828 L 4,32 10.703,27.566 C 11.766,27.828 16.859,28 18,28 25.73,28 32,21.73 32,14 32,6.27 25.73,0 18,0 z"
   style="fill:#94d200"
   sodipodi:nodetypes="csscccccccsccscccsscc" />
<text
   xml:space="preserve"
   style="font-size:18.65191460000000100px;font-style:normal;font-variant:normal;font-weight:bold;font-stretch:normal;line-height:125%;letter-spacing:0px;word-spacing:0px;fill:#94d200;fill-opacity:1;stroke:none;font-family:Arial;-inkscape-font-specification:Arial Bold"
   x="5.7257271"
   y="20.708303"
   id="text2994"
   sodipodi:linespacing="125%"><tspan
     sodipodi:role="line"
     id="tspan2996"
     x="5.7257271"
     y="20.708303">=1</tspan></text>
</svg>