<?xml version="1.0" encoding="UTF-8" standalone="no"?>
<!-- Generator: Adobe Illustrator 15.1.0, SVG Export Plug-In . SVG Version: 6.00 Build 0)  -->

<svg
   xmlns:dc="http://purl.org/dc/elements/1.1/"
   xmlns:cc="http://creativecommons.org/ns#"
   xmlns:rdf="http://www.w3.org/1999/02/22-rdf-syntax-ns#"
   xmlns:svg="http://www.w3.org/2000/svg"
   xmlns="http://www.w3.org/2000/svg"
   xmlns:sodipodi="http://sodipodi.sourceforge.net/DTD/sodipodi-0.dtd"
   xmlns:inkscape="http://www.inkscape.org/namespaces/inkscape"
   version="1.1"
   x="0px"
   y="0px"
   width="32"
   height="32"
   viewBox="0 0 32 32"
   xml:space="preserve"
   id="svg2"
   inkscape:version="0.48.3.1 r9886"
   sodipodi:docname="bounce_settings.svg"
   inkscape:export-filename="D:\web\xampp\htdocs\limesurvey_yii\styles\gringegreen\images\bounce_settings.png"
   inkscape:export-xdpi="90"
   inkscape:export-ydpi="90"><metadata
   id="metadata16"><rdf:RDF><cc:Work
       rdf:about=""><dc:format>image/svg+xml</dc:format><dc:type
         rdf:resource="http://purl.org/dc/dcmitype/StillImage" /><dc:title></dc:title></cc:Work></rdf:RDF></metadata><defs
   id="defs14">
	

		
		
	</defs><sodipodi:namedview
   pagecolor="#ffffff"
   bordercolor="#666666"
   borderopacity="1"
   objecttolerance="10"
   gridtolerance="10"
   guidetolerance="10"
   inkscape:pageopacity="0"
   inkscape:pageshadow="2"
   inkscape:window-width="1280"
   inkscape:window-height="940"
   id="namedview12"
   showgrid="false"
   inkscape:zoom="22.84375"
   inkscape:cx="16"
   inkscape:cy="16"
   inkscape:window-x="-8"
   inkscape:window-y="-8"
   inkscape:window-maximized="1"
   inkscape:current-layer="svg2" />
<g
   id="Layer_1"
   transform="translate(0,16)">
</g>
<path
   style="fill:#94d200;fill-opacity:1"
   d="m 0,8 c 0,0 0,2.604167 0,3.90625 2.9734351,1.465457 15.793082,7.810873 15.793082,7.810873 L 9.8930725,13.743684 c 0,0 -4.1600077,0.05914 -6.074153,-1.44925 C 1.9047743,10.786048 0.8994528,8.0291074 0.8994528,8.0291074 z m 24.411906,7.381011 c 0,0 0.197502,0.301983 0.642751,-0.0093 C 27.369771,14.216582 29.684886,13.061416 32,11.90625 32,10.604167 32,9.3020833 32,8 28.378571,8 20.757142,8 17.135713,8 M 0,16.3125 C 0,21.541667 0,26.770833 0,32 c 10.69585,0.02918 21.391701,0.05837 32.087551,0.08755 -0.616216,-2.167949 -1.514032,-7.132753 -2.468727,-10.285859 -0.859181,-3.823783 0.588836,1.770926 -1.513843,3.768747 -1.153789,0.683202 -2.630871,1.58723 -3.968709,0.876574 C 23.232633,26.110557 22.463045,25.583503 21.542931,24.710833 20.83743,23.843395 19.913052,23.107284 19.207551,22.239846 17.994515,22.799489 17.306786,23.315357 16.09375,23.875 10.729167,21.354167 5.3645833,18.833333 0,16.3125 z m 32,0.03125 c -1.701905,0.928651 -2.440747,1.419546 -4.142652,2.348197 2.776267,4.030032 2.488237,9.110679 4.213888,13.447141 C 32.047491,26.873975 32.023745,21.608863 32,16.34375 z"
   id="polygon10"
   inkscape:connector-curvature="0"
   sodipodi:nodetypes="cccczccccccccccccccccccccc" />
<g
   transform="translate(12.2985,32.665304)"
   id="Layer_1-1" /><path
   inkscape:connector-curvature="0"
   id="path6"
   d="m 3.0108067,4.2413598 3.765059,3.7650569 H 10.711075 V 4.0097442 L 6.9924899,0.29265783 C 7.5426692,0.12700348 8.1108394,0.0115715 8.7142379,0.0115715 c 3.3100721,0 5.9950101,2.6864355 5.9950101,5.9965084 0,0.9234642 -0.225618,1.7877103 -0.6004,2.571006 l 12.00801,12.0042601 c 0.359791,0.363539 0.585409,0.861249 0.585409,1.417426 0,1.101109 -0.89273,1.996837 -1.999835,1.996837 -0.553179,0 -1.053887,-0.222621 -1.411429,-0.585408 L 11.280745,11.40569 c -0.780298,0.371783 -1.6467921,0.598901 -2.5665071,0.598901 -3.3145708,0 -5.9965089,-2.6864372 -5.9965089,-5.9965111 0,-0.6191376 0.1169309,-1.2045488 0.2930777,-1.7667201 z"
   style="fill:#94d200;fill-opacity:1" /><path
   style="fill:none;stroke:#ffffff;stroke-width:1.5;stroke-linecap:butt;stroke-linejoin:round;stroke-miterlimit:4;stroke-opacity:1;stroke-dasharray:none"
   d="m 6.5505662,20.083821 -6.70299097,10.876655 13.40598177,0 z"
   inkscape:connector-curvature="0"
   sodipodi:nodetypes="cccc" /><g
   transform="matrix(1.5030151,0,0,0.82214343,-1.4603255,-3.1533706)"
   style="font-size:9.87420368px;font-style:normal;font-variant:normal;font-weight:normal;font-stretch:normal;line-height:125%;letter-spacing:0px;word-spacing:0px;fill:#ffffff;fill-opacity:1;stroke:none;font-family:Arial;-inkscape-font-specification:Arial"
   id="text3766"><path
     d="m 4.869612,37.421033 -0.014097,-3.516118 0,-1.566951 1.0751696,0 0,1.566951 -0.020556,3.516118 z m 0.024475,2.611361 0,-1.569975 0.9980274,0 0,1.569975 z"
     id="path3820"
     inkscape:connector-curvature="0"
     sodipodi:nodetypes="cccccccccccc" /></g></svg>