<?xml version="1.0" encoding="UTF-8" standalone="no"?>
<!-- Generator: Adobe Illustrator 15.1.0, SVG Export Plug-In . SVG Version: 6.00 Build 0)  -->

<svg
   xmlns:dc="http://purl.org/dc/elements/1.1/"
   xmlns:cc="http://creativecommons.org/ns#"
   xmlns:rdf="http://www.w3.org/1999/02/22-rdf-syntax-ns#"
   xmlns:svg="http://www.w3.org/2000/svg"
   xmlns="http://www.w3.org/2000/svg"
   xmlns:sodipodi="http://sodipodi.sourceforge.net/DTD/sodipodi-0.dtd"
   xmlns:inkscape="http://www.inkscape.org/namespaces/inkscape"
   version="1.1"
   x="0px"
   y="0px"
   width="32"
   height="32"
   viewBox="0 0 32 32"
   xml:space="preserve"
   id="svg2"
   inkscape:version="0.48.3.1 r9886"
   sodipodi:docname="bounce.svg"
   inkscape:export-filename="D:\web\xampp\htdocs\limesurvey_yii\styles\gringegreen\images\bounce.png"
   inkscape:export-xdpi="90"
   inkscape:export-ydpi="90"><metadata
   id="metadata16"><rdf:RDF><cc:Work
       rdf:about=""><dc:format>image/svg+xml</dc:format><dc:type
         rdf:resource="http://purl.org/dc/dcmitype/StillImage" /><dc:title /></cc:Work></rdf:RDF></metadata><defs
   id="defs14">
	

		
		
	</defs><sodipodi:namedview
   pagecolor="#ffffff"
   bordercolor="#666666"
   borderopacity="1"
   objecttolerance="10"
   gridtolerance="10"
   guidetolerance="10"
   inkscape:pageopacity="0"
   inkscape:pageshadow="2"
   inkscape:window-width="1280"
   inkscape:window-height="940"
   id="namedview12"
   showgrid="false"
   inkscape:zoom="22.84375"
   inkscape:cx="16"
   inkscape:cy="16"
   inkscape:window-x="-8"
   inkscape:window-y="-8"
   inkscape:window-maximized="1"
   inkscape:current-layer="svg2" />
<g
   id="Layer_1"
   transform="translate(0,16)">
</g>
<path
   style="fill:#94d200;fill-opacity:1"
   d="M 0 8 L 0 11.90625 C 2.9734351 13.371707 11.9375 17.5625 11.9375 17.5625 L 12.8125 13.78125 L 10.40625 12.90625 L 10.09375 8 L 0 8 z M 0 16.3125 L 0 29.28125 L 5.90625 19.6875 A 0.750075 0.750075 0 0 1 6.375 19.34375 L 0 16.3125 z M 32.03125 16.375 C 32.03125 16.375 22.618424 20.826148 16.09375 23.875 L 7.1875 19.6875 L 13.90625 30.5625 A 0.750075 0.750075 0 0 1 13.25 31.71875 L 0 31.71875 L 0 32 L 32.09375 32.09375 L 32.03125 16.375 z M 6.5625 21.5 L 1.1875 30.21875 L 11.9375 30.21875 L 6.5625 21.5 z M 5.84375 23.4375 L 7.46875 23.4375 L 7.46875 24.71875 L 7.4375 27.625 L 5.84375 27.625 L 5.84375 24.71875 L 5.84375 23.4375 z M 5.90625 28.46875 L 7.40625 28.46875 L 7.40625 29.75 L 5.90625 29.75 L 5.90625 28.46875 z "
   id="polygon10" />
<g
   transform="translate(12.2985,32.665304)"
   id="Layer_1-1" /><g
   id="Layer_1-17"
   transform="translate(1.7729138,-2.9110807)" /><path
   inkscape:connector-curvature="0"
   id="path6"
   d="M 31.978113,11.32933 V 8.8122296 L 28.969549,7.5587141 C 28.885856,7.322736 28.797757,7.0943092 28.689522,6.8702872 l 1.2145,-3.0236661 -1.780218,-1.7795897 -2.996607,1.2340083 C 24.89877,3.1902873 24.665308,3.0971546 24.424296,3.0109439 l -1.27554,-2.98905606 h -2.5171 L 19.387579,3.0008755 c -0.250452,0.088728 -0.491464,0.1818605 -0.729959,0.29513 l -2.991573,-1.2019152 -1.77959,1.7795896 1.219535,2.9645143 C 14.987688,7.0817236 14.892039,7.329658 14.800794,7.5857729 l -2.959481,1.2654718 v 2.5171003 l 2.961998,1.234008 c 0.09124,0.255486 0.189412,0.504049 0.307086,0.747579 l -1.196881,2.984021 1.779589,1.779591 2.972067,-1.223941 c 0.238495,0.11327 0.482024,0.203885 0.732476,0.290097 l 1.273023,2.978987 h 2.5171 l 1.245964,-2.994091 c 0.238495,-0.08873 0.474473,-0.18186 0.700384,-0.290095 l 3.018631,1.209466 1.77959,-1.779589 -1.239042,-3.003529 c 0.105718,-0.22591 0.191929,-0.454967 0.275622,-0.688427 l 3.009193,-1.283092 z m -10.087907,2.536607 c -2.084159,0 -3.775651,-1.691491 -3.775651,-3.775649 0,-2.0841594 1.691492,-3.7756505 3.775651,-3.7756505 2.084158,0 3.77565,1.6914911 3.77565,3.7756505 0,2.084158 -1.691492,3.775649 -3.77565,3.775649 z"
   style="fill:#94d200" /></svg>