<?xml version="1.0" encoding="UTF-8" standalone="no"?>
<!-- Generator: Adobe Illustrator 15.1.0, SVG Export Plug-In . SVG Version: 6.00 Build 0)  -->

<svg
   xmlns:dc="http://purl.org/dc/elements/1.1/"
   xmlns:cc="http://creativecommons.org/ns#"
   xmlns:rdf="http://www.w3.org/1999/02/22-rdf-syntax-ns#"
   xmlns:svg="http://www.w3.org/2000/svg"
   xmlns="http://www.w3.org/2000/svg"
   xmlns:sodipodi="http://sodipodi.sourceforge.net/DTD/sodipodi-0.dtd"
   xmlns:inkscape="http://www.inkscape.org/namespaces/inkscape"
   version="1.1"
   x="0px"
   y="0px"
   width="32"
   height="32"
   viewBox="0 0 32 32"
   xml:space="preserve"
   id="svg2"
   inkscape:version="0.48.3.1 r9886"
   sodipodi:docname="browse.svg"><metadata
   id="metadata12"><rdf:RDF><cc:Work
       rdf:about=""><dc:format>image/svg+xml</dc:format><dc:type
         rdf:resource="http://purl.org/dc/dcmitype/StillImage" /><dc:title /></cc:Work></rdf:RDF></metadata><defs
   id="defs10">
	
</defs><sodipodi:namedview
   pagecolor="#ffffff"
   bordercolor="#666666"
   borderopacity="1"
   objecttolerance="10"
   gridtolerance="10"
   guidetolerance="10"
   inkscape:pageopacity="0"
   inkscape:pageshadow="2"
   inkscape:window-width="1280"
   inkscape:window-height="940"
   id="namedview8"
   showgrid="false"
   inkscape:zoom="22.84375"
   inkscape:cx="16"
   inkscape:cy="16"
   inkscape:window-x="-8"
   inkscape:window-y="-8"
   inkscape:window-maximized="1"
   inkscape:current-layer="svg2" />
<g
   id="Layer_1"
   transform="translate(0,2)">
</g>
<path
   inkscape:connector-curvature="0"
   id="path6"
   d="m 20,6 c 4.414,0 8,3.586 8,8 0,4.414 -3.586,8 -8,8 H 12 C 9.391,22 7.066,23.258 5.605,25.203 4.633,24.469 4,23.305 4,22 V 12 C 4,8.691 6.695,6 10,6 H 20 M 20,2 H 10 C 4.477,2 0,6.477 0,12 v 10 c 0,4.418 3.586,8 8,8 0,-2.211 1.793,-4 4,-4 h 8 C 26.629,26 32,20.625 32,14 32,7.375 26.629,2 20,2 l 0,0 z"
   style="fill:#94d200" />
<path
   inkscape:connector-curvature="0"
   id="path6-1"
   d="m 20,6 c 4.414,0 8,3.586 8,8 0,4.414 -3.586,8 -8,8 H 12 C 9.391,22 7.066,23.258 5.605,25.203 4.633,24.469 4,23.305 4,22 V 12 C 4,8.691 6.695,6 10,6 H 20 M 20,2 H 10 C 4.477,2 0,6.477 0,12 v 10 c 0,4.418 3.586,8 8,8 0,-2.211 1.793,-4 4,-4 h 8 C 26.629,26 32,20.625 32,14 32,7.375 26.629,2 20,2 l 0,0 z"
   style="fill:#94d200" /></svg>