<?xml version="1.0" encoding="UTF-8" standalone="no"?>
<!-- Generator: Adobe Illustrator 15.1.0, SVG Export Plug-In . SVG Version: 6.00 Build 0)  -->

<svg
   xmlns:dc="http://purl.org/dc/elements/1.1/"
   xmlns:cc="http://creativecommons.org/ns#"
   xmlns:rdf="http://www.w3.org/1999/02/22-rdf-syntax-ns#"
   xmlns:svg="http://www.w3.org/2000/svg"
   xmlns="http://www.w3.org/2000/svg"
   xmlns:sodipodi="http://sodipodi.sourceforge.net/DTD/sodipodi-0.dtd"
   xmlns:inkscape="http://www.inkscape.org/namespaces/inkscape"
   version="1.1"
   x="0px"
   y="0px"
   width="32"
   height="32"
   viewBox="0 0 32 32"
   xml:space="preserve"
   id="svg2"
   inkscape:version="0.48.3.1 r9886"
   sodipodi:docname="conditions_add.svg"
   inkscape:export-filename="D:\web\xampp\htdocs\limesurvey_yii\styles\gringegreen\images\conditions_add.png"
   inkscape:export-xdpi="90"
   inkscape:export-ydpi="90"><metadata
   id="metadata16"><rdf:RDF><cc:Work
       rdf:about=""><dc:format>image/svg+xml</dc:format><dc:type
         rdf:resource="http://purl.org/dc/dcmitype/StillImage" /><dc:title></dc:title></cc:Work></rdf:RDF></metadata><defs
   id="defs14">
	
</defs><sodipodi:namedview
   pagecolor="#ffffff"
   bordercolor="#666666"
   borderopacity="1"
   objecttolerance="10"
   gridtolerance="10"
   guidetolerance="10"
   inkscape:pageopacity="0"
   inkscape:pageshadow="2"
   inkscape:window-width="1280"
   inkscape:window-height="940"
   id="namedview12"
   showgrid="false"
   inkscape:zoom="22.84375"
   inkscape:cx="16"
   inkscape:cy="16"
   inkscape:window-x="-8"
   inkscape:window-y="-8"
   inkscape:window-maximized="1"
   inkscape:current-layer="svg2" />
<g
   id="Layer_1">
</g>
<g
   id="g6"
   style="fill:#94d200"
   transform="translate(2,0)">
		<path
   inkscape:connector-curvature="0"
   id="path8"
   d="m 20,0 v 3.875 c 0,1.602 -0.625,3.109 -1.754,4.238 L 6.93,19.367 C 5.141,21.152 4.156,23.496 4.047,26 H 0 l 6,6 6,-6 H 8.043 C 8.148,24.562 8.727,23.227 9.754,22.195 L 21.07,10.945 C 22.961,9.055 24,6.547 24,3.875 V 0 h -4 z"
   style="fill:#94d200" />
		<path
   inkscape:connector-curvature="0"
   id="path10"
   d="m 23.953,26 c -0.109,-2.504 -1.098,-4.848 -2.887,-6.641 l -2.23,-2.215 -2.836,2.821 2.242,2.23 c 1.031,1.027 1.609,2.367 1.715,3.805 H 16 l 6,6 6,-6 h -4.047 z"
   style="fill:#94d200" />
	</g>
<path
   inkscape:connector-curvature="0"
   id="path6"
   d="m 7.998148,0.0089204 c -4.4180001,0 -7.99999995,3.582 -7.99999995,7.9999995 0,4.4179991 3.58199985,7.9999991 7.99999995,7.9999991 4.418,0 8,-3.582 8,-7.9999991 0,-4.4179995 -3.582,-7.9999995 -8,-7.9999995 z m 3.999999,9 H 8.998148 V 12.008918 H 6.9981475 V 9.0089204 H 3.9981476 V 7.0089199 H 6.9981475 V 4.0089205 H 8.998148 v 2.9999994 h 2.999999 v 2.0000005 z"
   style="fill:#94d200;stroke:none" /></svg>