<?xml version="1.0" encoding="UTF-8" standalone="no"?>
<!-- Generator: Adobe Illustrator 15.1.0, SVG Export Plug-In . SVG Version: 6.00 Build 0)  -->

<svg
   xmlns:dc="http://purl.org/dc/elements/1.1/"
   xmlns:cc="http://creativecommons.org/ns#"
   xmlns:rdf="http://www.w3.org/1999/02/22-rdf-syntax-ns#"
   xmlns:svg="http://www.w3.org/2000/svg"
   xmlns="http://www.w3.org/2000/svg"
   xmlns:sodipodi="http://sodipodi.sourceforge.net/DTD/sodipodi-0.dtd"
   xmlns:inkscape="http://www.inkscape.org/namespaces/inkscape"
   version="1.1"
   x="0px"
   y="0px"
   width="32"
   height="32"
   viewBox="0 0 32 32"
   xml:space="preserve"
   id="svg2"
   inkscape:version="0.48.3.1 r9886"
   sodipodi:docname="conditions_delete_all.svg"
   inkscape:export-filename="D:\web\xampp\htdocs\limesurvey_yii\styles\gringegreen\images\conditions_deleteall_16.png"
   inkscape:export-xdpi="45"
   inkscape:export-ydpi="45"><metadata
   id="metadata16"><rdf:RDF><cc:Work
       rdf:about=""><dc:format>image/svg+xml</dc:format><dc:type
         rdf:resource="http://purl.org/dc/dcmitype/StillImage" /><dc:title></dc:title></cc:Work></rdf:RDF></metadata><defs
   id="defs14">
	
</defs><sodipodi:namedview
   pagecolor="#ffffff"
   bordercolor="#666666"
   borderopacity="1"
   objecttolerance="10"
   gridtolerance="10"
   guidetolerance="10"
   inkscape:pageopacity="0"
   inkscape:pageshadow="2"
   inkscape:window-width="640"
   inkscape:window-height="480"
   id="namedview12"
   showgrid="false"
   inkscape:zoom="8.8515729"
   inkscape:cx="16"
   inkscape:cy="26.237521"
   inkscape:window-x="290"
   inkscape:window-y="278"
   inkscape:window-maximized="0"
   inkscape:current-layer="svg2" />
<g
   id="Layer_1">
</g>

<path
   inkscape:connector-curvature="0"
   id="path6-7"
   d="m 28.787963,9.3406293 h -3.233928 c 0,-1.7875525 -1.446373,-3.2339261 -3.233925,-3.2339261 h -6.467852 c -1.787553,0 -3.233927,1.4463736 -3.233927,3.2339261 H 9.3844049 6.1504789 v 3.2339257 h 3.233926 v 14.552667 c 0,2.67769 2.1731981,4.85089 4.8508901,4.85089 h 9.701778 c 2.67769,0 4.85089,-2.1732 4.85089,-4.85089 V 12.574555 h 3.233925 V 9.3406293 H 28.787963 z M 15.852258,25.510258 c -0.893372,0 -1.616963,-0.72359 -1.616963,-1.616961 0,-0.893374 0.723591,-1.616964 1.616963,-1.616964 0.893371,0 1.616962,0.72359 1.616962,1.616964 0,0.893371 -0.723591,1.616961 -1.616962,1.616961 z m 0,-6.467852 c -0.893372,0 -1.616963,-0.72359 -1.616963,-1.616962 0,-0.893372 0.723591,-1.616964 1.616963,-1.616964 0.893371,0 1.616962,0.723592 1.616962,1.616964 0,0.893372 -0.723591,1.616962 -1.616962,1.616962 z m 6.467852,6.467852 c -0.893372,0 -1.616964,-0.72359 -1.616964,-1.616961 0,-0.893374 0.723592,-1.616964 1.616964,-1.616964 0.893372,0 1.616963,0.72359 1.616963,1.616964 0,0.893371 -0.723591,1.616961 -1.616963,1.616961 z m 0,-6.467852 c -0.893372,0 -1.616964,-0.72359 -1.616964,-1.616962 0,-0.893372 0.723592,-1.616964 1.616964,-1.616964 0.893372,0 1.616963,0.723592 1.616963,1.616964 0,0.893372 -0.723591,1.616962 -1.616963,1.616962 z"
   style="fill:#b9ff11;fill-opacity:1" /><path
   inkscape:connector-curvature="0"
   id="path6"
   d="m 22.659372,3.2558141 h -3.233928 c 0,-1.7875527 -1.446373,-3.23392629 -3.233925,-3.23392629 H 9.7236663 C 7.9361135,0.02188781 6.48974,1.4682614 6.48974,3.2558141 H 3.2558135 0.02188752 V 6.4897402 H 3.2558135 V 21.042407 c 0,2.67769 2.1731985,4.85089 4.8508897,4.85089 h 9.7017788 c 2.67769,0 4.85089,-2.1732 4.85089,-4.85089 V 6.4897402 h 3.233925 V 3.2558141 H 22.659372 z M 9.7236663,19.425443 c -0.8933721,0 -1.6169631,-0.72359 -1.6169631,-1.616961 0,-0.893374 0.723591,-1.616964 1.6169631,-1.616964 0.8933717,0 1.6169627,0.72359 1.6169627,1.616964 0,0.893371 -0.723591,1.616961 -1.6169627,1.616961 z m 0,-6.467852 c -0.8933721,0 -1.6169631,-0.72359 -1.6169631,-1.616962 0,-0.893372 0.723591,-1.6169635 1.6169631,-1.6169635 0.8933717,0 1.6169627,0.7235915 1.6169627,1.6169635 0,0.893372 -0.723591,1.616962 -1.6169627,1.616962 z m 6.4678527,6.467852 c -0.893372,0 -1.616964,-0.72359 -1.616964,-1.616961 0,-0.893374 0.723592,-1.616964 1.616964,-1.616964 0.893372,0 1.616963,0.72359 1.616963,1.616964 0,0.893371 -0.723591,1.616961 -1.616963,1.616961 z m 0,-6.467852 c -0.893372,0 -1.616964,-0.72359 -1.616964,-1.616962 0,-0.893372 0.723592,-1.6169635 1.616964,-1.6169635 0.893372,0 1.616963,0.7235915 1.616963,1.6169635 0,0.893372 -0.723591,1.616962 -1.616963,1.616962 z"
   style="fill:#94d200" /></svg>