<?xml version="1.0" encoding="UTF-8" standalone="no"?>
<!-- Generator: Adobe Illustrator 15.1.0, SVG Export Plug-In . SVG Version: 6.00 Build 0)  -->

<svg
   xmlns:dc="http://purl.org/dc/elements/1.1/"
   xmlns:cc="http://creativecommons.org/ns#"
   xmlns:rdf="http://www.w3.org/1999/02/22-rdf-syntax-ns#"
   xmlns:svg="http://www.w3.org/2000/svg"
   xmlns="http://www.w3.org/2000/svg"
   xmlns:sodipodi="http://sodipodi.sourceforge.net/DTD/sodipodi-0.dtd"
   xmlns:inkscape="http://www.inkscape.org/namespaces/inkscape"
   version="1.1"
   x="0px"
   y="0px"
   width="32px"
   height="32px"
   viewBox="0 0 32 32"
   style="enable-background:new 0 0 32 32;"
   xml:space="preserve"
   id="svg2"
   inkscape:version="0.48.3.1 r9886"
   sodipodi:docname="dataend.svg"
   inkscape:export-filename="D:\web\xampp\htdocs\limesurvey_yii\styles\gringegreen\images\dataend.png"
   inkscape:export-xdpi="90"
   inkscape:export-ydpi="90"><metadata
   id="metadata12"><rdf:RDF><cc:Work
       rdf:about=""><dc:format>image/svg+xml</dc:format><dc:type
         rdf:resource="http://purl.org/dc/dcmitype/StillImage" /><dc:title></dc:title></cc:Work></rdf:RDF></metadata><defs
   id="defs10">
	
</defs><sodipodi:namedview
   pagecolor="#ffffff"
   bordercolor="#666666"
   borderopacity="1"
   objecttolerance="10"
   gridtolerance="10"
   guidetolerance="10"
   inkscape:pageopacity="0"
   inkscape:pageshadow="2"
   inkscape:window-width="1280"
   inkscape:window-height="940"
   id="namedview8"
   showgrid="false"
   inkscape:zoom="22.84375"
   inkscape:cx="16"
   inkscape:cy="16"
   inkscape:window-x="-8"
   inkscape:window-y="-8"
   inkscape:window-maximized="1"
   inkscape:current-layer="svg2"
   showguides="true"
   inkscape:guide-bbox="true"><sodipodi:guide
     orientation="0,1"
     position="5.0099598,23.976236"
     id="guide2994" /><sodipodi:guide
     orientation="0,1"
     position="8.9463568,8.1113635"
     id="guide2996" /></sodipodi:namedview>
<g
   id="Layer_1">
</g>
<path
   style="fill:#94d200"
   d="M 16 0 C 7.164 0 2.6214382e-018 7.162 0 16 C 0 24.834 7.164 32 16 32 C 24.836 32 32 24.834 32 16 C 32 7.162 24.836 2.6214382e-018 16 0 z M 14.84375 8 L 22.75 16 L 22.75 8.03125 L 25.15625 8.03125 L 25.15625 23.90625 L 22.75 23.90625 L 22.75 16.0625 L 14.84375 24 L 14.84375 18 L 6.84375 18 L 6.84375 14.03125 L 14.84375 14.03125 L 14.84375 8 z M 22.75 16.0625 L 22.78125 16.03125 L 22.75 16 L 22.75 16.0625 z "
   id="path3768" />
</svg>