<?xml version="1.0" encoding="UTF-8" standalone="no"?>
<!-- Generator: Adobe Illustrator 15.1.0, SVG Export Plug-In . SVG Version: 6.00 Build 0)  -->

<svg
   xmlns:dc="http://purl.org/dc/elements/1.1/"
   xmlns:cc="http://creativecommons.org/ns#"
   xmlns:rdf="http://www.w3.org/1999/02/22-rdf-syntax-ns#"
   xmlns:svg="http://www.w3.org/2000/svg"
   xmlns="http://www.w3.org/2000/svg"
   xmlns:sodipodi="http://sodipodi.sourceforge.net/DTD/sodipodi-0.dtd"
   xmlns:inkscape="http://www.inkscape.org/namespaces/inkscape"
   version="1.1"
   x="0px"
   y="0px"
   width="32px"
   height="32px"
   viewBox="0 0 32 32"
   style="enable-background:new 0 0 32 32;"
   xml:space="preserve"
   id="svg2"
   inkscape:version="0.48.3.1 r9886"
   sodipodi:docname="dataentry.svg"
   inkscape:export-filename="D:\web\xampp\htdocs\limesurvey_yii\styles\gringegreen\images\dataentry.png"
   inkscape:export-xdpi="90"
   inkscape:export-ydpi="90"><metadata
   id="metadata12"><rdf:RDF><cc:Work
       rdf:about=""><dc:format>image/svg+xml</dc:format><dc:type
         rdf:resource="http://purl.org/dc/dcmitype/StillImage" /><dc:title></dc:title></cc:Work></rdf:RDF></metadata><defs
   id="defs10">
	
</defs><sodipodi:namedview
   pagecolor="#ffffff"
   bordercolor="#666666"
   borderopacity="1"
   objecttolerance="10"
   gridtolerance="10"
   guidetolerance="10"
   inkscape:pageopacity="0"
   inkscape:pageshadow="2"
   inkscape:window-width="1280"
   inkscape:window-height="940"
   id="namedview8"
   showgrid="false"
   inkscape:zoom="16.753571"
   inkscape:cx="16.605255"
   inkscape:cy="13.172265"
   inkscape:window-x="-8"
   inkscape:window-y="-8"
   inkscape:window-maximized="1"
   inkscape:current-layer="svg2" />


<g
   id="g3042"
   transform="matrix(0.51987997,0,0,0.51987997,47.237242,-10.326221)"><path
     sodipodi:nodetypes="ccccccccssssscccccccccsssssssssssssssssssssssssssssssssssssssssssssssssssssss"
     style="fill:#94d200"
     d="m -90.896034,61.455541 0,-20 31,0 31,0 c 0,0 0,-145.312221 0,40 l -31,0 -31,0 z m 12,8 c 0,-2.666667 -0.333333,-3 -3,-3 -2.666667,0 -3,0.333333 -3,3 0,2.666667 0.333333,3 3,3 2.666667,0 3,-0.333333 3,-3 z m 33,0 0,-3 -14,0 -14,0 0,3 0,3 14,0 14,0 z m 11,0 c 0,-2.666667 -0.333333,-3 -3,-3 -2.666667,0 -3,0.333333 -3,3 0,2.666667 0.333333,3 3,3 2.666667,0 3,-0.333333 3,-3 z m -44,-10 c 0,-2.666667 -0.333333,-3 -3,-3 -2.666667,0 -3,0.333333 -3,3 0,2.666667 0.333333,3 3,3 2.666667,0 3,-0.333333 3,-3 z m 11,0 c 0,-2.666667 -0.333333,-3 -3,-3 -2.666667,0 -3,0.333333 -3,3 0,2.666667 0.333333,3 3,3 2.666667,0 3,-0.333333 3,-3 z m 11,0 c 0,-2.666667 -0.333333,-3 -3,-3 -2.666667,0 -3,0.333333 -3,3 0,2.666667 0.333333,3 3,3 2.666667,0 3,-0.333333 3,-3 z m 11,0 c 0,-2.666667 -0.333333,-3 -3,-3 -2.666667,0 -3,0.333333 -3,3 0,2.666667 0.333333,3 3,3 2.666667,0 3,-0.333333 3,-3 z m 11,0 c 0,-2.666667 -0.333333,-3 -3,-3 -2.666667,0 -3,0.333333 -3,3 0,2.666667 0.333333,3 3,3 2.666667,0 3,-0.333333 3,-3 z m -44,-10 c 0,-2.666667 -0.333333,-3 -3,-3 -2.666667,0 -3,0.333333 -3,3 0,2.666667 0.333333,3 3,3 2.666667,0 3,-0.333333 3,-3 z m 11,0 c 0,-2.666667 -0.333333,-3 -3,-3 -2.666667,0 -3,0.333333 -3,3 0,2.666667 0.333333,3 3,3 2.666667,0 3,-0.333333 3,-3 z m 11,0 c 0,-2.666667 -0.333333,-3 -3,-3 -2.666667,0 -3,0.333333 -3,3 0,2.666667 0.333333,3 3,3 2.666667,0 3,-0.333333 3,-3 z m 11,0 c 0,-2.666667 -0.333333,-3 -3,-3 -2.666667,0 -3,0.333333 -3,3 0,2.666667 0.333333,3 3,3 2.666667,0 3,-0.333333 3,-3 z m 11,0 c 0,-2.666667 -0.333333,-3 -3,-3 -2.666667,0 -3,0.333333 -3,3 0,2.666667 0.333333,3 3,3 2.666667,0 3,-0.333333 3,-3 z"
     id="path3019"
     inkscape:connector-curvature="0" /><path
     inkscape:connector-curvature="0"
     id="path3040"
     d="m -81.422709,42.506156 c 5.389016,-13.283035 11.265478,-14.765349 34.085124,-7.850812 8.647553,2.620278 2.125992,-15.142206 2.125992,-15.142206"
     style="fill:none;stroke:#94d200;stroke-width:3.84704185;stroke-linecap:butt;stroke-linejoin:miter;stroke-miterlimit:4;stroke-opacity:1;stroke-dasharray:none"
     sodipodi:nodetypes="csc" /></g></svg>