<?xml version="1.0" encoding="UTF-8" standalone="no"?>
<!-- Generator: Adobe Illustrator 15.1.0, SVG Export Plug-In . SVG Version: 6.00 Build 0)  -->

<svg
   xmlns:dc="http://purl.org/dc/elements/1.1/"
   xmlns:cc="http://creativecommons.org/ns#"
   xmlns:rdf="http://www.w3.org/1999/02/22-rdf-syntax-ns#"
   xmlns:svg="http://www.w3.org/2000/svg"
   xmlns="http://www.w3.org/2000/svg"
   xmlns:sodipodi="http://sodipodi.sourceforge.net/DTD/sodipodi-0.dtd"
   xmlns:inkscape="http://www.inkscape.org/namespaces/inkscape"
   version="1.1"
   x="0px"
   y="0px"
   width="32"
   height="32"
   viewBox="0 0 32 32"
   xml:space="preserve"
   id="svg2"
   inkscape:version="0.48.3.1 r9886"
   sodipodi:docname="emailtemplates.svg"
   inkscape:export-filename="D:\web\xampp\htdocs\limesurvey_yii\styles\gringegreen\images\emailtemplates.png"
   inkscape:export-xdpi="90"
   inkscape:export-ydpi="90"><metadata
   id="metadata16"><rdf:RDF><cc:Work
       rdf:about=""><dc:format>image/svg+xml</dc:format><dc:type
         rdf:resource="http://purl.org/dc/dcmitype/StillImage" /><dc:title></dc:title></cc:Work></rdf:RDF></metadata><defs
   id="defs14">
	
</defs><sodipodi:namedview
   pagecolor="#ffffff"
   bordercolor="#666666"
   borderopacity="1"
   objecttolerance="10"
   gridtolerance="10"
   guidetolerance="10"
   inkscape:pageopacity="0"
   inkscape:pageshadow="2"
   inkscape:window-width="718"
   inkscape:window-height="720"
   id="namedview12"
   showgrid="false"
   inkscape:zoom="15.96875"
   inkscape:cx="16"
   inkscape:cy="16"
   inkscape:window-x="0"
   inkscape:window-y="0"
   inkscape:window-maximized="0"
   inkscape:current-layer="svg2" />
<g
   id="Layer_1"
   transform="translate(0,2)">
</g>
<g
   id="g6"
   transform="translate(0,8)">
		<path
   style="fill:#94d200"
   d="M 16.078,11.457 32,3.918 32,0 25.616438,6.9510763 19.841487,9.706458 14.614481,9.7064579 14.367906,2.1917808 16,0 0,0 0,3.906 z"
   id="polygon8"
   inkscape:connector-curvature="0"
   sodipodi:nodetypes="ccccccccccc" />
		<polygon
   id="polygon10"
   points="16.086,15.879 0,8.32 0,24 32,24 32,8.344 "
   style="fill:#94d200" />
	</g>
<g
   id="Layer_1-1"
   transform="translate(-0.21905308,12.367906)"
   style="fill:#008000" /><g
   id="pen_x5F_alt_x5F_stroke"
   transform="matrix(0.50489237,0,0,0.50489237,15.937502,0.09393287)"
   style="fill:#94d200"><path
     inkscape:connector-curvature="0"
     style="fill:#94d200"
     d="M 29.656,2.344 C 28.094,0.781 26.047,0 24,0 21.953,0 19.906,0.781 18.344,2.344 L 0.031,20.656 0,32 H 11.312 L 29.656,13.656 c 3.125,-3.125 3.125,-8.187 0,-11.312 z M 9.656,28 H 9.613 c 1.562,-1.562 1.562,-4.125 0,-5.688 C 8.117,20.816 5.754,20.796 4.183,22.164 L 21.137,5.211 26.793,10.867 9.656,28 z"
     id="path6" /></g></svg>