<?xml version="1.0" encoding="UTF-8" standalone="no"?>
<!-- Created with Inkscape (http://www.inkscape.org/) -->

<svg
   xmlns:dc="http://purl.org/dc/elements/1.1/"
   xmlns:cc="http://creativecommons.org/ns#"
   xmlns:rdf="http://www.w3.org/1999/02/22-rdf-syntax-ns#"
   xmlns:svg="http://www.w3.org/2000/svg"
   xmlns="http://www.w3.org/2000/svg"
   xmlns:xlink="http://www.w3.org/1999/xlink"
   xmlns:sodipodi="http://sodipodi.sourceforge.net/DTD/sodipodi-0.dtd"
   xmlns:inkscape="http://www.inkscape.org/namespaces/inkscape"
   width="320"
   height="320"
   id="svg2"
   sodipodi:version="0.32"
   inkscape:version="0.48.3.1 r9886"
   sodipodi:docname="exportspss.svg"
   inkscape:export-filename="D:\web\xampp\htdocs\limesurvey_yii\styles\gringegreen\images\dumplabel.png"
   inkscape:export-xdpi="9.4903154"
   inkscape:export-ydpi="9.4903154"
   version="1.0"
   inkscape:output_extension="org.inkscape.output.svg.inkscape">
  <defs
     id="defs4">
    <linearGradient
       inkscape:collect="always"
       xlink:href="#linearGradient6924"
       id="linearGradient4837"
       gradientUnits="userSpaceOnUse"
       gradientTransform="matrix(8.4310154,0,0,8.6541422,-27.793881,1.7586788)"
       x1="16.07143"
       y1="19.5"
       x2="15.785715"
       y2="30" />
    <linearGradient
       id="linearGradient6924"
       inkscape:collect="always">
      <stop
         id="stop6926"
         offset="0"
         style="stop-color:#ffffff;stop-opacity:1;" />
      <stop
         id="stop6928"
         offset="1"
         style="stop-color:#ffffff;stop-opacity:0;" />
    </linearGradient>
    <linearGradient
       inkscape:collect="always"
       xlink:href="#linearGradient6924"
       id="linearGradient3221"
       gradientUnits="userSpaceOnUse"
       gradientTransform="matrix(8.420009,0,0,9.0954697,-5.1866184,-12.941761)"
       x1="16.07143"
       y1="19.5"
       x2="15.785715"
       y2="30" />
    <linearGradient
       id="linearGradient6932">
      <stop
         style="stop-color:#ffffff;stop-opacity:1.0000000;"
         offset="0.0000000"
         id="stop6934" />
      <stop
         style="stop-color:#e7e6ae;stop-opacity:1.0000000;"
         offset="1.0000000"
         id="stop6936" />
    </linearGradient>
    <linearGradient
       inkscape:collect="always"
       xlink:href="#linearGradient6932"
       id="linearGradient3216"
       gradientUnits="userSpaceOnUse"
       x1="24"
       y1="8.0476589"
       x2="36.075581"
       y2="20.095198" />
    <linearGradient
       id="linearGradient4176"
       inkscape:collect="always">
      <stop
         id="stop4178"
         offset="0"
         style="stop-color:#ffffff;stop-opacity:1;" />
      <stop
         id="stop4180"
         offset="1"
         style="stop-color:#ffffff;stop-opacity:0;" />
    </linearGradient>
    <linearGradient
       inkscape:collect="always"
       xlink:href="#linearGradient4176"
       id="linearGradient3225"
       gradientUnits="userSpaceOnUse"
       gradientTransform="matrix(8.420009,0,0,9.0954697,-3.9837714,-36.979769)"
       x1="18.372278"
       y1="15.014635"
       x2="25.645538"
       y2="31.52413" />
    <linearGradient
       id="linearGradient4134">
      <stop
         id="stop4136"
         offset="0"
         style="stop-color:#88710c;stop-opacity:1;" />
      <stop
         style="stop-color:#e8de8b;stop-opacity:1;"
         offset="0.25"
         id="stop4148" />
      <stop
         style="stop-color:#e0ce69;stop-opacity:1;"
         offset="0.5"
         id="stop4142" />
      <stop
         id="stop4138"
         offset="1.0000000"
         style="stop-color:#333432;stop-opacity:1.0000000;" />
    </linearGradient>
    <linearGradient
       inkscape:collect="always"
       xlink:href="#linearGradient4134"
       id="linearGradient3228"
       gradientUnits="userSpaceOnUse"
       gradientTransform="matrix(8.6412616,0,0,9.3344714,-9.3080694,-43.365498)"
       x1="9.3030529"
       y1="26.71875"
       x2="38.826412"
       y2="26.71875" />
    <linearGradient
       inkscape:collect="always"
       xlink:href="#XMLID_67_"
       id="linearGradient2461"
       gradientUnits="userSpaceOnUse"
       x1="121.9199"
       y1="-31.549801"
       x2="192.1555"
       y2="164.10899"
       gradientTransform="translate(-9.6464549,-16.536787)" />
    <linearGradient
       inkscape:collect="always"
       xlink:href="#XMLID_66_"
       id="linearGradient2464"
       gradientUnits="userSpaceOnUse"
       x1="178.3188"
       y1="19.8276"
       x2="178.3188"
       y2="269.08029"
       gradientTransform="translate(-9.6464549,-16.536787)" />
    <linearGradient
       id="linearGradient3477">
      <stop
         id="stop3479"
         offset="0"
         style="stop-color:#bf5f00;stop-opacity:1;" />
      <stop
         style="stop-color:#763900;stop-opacity:1;"
         offset="0.5"
         id="stop3481" />
      <stop
         id="stop3483"
         offset="1"
         style="stop-color:#c86400;stop-opacity:1;" />
    </linearGradient>
    <linearGradient
       id="linearGradient3449">
      <stop
         style="stop-color:#bf5f00;stop-opacity:1;"
         offset="0"
         id="stop3451" />
      <stop
         id="stop3453"
         offset="0.5"
         style="stop-color:#763900;stop-opacity:1;" />
      <stop
         style="stop-color:#c86400;stop-opacity:1;"
         offset="1"
         id="stop3455" />
    </linearGradient>
    <linearGradient
       id="linearGradient3431">
      <stop
         id="stop3433"
         offset="0"
         style="stop-color:#c86400;stop-opacity:1;" />
      <stop
         style="stop-color:#763900;stop-opacity:1;"
         offset="0.5"
         id="stop3435" />
      <stop
         id="stop3437"
         offset="1"
         style="stop-color:#c86400;stop-opacity:1;" />
    </linearGradient>
    <linearGradient
       id="linearGradient3383">
      <stop
         style="stop-color:#c86400;stop-opacity:1;"
         offset="0"
         id="stop3385" />
      <stop
         id="stop3387"
         offset="0.5"
         style="stop-color:#763900;stop-opacity:1;" />
      <stop
         style="stop-color:#c86400;stop-opacity:1;"
         offset="1"
         id="stop3389" />
    </linearGradient>
    <linearGradient
       id="XMLID_67_"
       gradientUnits="userSpaceOnUse"
       x1="121.9199"
       y1="-31.549801"
       x2="192.1555"
       y2="164.10899">
      <stop
         offset="0"
         style="stop-color:#6ABD45"
         id="stop27" />
      <stop
         offset="0.6348"
         style="stop-color:#06AD4D"
         id="stop29" />
      <stop
         offset="0.7442"
         style="stop-color:#0C864E"
         id="stop31" />
      <stop
         offset="0.8524"
         style="stop-color:#096A4C"
         id="stop33" />
      <stop
         offset="0.9414"
         style="stop-color:#045A49"
         id="stop35" />
      <stop
         offset="1"
         style="stop-color:#055448"
         id="stop37" />
    </linearGradient>
    <linearGradient
       id="XMLID_66_"
       gradientUnits="userSpaceOnUse"
       x1="178.3188"
       y1="19.8276"
       x2="178.3188"
       y2="269.08029">
      <stop
         offset="0"
         style="stop-color:#6ABD45"
         id="stop18" />
      <stop
         offset="0.6685"
         style="stop-color:#06AD4D"
         id="stop20" />
      <stop
         offset="1"
         style="stop-color:#055448"
         id="stop22" />
    </linearGradient>
    <inkscape:perspective
       sodipodi:type="inkscape:persp3d"
       inkscape:vp_x="0 : 200 : 1"
       inkscape:vp_y="0 : 1000 : 0"
       inkscape:vp_z="400 : 200 : 1"
       inkscape:persp3d-origin="200 : 133.33333 : 1"
       id="perspective75" />
    <linearGradient
       id="linearGradient4960">
      <stop
         id="stop4962"
         offset="0.0000000"
         style="stop-color:#ffffff;stop-opacity:0.73092371;" />
      <stop
         id="stop4964"
         offset="1.0000000"
         style="stop-color:#ffffff;stop-opacity:0.0000000;" />
    </linearGradient>
    <linearGradient
       id="linearGradient1738">
      <stop
         id="stop1739"
         offset="0.0000000"
         style="stop-color:#60ff45;stop-opacity:1.0000000;" />
      <stop
         id="stop1740"
         offset="1.0000000"
         style="stop-color:#0bad00;stop-opacity:1.0000000;" />
    </linearGradient>
    <linearGradient
       id="linearGradient13881">
      <stop
         id="stop13883"
         offset="0"
         style="stop-color:#c86400;stop-opacity:1;" />
      <stop
         style="stop-color:#763900;stop-opacity:1;"
         offset="0.5"
         id="stop13885" />
      <stop
         id="stop13887"
         offset="1"
         style="stop-color:#c86400;stop-opacity:1;" />
    </linearGradient>
    <linearGradient
       inkscape:collect="always"
       id="linearGradient13873">
      <stop
         style="stop-color:white;stop-opacity:1;"
         offset="0"
         id="stop13875" />
      <stop
         style="stop-color:white;stop-opacity:0;"
         offset="1"
         id="stop13877" />
    </linearGradient>
    <marker
       inkscape:stockid="Arrow2Lstart"
       orient="auto"
       refY="0"
       refX="0"
       id="Arrow2Lstart"
       style="overflow:visible">
      <path
         id="path4920"
         style="font-size:12px;fill-rule:evenodd;stroke-width:0.625;stroke-linejoin:round"
         d="M 8.7185878,4.0337352 -2.2072895,0.01601326 8.7185884,-4.0017078 c -1.7454984,2.3720609 -1.7354408,5.6174519 -6e-7,8.035443 z"
         transform="matrix(1.1,0,0,1.1,1.1,0)"
         inkscape:connector-curvature="0" />
    </marker>
    <linearGradient
       id="linearGradient2969">
      <stop
         style="stop-color:#b84a00;stop-opacity:1;"
         offset="0"
         id="stop2971" />
      <stop
         id="stop12101"
         offset="0.5"
         style="stop-color:#a14d00;stop-opacity:1;" />
      <stop
         style="stop-color:white;stop-opacity:1;"
         offset="1"
         id="stop2973" />
    </linearGradient>
    <linearGradient
       gradientTransform="translate(-2.813803,0)"
       gradientUnits="userSpaceOnUse"
       y2="607.07794"
       x2="381.77026"
       y1="608.15808"
       x1="204.00069"
       id="linearGradient3198"
       xlink:href="#linearGradient3169"
       inkscape:collect="always" />
    <linearGradient
       gradientUnits="userSpaceOnUse"
       y2="607.07794"
       x2="378.95645"
       y1="608.15808"
       x1="201.18689"
       id="linearGradient3190"
       xlink:href="#linearGradient3169"
       inkscape:collect="always" />
    <linearGradient
       gradientTransform="translate(362.9805,113.959)"
       gradientUnits="userSpaceOnUse"
       y2="699.92285"
       x2="229.23792"
       y1="558.12018"
       x1="219.43309"
       id="linearGradient3175"
       xlink:href="#linearGradient3169"
       inkscape:collect="always" />
    <linearGradient
       id="linearGradient2232">
      <stop
         id="stop2234"
         offset="0"
         style="stop-color:#0030ff;stop-opacity:1;" />
      <stop
         id="stop2236"
         offset="1"
         style="stop-color:#02116f;stop-opacity:1;" />
    </linearGradient>
    <linearGradient
       id="linearGradient2244">
      <stop
         style="stop-color:#6fff58;stop-opacity:1;"
         offset="0"
         id="stop2246" />
      <stop
         style="stop-color:#327e29;stop-opacity:1;"
         offset="1"
         id="stop2248" />
    </linearGradient>
    <linearGradient
       id="linearGradient2250">
      <stop
         id="stop2252"
         offset="0"
         style="stop-color:#ff0000;stop-opacity:1;" />
      <stop
         id="stop2254"
         offset="1"
         style="stop-color:#850000;stop-opacity:1;" />
    </linearGradient>
    <linearGradient
       id="linearGradient3169">
      <stop
         id="stop3171"
         offset="0"
         style="stop-color:#4d93ff;stop-opacity:1;" />
      <stop
         id="stop3173"
         offset="1"
         style="stop-color:#3470ac;stop-opacity:1;" />
    </linearGradient>
    <linearGradient
       y2="357.37271"
       x2="557.69232"
       y1="251.87074"
       x1="512.31555"
       gradientTransform="translate(-62.60711,270.1251)"
       gradientUnits="userSpaceOnUse"
       id="linearGradient2030"
       xlink:href="#linearGradient2244"
       inkscape:collect="always" />
    <linearGradient
       y2="432.35269"
       x2="702.09119"
       y1="346.53171"
       x1="528.2915"
       gradientTransform="translate(-47.48293,293.6907)"
       gradientUnits="userSpaceOnUse"
       id="linearGradient2028"
       xlink:href="#linearGradient2250"
       inkscape:collect="always" />
    <linearGradient
       y2="343.98737"
       x2="551.7702"
       y1="435.43597"
       x1="434.73245"
       gradientTransform="translate(-81.60028,294.7458)"
       gradientUnits="userSpaceOnUse"
       id="linearGradient2026"
       xlink:href="#linearGradient2232"
       inkscape:collect="always" />
    <linearGradient
       gradientTransform="translate(-81.60028,294.7458)"
       gradientUnits="userSpaceOnUse"
       y2="343.98737"
       x2="551.7702"
       y1="435.43597"
       x1="434.73245"
       id="linearGradient2242"
       xlink:href="#linearGradient2232"
       inkscape:collect="always" />
    <linearGradient
       gradientTransform="translate(-47.48293,293.6907)"
       gradientUnits="userSpaceOnUse"
       y2="432.35269"
       x2="702.09119"
       y1="346.53171"
       x1="528.2915"
       id="linearGradient2240"
       xlink:href="#linearGradient2250"
       inkscape:collect="always" />
    <linearGradient
       gradientTransform="translate(-62.60711,270.1251)"
       gradientUnits="userSpaceOnUse"
       y2="357.37271"
       x2="557.69232"
       y1="251.87074"
       x1="512.31555"
       id="linearGradient2238"
       xlink:href="#linearGradient2244"
       inkscape:collect="always" />
    <linearGradient
       id="linearGradient2017">
      <stop
         id="stop2019"
         offset="0"
         style="stop-color:#0030ff;stop-opacity:1;" />
      <stop
         id="stop2021"
         offset="1"
         style="stop-color:#02116f;stop-opacity:1;" />
    </linearGradient>
    <linearGradient
       id="linearGradient2011">
      <stop
         style="stop-color:#6fff58;stop-opacity:1;"
         offset="0"
         id="stop2013" />
      <stop
         style="stop-color:#327e29;stop-opacity:1;"
         offset="1"
         id="stop2015" />
    </linearGradient>
    <linearGradient
       id="linearGradient2005">
      <stop
         id="stop2007"
         offset="0"
         style="stop-color:#ff0000;stop-opacity:1;" />
      <stop
         id="stop2009"
         offset="1"
         style="stop-color:#850000;stop-opacity:1;" />
    </linearGradient>
    <radialGradient
       cx="42.785599"
       cy="42.188999"
       gradientUnits="userSpaceOnUse"
       id="XMLID_2_"
       r="69.833298"
       gradientTransform="matrix(1.11456,0,0,0.79531,241.7787,436.9974)">
      <stop
         id="stop6"
         offset="0"
         style="stop-color:#D1F593" />
      <stop
         id="stop8"
         offset="1"
         style="stop-color:#81CE09" />
    </radialGradient>
    <linearGradient
       inkscape:collect="always"
       xlink:href="#linearGradient2969"
       id="linearGradient5876"
       x1="280.40387"
       y1="298.07648"
       x2="433.88184"
       y2="298.07648"
       gradientUnits="userSpaceOnUse" />
    <linearGradient
       inkscape:collect="always"
       xlink:href="#linearGradient13873"
       id="linearGradient13879"
       x1="308.47046"
       y1="349.70087"
       x2="342.57428"
       y2="349.70087"
       gradientUnits="userSpaceOnUse" />
    <linearGradient
       inkscape:collect="always"
       xlink:href="#linearGradient13873"
       id="linearGradient2459"
       gradientUnits="userSpaceOnUse"
       gradientTransform="matrix(1.535099,0,0,1.535099,-415.36536,-513.54938)"
       x1="321.65128"
       y1="448.16879"
       x2="378.76166"
       y2="448.16879" />
    <linearGradient
       inkscape:collect="always"
       xlink:href="#linearGradient3477"
       id="linearGradient3491"
       x1="45.144611"
       y1="207.41763"
       x2="309.37885"
       y2="207.41763"
       gradientUnits="userSpaceOnUse" />
    <linearGradient
       inkscape:collect="always"
       xlink:href="#linearGradient3477"
       id="linearGradient3523"
       gradientUnits="userSpaceOnUse"
       x1="45.144611"
       y1="207.41763"
       x2="309.37885"
       y2="207.41763" />
    <linearGradient
       inkscape:collect="always"
       xlink:href="#linearGradient2969"
       id="linearGradient3525"
       gradientUnits="userSpaceOnUse"
       x1="280.40387"
       y1="298.07648"
       x2="433.88184"
       y2="298.07648" />
    <linearGradient
       inkscape:collect="always"
       xlink:href="#linearGradient13873"
       id="linearGradient3527"
       gradientUnits="userSpaceOnUse"
       x1="308.47046"
       y1="349.70087"
       x2="342.57428"
       y2="349.70087" />
    <linearGradient
       inkscape:collect="always"
       xlink:href="#linearGradient13873"
       id="linearGradient3529"
       gradientUnits="userSpaceOnUse"
       gradientTransform="matrix(1.535099,0,0,1.535099,-415.36536,-513.54938)"
       x1="321.65128"
       y1="448.16879"
       x2="378.76166"
       y2="448.16879" />
    <linearGradient
       inkscape:collect="always"
       xlink:href="#linearGradient13873"
       id="linearGradient3532"
       gradientUnits="userSpaceOnUse"
       gradientTransform="matrix(1.535099,0,0,1.535099,-415.36536,-513.54938)"
       x1="321.65128"
       y1="448.16879"
       x2="378.76166"
       y2="448.16879" />
    <linearGradient
       inkscape:collect="always"
       xlink:href="#linearGradient3477"
       id="linearGradient3537"
       gradientUnits="userSpaceOnUse"
       x1="45.144611"
       y1="207.41763"
       x2="309.37885"
       y2="207.41763" />
    <linearGradient
       inkscape:collect="always"
       xlink:href="#XMLID_67_"
       id="linearGradient3540"
       gradientUnits="userSpaceOnUse"
       gradientTransform="matrix(0.8313318,0,0,0.8313318,80.012512,121.31785)"
       x1="121.9199"
       y1="-31.549801"
       x2="192.1555"
       y2="164.10899" />
    <linearGradient
       inkscape:collect="always"
       xlink:href="#XMLID_66_"
       id="linearGradient3543"
       gradientUnits="userSpaceOnUse"
       gradientTransform="matrix(0.8313318,0,0,0.8313318,80.012512,121.31785)"
       x1="178.3188"
       y1="19.8276"
       x2="178.3188"
       y2="269.08029" />
    <linearGradient
       inkscape:collect="always"
       xlink:href="#XMLID_66_"
       id="linearGradient3555"
       gradientUnits="userSpaceOnUse"
       gradientTransform="matrix(0.8313318,0,0,0.8313318,80.012512,121.31785)"
       x1="178.3188"
       y1="19.8276"
       x2="178.3188"
       y2="269.08029" />
    <linearGradient
       inkscape:collect="always"
       xlink:href="#XMLID_67_"
       id="linearGradient3557"
       gradientUnits="userSpaceOnUse"
       gradientTransform="matrix(0.8313318,0,0,0.8313318,80.012512,121.31785)"
       x1="121.9199"
       y1="-31.549801"
       x2="192.1555"
       y2="164.10899" />
    <linearGradient
       inkscape:collect="always"
       xlink:href="#XMLID_67_"
       id="linearGradient3560"
       gradientUnits="userSpaceOnUse"
       gradientTransform="matrix(0.6293799,0,0,0.6293799,329.00344,212.29118)"
       x1="121.9199"
       y1="-31.549801"
       x2="192.1555"
       y2="164.10899" />
    <linearGradient
       inkscape:collect="always"
       xlink:href="#XMLID_66_"
       id="linearGradient3563"
       gradientUnits="userSpaceOnUse"
       gradientTransform="matrix(0.6293799,0,0,0.6293799,329.00344,212.29118)"
       x1="178.3188"
       y1="19.8276"
       x2="178.3188"
       y2="269.08029" />
    <linearGradient
       inkscape:collect="always"
       xlink:href="#linearGradient6924"
       id="linearGradient3542"
       gradientUnits="userSpaceOnUse"
       gradientTransform="matrix(8.420009,0,0,9.0954697,-18.437957,-13.914023)"
       x1="16.07143"
       y1="19.5"
       x2="15.785715"
       y2="30" />
    <linearGradient
       inkscape:collect="always"
       xlink:href="#linearGradient4176"
       id="linearGradient3546"
       gradientUnits="userSpaceOnUse"
       gradientTransform="matrix(8.420009,0,0,9.0954697,-17.23511,-37.95203)"
       x1="18.372278"
       y1="15.014635"
       x2="25.645538"
       y2="31.52413" />
    <linearGradient
       inkscape:collect="always"
       xlink:href="#linearGradient4134"
       id="linearGradient3549"
       gradientUnits="userSpaceOnUse"
       gradientTransform="matrix(8.6412616,0,0,9.3344714,-22.559408,-44.33776)"
       x1="9.3030529"
       y1="26.71875"
       x2="38.826412"
       y2="26.71875" />
    <radialGradient
       inkscape:collect="always"
       xlink:href="#XMLID_2_-2"
       id="radialGradient3585"
       gradientUnits="userSpaceOnUse"
       gradientTransform="matrix(1.8624509,0,0,1.3279334,145.45806,162.91927)"
       cx="42.785599"
       cy="42.188999"
       r="69.833298" />
    <radialGradient
       cx="42.785599"
       cy="42.188999"
       gradientUnits="userSpaceOnUse"
       id="XMLID_2_-2"
       r="69.833298"
       gradientTransform="matrix(1.11456,0,0,0.79531,241.7787,436.9974)">
      <stop
         id="stop6-5"
         offset="0"
         style="stop-color:white;stop-opacity:1;" />
      <stop
         id="stop8-1"
         offset="1"
         style="stop-color:#81ceff;stop-opacity:1;" />
    </radialGradient>
    <radialGradient
       inkscape:collect="always"
       xlink:href="#XMLID_2_-2"
       id="radialGradient3936"
       gradientUnits="userSpaceOnUse"
       gradientTransform="matrix(1.8624509,0,0,1.3279334,145.45806,162.91927)"
       cx="42.785599"
       cy="42.188999"
       r="69.833298" />
  </defs>
  <sodipodi:namedview
     id="base"
     pagecolor="#ffffff"
     bordercolor="#666666"
     borderopacity="1.0"
     inkscape:pageopacity="0.0"
     inkscape:pageshadow="2"
     inkscape:zoom="2.284375"
     inkscape:cx="160"
     inkscape:cy="160"
     inkscape:document-units="px"
     inkscape:current-layer="layer1"
     inkscape:window-width="1280"
     inkscape:window-height="940"
     inkscape:window-x="-8"
     inkscape:window-y="-8"
     width="400px"
     height="400px"
     showgrid="false"
     showguides="true"
     inkscape:guide-bbox="true"
     fit-margin-top="0"
     fit-margin-left="0"
     fit-margin-right="0"
     fit-margin-bottom="0"
     inkscape:window-maximized="1">
    <sodipodi:guide
       orientation="0,1"
       position="-20.699983,340.51848"
       id="guide3530" />
    <sodipodi:guide
       orientation="1,0"
       position="0.30001736,-50.481525"
       id="guide3532" />
    <sodipodi:guide
       orientation="0,1"
       position="131.30002,0.51847536"
       id="guide3534" />
    <sodipodi:guide
       orientation="0,1"
       position="168.53625,323.50205"
       id="guide3892" />
  </sodipodi:namedview>
  <metadata
     id="metadata7">
    <rdf:RDF>
      <cc:Work
         rdf:about="">
        <dc:format>image/svg+xml</dc:format>
        <dc:type
           rdf:resource="http://purl.org/dc/dcmitype/StillImage" />
        <dc:title />
      </cc:Work>
    </rdf:RDF>
  </metadata>
  <g
     inkscape:label="Ebene 1"
     inkscape:groupmode="layer"
     id="layer1"
     transform="translate(-39.699983,-60.51848)">
    <path
       style="font-size:medium;font-style:normal;font-variant:normal;font-weight:normal;font-stretch:normal;text-indent:0;text-align:start;text-decoration:none;line-height:normal;letter-spacing:normal;word-spacing:normal;text-transform:none;direction:ltr;block-progression:tb;writing-mode:lr-tb;text-anchor:start;baseline-shift:baseline;color:#000000;fill:#94d200;fill-opacity:1;stroke:none;stroke-width:29.99999809;marker:none;visibility:visible;display:block;overflow:visible;enable-background:accumulate;font-family:Sans;-inkscape-font-specification:Sans"
       d="m 206.34375,60.90625 c -33.53812,0 -64.02219,5.833697 -87.4375,16.15625 -11.70766,5.161276 -21.716456,11.432354 -29.4375,19.46875 -7.721044,8.0364 -13.249996,18.51601 -13.25,30.125 l 0,187.78125 c 0,11.60899 5.528956,22.08861 13.25,30.125 7.721044,8.03639 17.72985,14.30748 29.4375,19.46875 23.41531,10.32254 53.89938,16.15625 87.4375,16.15625 33.74498,0 64.74959,-6.57281 88.5,-17.15625 11.8752,-5.29172 21.9743,-11.54407 29.8125,-19.28125 7.8382,-7.73718 13.84375,-17.68021 13.84375,-29.3125 0,-4.71444 0,-15.3125 0,-15.3125 l -34.90625,23.2812 c 0,0 -11.48705,8.9936 -20.96875,13.21875 -18.96341,8.4503 -46.53418,14.5625 -76.28125,14.5625 -29.95391,0 -57.04182,-5.5392 -75.3125,-13.59375 -9.13534,-4.02728 -15.99455,-8.70851 -19.9375,-12.8125 -3.94295,-4.10399 -4.875,-6.95549 -4.875,-9.34375 l 0,-187.78125 c 0,-2.38827 0.93205,-5.23976 4.875,-9.34375 3.94295,-4.10399 10.80216,-8.78522 19.9375,-12.8125 18.27067,-8.054559 45.3586,-13.59375 75.3125,-13.59375 29.95391,0 57.62112,5.547284 76.46875,13.65625 9.42381,4.05448 16.54099,8.75992 20.65625,12.90625 4.11526,4.14633 5.03125,6.98281 5.03125,9.1875 l 0.43776,63.02304 30.43775,20.57456 L 338.5,126.6562 C 338.3765,114.86428 332.71542,104.33777 324.78125,96.3437 316.84708,88.349685 306.58935,82.134072 294.65625,77 270.79006,66.731856 239.88188,60.90625 206.34375,60.90625 z"
       id="path3068"
       inkscape:connector-curvature="0"
       sodipodi:nodetypes="sssssssssssccssssssssssssccssss" />
    <path
       transform="matrix(8.165153,0,0,7.3318285,10.891034,13.90491)"
       d="m 36.857142,14.071428 c 0,3.037566 -5.756338,5.5 -12.857142,5.5 -7.100804,0 -12.857142,-2.462434 -12.857142,-5.5 0,-3.037566 5.756338,-5.4999997 12.857142,-5.4999997 7.100804,0 12.857142,2.4624337 12.857142,5.4999997 z"
       sodipodi:ry="5.5"
       sodipodi:rx="12.857142"
       sodipodi:cy="14.071428"
       sodipodi:cx="24"
       id="path3364"
       style="fill:none;stroke:#94d200;stroke-width:3.8773315;stroke-linecap:butt;stroke-linejoin:miter;stroke-miterlimit:10;stroke-opacity:1;stroke-dasharray:none;stroke-dashoffset:0;marker:none;visibility:visible;display:block;overflow:visible"
       sodipodi:type="arc" />
    <path
       style="fill:#94d200;stroke:none"
       d="M 213.28125 108.46875 C 211.08567 108.47675 208.71771 108.83483 206.15625 109.59375 C 191.78768 113.85167 197.59375 134.63754 197.59375 143.4375 C 197.59375 145.62015 161.30739 144.46875 156.84375 144.46875 C 90.59014 141.69422 103.84136 161.58008 103.8125 191.84375 C 103.7837 222.10743 95.13949 224.77854 149.9375 223.625 C 165.7223 223.29273 181.49299 223.625 197.28125 223.625 C 198.2433 223.625 197.00195 250.09093 197.875 253.625 C 199.97405 262.12849 216.41307 264.96502 224.6875 259.03125 C 237.32668 250.09809 251.01778 240.23543 262.15625 232.28125 C 274.1915 223.68826 286.21476 215.09411 298.25 206.5 C 304.5144 202.02844 314.55326 196.89699 318.34375 190.9375 C 324.39417 181.41821 313.66038 175.13796 305.40625 169.21875 C 293.75211 160.86182 282.09323 152.48193 270.4375 144.125 C 258.96141 135.89895 247.50736 127.66353 236.03125 119.4375 C 229.26005 114.57904 222.79545 108.4324 213.28125 108.46875 z M 135.53125 156.6875 C 141.45965 156.68756 147.28171 158.22761 152.96875 161.3125 L 147.25 172.8125 C 144.13821 170.31124 141.00912 169.06255 137.84375 169.0625 C 136.31467 169.06255 134.92587 169.44407 133.71875 170.25 C 132.35063 171.1672 131.65624 172.40896 131.65625 173.9375 C 131.65624 175.43832 132.57767 176.72865 134.375 177.8125 C 135.17974 178.3128 137.60115 179.18342 141.625 180.40625 C 146.66816 181.93486 150.26017 184.09927 152.40625 186.90625 C 154.25718 189.29641 155.15621 192.37307 155.15625 196.125 C 155.15621 205.74114 151.09241 211.98806 142.9375 214.90625 C 140.09396 215.93456 137.02269 216.46875 133.75 216.46875 C 126.88267 216.46875 120.53102 214.3078 114.65625 210 L 120.78125 198.0625 C 125.07332 202.06461 129.27068 204.06251 133.375 204.0625 C 135.22594 204.06251 136.77485 203.63937 138.0625 202.75 C 139.5647 201.74949 140.31247 200.3343 140.3125 198.5 C 140.31247 196.83248 139.5069 195.42421 137.84375 194.3125 C 136.60975 193.47875 134.51771 192.64282 131.59375 191.78125 C 128.05276 190.69737 125.8183 189.94815 124.90625 189.53125 C 123.45766 188.89205 122.2381 188.14283 121.21875 187.28125 C 118.29476 184.77998 116.8125 180.99572 116.8125 175.9375 C 116.8125 170.65701 118.34372 166.28657 121.375 162.8125 C 124.91596 158.72708 129.62963 156.68756 135.53125 156.6875 z M 225.90625 156.6875 C 231.83466 156.68756 237.62546 158.22761 243.3125 161.3125 L 237.59375 172.8125 C 234.48195 170.31124 231.35289 169.06255 228.1875 169.0625 C 226.65842 169.06255 225.30087 169.44407 224.09375 170.25 C 222.72562 171.1672 222.03123 172.40896 222.03125 173.9375 C 222.03123 175.43832 222.92142 176.72865 224.71875 177.8125 C 225.52349 178.3128 227.9449 179.18342 231.96875 180.40625 C 237.01191 181.93486 240.60393 184.09927 242.75 186.90625 C 244.60092 189.29641 245.53121 192.37307 245.53125 196.125 C 245.53121 205.74114 241.46742 211.98806 233.3125 214.90625 C 230.46897 215.93456 227.39769 216.46875 224.125 216.46875 C 217.25766 216.46875 210.87478 214.3078 205 210 L 211.125 198.0625 C 215.41706 202.06461 219.61443 204.06251 223.71875 204.0625 C 225.56969 204.06251 227.14986 203.63937 228.4375 202.75 C 229.9397 201.74949 230.68747 200.3343 230.6875 198.5 C 230.68747 196.83248 229.85066 195.42421 228.1875 194.3125 C 226.9535 193.47875 224.89271 192.64282 221.96875 191.78125 C 218.42777 190.69737 216.19331 189.94815 215.28125 189.53125 C 213.83266 188.89205 212.58186 188.14283 211.5625 187.28125 C 208.63852 184.77998 207.1875 180.99572 207.1875 175.9375 C 207.1875 170.65701 208.71871 166.28657 211.75 162.8125 C 215.29095 158.72708 220.00462 156.68756 225.90625 156.6875 z M 269.96875 156.6875 C 275.89716 156.68756 281.68795 158.22761 287.375 161.3125 L 281.65625 172.8125 C 278.54447 170.31124 275.41537 169.06255 272.25 169.0625 C 270.72091 169.06255 269.36338 169.44407 268.15625 170.25 C 266.78813 171.1672 266.09373 172.40896 266.09375 173.9375 C 266.09373 175.43832 266.98392 176.72865 268.78125 177.8125 C 269.586 178.3128 272.0074 179.18342 276.03125 180.40625 C 281.07441 181.93486 284.66642 184.09927 286.8125 186.90625 C 288.66341 189.29641 289.5937 192.37307 289.59375 196.125 C 289.5937 205.74114 285.49867 211.98806 277.34375 214.90625 C 274.50022 215.93456 271.46019 216.46875 268.1875 216.46875 C 261.32015 216.46875 254.93727 214.3078 249.0625 210 L 255.1875 198.0625 C 259.47956 202.06461 263.67693 204.06251 267.78125 204.0625 C 269.63218 204.06251 271.21235 203.63937 272.5 202.75 C 274.0022 201.74949 274.74997 200.3343 274.75 198.5 C 274.74997 196.83248 273.91314 195.42421 272.25 194.3125 C 271.01599 193.47875 268.92395 192.64282 266 191.78125 C 262.45901 190.69737 260.2558 189.94815 259.34375 189.53125 C 257.89516 188.89205 256.64437 188.14283 255.625 187.28125 C 252.70102 184.77998 251.24999 180.99572 251.25 175.9375 C 251.24999 170.65701 252.74996 166.28657 255.78125 162.8125 C 259.32221 158.72708 264.06712 156.68756 269.96875 156.6875 z M 161.15625 158.0625 L 183.90625 158.0625 C 190.37115 158.06256 195.27177 160.01885 198.625 163.9375 C 201.5221 167.30041 202.96871 171.58759 202.96875 176.8125 C 202.96871 181.9541 201.80253 186.19966 199.46875 189.5625 C 196.43743 193.92591 191.40325 196.12502 184.375 196.125 L 175.4375 196.125 L 175.4375 214.96875 L 161.15625 214.96875 L 161.15625 158.0625 z M 175.4375 170 L 175.4375 184.15625 L 180.1875 184.15625 C 183.27241 184.15628 185.40899 183.45214 186.5625 182.0625 C 187.60867 180.81188 188.12497 179.10879 188.125 176.96875 C 188.12497 174.85656 187.53745 173.17084 186.34375 171.90625 C 185.14999 170.64174 183.08905 170.00006 180.21875 170 L 175.4375 170 z "
       transform="translate(39.699983,60.51848)"
       id="path138" />
    <path
       d="m 249.08151,209.03992 c 0,3.94278 0,7.88454 0,11.82731 0,1.78063 1.85142,12.18525 0,13.33589 -1.45599,0.90615 -9.65246,0 -11.49103,0 -8.7917,0 -17.58339,0 -26.37652,0 -11.35827,0 -31.94647,-2.784 -38.85251,5.66203 -5.60848,6.86381 -2.17829,19.86012 -2.17829,27.31917 0,8.57285 -1.10486,17.55786 0,26.10002 0,13.65909 22.22977,11.43251 34.86846,11.43251 14.39733,0 28.79466,0 43.19198,0 1.7629,0 0.83791,21.87804 0.83791,24.66918 0,9.68356 14.08471,14.00578 23.83281,7.04175 8.53477,-6.0916 17.06667,-12.18527 25.6,-18.28096 18.16154,-12.96973 38.80398,-25.35443 55.24969,-39.45943 11.6038,-8.34273 -0.15558,-16.28144 -8.34633,-22.15725 -11.15985,-8.00214 -22.32113,-16.00633 -33.48242,-24.0095 -10.96428,-7.86508 -21.93144,-15.73017 -32.89857,-23.59321 -7.10873,-5.0985 -16.11883,-11.61456 -26.57353,-5.11385 -2.13548,1.32756 -3.38165,3.19105 -3.38165,5.22634"
       id="path10"
       style="fill:none"
       inkscape:connector-curvature="0" />
    <text
       xml:space="preserve"
       style="font-size:40px;font-style:normal;font-variant:normal;font-weight:bold;font-stretch:normal;line-height:125%;letter-spacing:0px;word-spacing:0px;fill:#000000;fill-opacity:1;stroke:none;font-family:Arial;-inkscape-font-specification:Arial Bold"
       x="140.24965"
       y="106.96255"
       id="text3119"
       sodipodi:linespacing="125%"
       transform="translate(39.699983,60.51848)"><tspan
         sodipodi:role="line"
         id="tspan3121"
         x="140.24965"
         y="106.96255" /></text>
  </g>
</svg>
