<?xml version="1.0" encoding="UTF-8" standalone="no"?>
<!-- Created with Inkscape (http://www.inkscape.org/) -->

<svg
   xmlns:dc="http://purl.org/dc/elements/1.1/"
   xmlns:cc="http://creativecommons.org/ns#"
   xmlns:rdf="http://www.w3.org/1999/02/22-rdf-syntax-ns#"
   xmlns:svg="http://www.w3.org/2000/svg"
   xmlns="http://www.w3.org/2000/svg"
   xmlns:xlink="http://www.w3.org/1999/xlink"
   xmlns:sodipodi="http://sodipodi.sourceforge.net/DTD/sodipodi-0.dtd"
   xmlns:inkscape="http://www.inkscape.org/namespaces/inkscape"
   width="320"
   height="320"
   id="svg2"
   sodipodi:version="0.32"
   inkscape:version="0.48.3.1 r9886"
   sodipodi:docname="exportcsv.svg"
   inkscape:export-filename="D:\web\xampp\htdocs\limesurvey_yii\styles\gringegreen\images\exportcsv.png"
   inkscape:export-xdpi="9.4903154"
   inkscape:export-ydpi="9.4903154"
   version="1.0"
   inkscape:output_extension="org.inkscape.output.svg.inkscape">
  <defs
     id="defs4">
    <linearGradient
       inkscape:collect="always"
       xlink:href="#linearGradient6924"
       id="linearGradient4837"
       gradientUnits="userSpaceOnUse"
       gradientTransform="matrix(8.4310154,0,0,8.6541422,-27.793881,1.7586788)"
       x1="16.07143"
       y1="19.5"
       x2="15.785715"
       y2="30" />
    <linearGradient
       id="linearGradient6924"
       inkscape:collect="always">
      <stop
         id="stop6926"
         offset="0"
         style="stop-color:#ffffff;stop-opacity:1;" />
      <stop
         id="stop6928"
         offset="1"
         style="stop-color:#ffffff;stop-opacity:0;" />
    </linearGradient>
    <linearGradient
       inkscape:collect="always"
       xlink:href="#linearGradient6924"
       id="linearGradient3221"
       gradientUnits="userSpaceOnUse"
       gradientTransform="matrix(8.420009,0,0,9.0954697,-5.1866184,-12.941761)"
       x1="16.07143"
       y1="19.5"
       x2="15.785715"
       y2="30" />
    <linearGradient
       id="linearGradient6932">
      <stop
         style="stop-color:#ffffff;stop-opacity:1.0000000;"
         offset="0.0000000"
         id="stop6934" />
      <stop
         style="stop-color:#e7e6ae;stop-opacity:1.0000000;"
         offset="1.0000000"
         id="stop6936" />
    </linearGradient>
    <linearGradient
       inkscape:collect="always"
       xlink:href="#linearGradient6932"
       id="linearGradient3216"
       gradientUnits="userSpaceOnUse"
       x1="24"
       y1="8.0476589"
       x2="36.075581"
       y2="20.095198" />
    <linearGradient
       id="linearGradient4176"
       inkscape:collect="always">
      <stop
         id="stop4178"
         offset="0"
         style="stop-color:#ffffff;stop-opacity:1;" />
      <stop
         id="stop4180"
         offset="1"
         style="stop-color:#ffffff;stop-opacity:0;" />
    </linearGradient>
    <linearGradient
       inkscape:collect="always"
       xlink:href="#linearGradient4176"
       id="linearGradient3225"
       gradientUnits="userSpaceOnUse"
       gradientTransform="matrix(8.420009,0,0,9.0954697,-3.9837714,-36.979769)"
       x1="18.372278"
       y1="15.014635"
       x2="25.645538"
       y2="31.52413" />
    <linearGradient
       id="linearGradient4134">
      <stop
         id="stop4136"
         offset="0"
         style="stop-color:#88710c;stop-opacity:1;" />
      <stop
         style="stop-color:#e8de8b;stop-opacity:1;"
         offset="0.25"
         id="stop4148" />
      <stop
         style="stop-color:#e0ce69;stop-opacity:1;"
         offset="0.5"
         id="stop4142" />
      <stop
         id="stop4138"
         offset="1.0000000"
         style="stop-color:#333432;stop-opacity:1.0000000;" />
    </linearGradient>
    <linearGradient
       inkscape:collect="always"
       xlink:href="#linearGradient4134"
       id="linearGradient3228"
       gradientUnits="userSpaceOnUse"
       gradientTransform="matrix(8.6412616,0,0,9.3344714,-9.3080694,-43.365498)"
       x1="9.3030529"
       y1="26.71875"
       x2="38.826412"
       y2="26.71875" />
    <linearGradient
       inkscape:collect="always"
       xlink:href="#XMLID_67_"
       id="linearGradient2461"
       gradientUnits="userSpaceOnUse"
       x1="121.9199"
       y1="-31.549801"
       x2="192.1555"
       y2="164.10899"
       gradientTransform="translate(-9.6464549,-16.536787)" />
    <linearGradient
       inkscape:collect="always"
       xlink:href="#XMLID_66_"
       id="linearGradient2464"
       gradientUnits="userSpaceOnUse"
       x1="178.3188"
       y1="19.8276"
       x2="178.3188"
       y2="269.08029"
       gradientTransform="translate(-9.6464549,-16.536787)" />
    <linearGradient
       id="linearGradient3477">
      <stop
         id="stop3479"
         offset="0"
         style="stop-color:#bf5f00;stop-opacity:1;" />
      <stop
         style="stop-color:#763900;stop-opacity:1;"
         offset="0.5"
         id="stop3481" />
      <stop
         id="stop3483"
         offset="1"
         style="stop-color:#c86400;stop-opacity:1;" />
    </linearGradient>
    <linearGradient
       id="linearGradient3449">
      <stop
         style="stop-color:#bf5f00;stop-opacity:1;"
         offset="0"
         id="stop3451" />
      <stop
         id="stop3453"
         offset="0.5"
         style="stop-color:#763900;stop-opacity:1;" />
      <stop
         style="stop-color:#c86400;stop-opacity:1;"
         offset="1"
         id="stop3455" />
    </linearGradient>
    <linearGradient
       id="linearGradient3431">
      <stop
         id="stop3433"
         offset="0"
         style="stop-color:#c86400;stop-opacity:1;" />
      <stop
         style="stop-color:#763900;stop-opacity:1;"
         offset="0.5"
         id="stop3435" />
      <stop
         id="stop3437"
         offset="1"
         style="stop-color:#c86400;stop-opacity:1;" />
    </linearGradient>
    <linearGradient
       id="linearGradient3383">
      <stop
         style="stop-color:#c86400;stop-opacity:1;"
         offset="0"
         id="stop3385" />
      <stop
         id="stop3387"
         offset="0.5"
         style="stop-color:#763900;stop-opacity:1;" />
      <stop
         style="stop-color:#c86400;stop-opacity:1;"
         offset="1"
         id="stop3389" />
    </linearGradient>
    <linearGradient
       id="XMLID_67_"
       gradientUnits="userSpaceOnUse"
       x1="121.9199"
       y1="-31.549801"
       x2="192.1555"
       y2="164.10899">
      <stop
         offset="0"
         style="stop-color:#6ABD45"
         id="stop27" />
      <stop
         offset="0.6348"
         style="stop-color:#06AD4D"
         id="stop29" />
      <stop
         offset="0.7442"
         style="stop-color:#0C864E"
         id="stop31" />
      <stop
         offset="0.8524"
         style="stop-color:#096A4C"
         id="stop33" />
      <stop
         offset="0.9414"
         style="stop-color:#045A49"
         id="stop35" />
      <stop
         offset="1"
         style="stop-color:#055448"
         id="stop37" />
    </linearGradient>
    <linearGradient
       id="XMLID_66_"
       gradientUnits="userSpaceOnUse"
       x1="178.3188"
       y1="19.8276"
       x2="178.3188"
       y2="269.08029">
      <stop
         offset="0"
         style="stop-color:#6ABD45"
         id="stop18" />
      <stop
         offset="0.6685"
         style="stop-color:#06AD4D"
         id="stop20" />
      <stop
         offset="1"
         style="stop-color:#055448"
         id="stop22" />
    </linearGradient>
    <inkscape:perspective
       sodipodi:type="inkscape:persp3d"
       inkscape:vp_x="0 : 200 : 1"
       inkscape:vp_y="0 : 1000 : 0"
       inkscape:vp_z="400 : 200 : 1"
       inkscape:persp3d-origin="200 : 133.33333 : 1"
       id="perspective75" />
    <linearGradient
       id="linearGradient4960">
      <stop
         id="stop4962"
         offset="0.0000000"
         style="stop-color:#ffffff;stop-opacity:0.73092371;" />
      <stop
         id="stop4964"
         offset="1.0000000"
         style="stop-color:#ffffff;stop-opacity:0.0000000;" />
    </linearGradient>
    <linearGradient
       id="linearGradient1738">
      <stop
         id="stop1739"
         offset="0.0000000"
         style="stop-color:#60ff45;stop-opacity:1.0000000;" />
      <stop
         id="stop1740"
         offset="1.0000000"
         style="stop-color:#0bad00;stop-opacity:1.0000000;" />
    </linearGradient>
    <linearGradient
       id="linearGradient13881">
      <stop
         id="stop13883"
         offset="0"
         style="stop-color:#c86400;stop-opacity:1;" />
      <stop
         style="stop-color:#763900;stop-opacity:1;"
         offset="0.5"
         id="stop13885" />
      <stop
         id="stop13887"
         offset="1"
         style="stop-color:#c86400;stop-opacity:1;" />
    </linearGradient>
    <linearGradient
       inkscape:collect="always"
       id="linearGradient13873">
      <stop
         style="stop-color:white;stop-opacity:1;"
         offset="0"
         id="stop13875" />
      <stop
         style="stop-color:white;stop-opacity:0;"
         offset="1"
         id="stop13877" />
    </linearGradient>
    <marker
       inkscape:stockid="Arrow2Lstart"
       orient="auto"
       refY="0"
       refX="0"
       id="Arrow2Lstart"
       style="overflow:visible">
      <path
         id="path4920"
         style="font-size:12px;fill-rule:evenodd;stroke-width:0.625;stroke-linejoin:round"
         d="M 8.7185878,4.0337352 -2.2072895,0.01601326 8.7185884,-4.0017078 c -1.7454984,2.3720609 -1.7354408,5.6174519 -6e-7,8.035443 z"
         transform="matrix(1.1,0,0,1.1,1.1,0)"
         inkscape:connector-curvature="0" />
    </marker>
    <linearGradient
       id="linearGradient2969">
      <stop
         style="stop-color:#b84a00;stop-opacity:1;"
         offset="0"
         id="stop2971" />
      <stop
         id="stop12101"
         offset="0.5"
         style="stop-color:#a14d00;stop-opacity:1;" />
      <stop
         style="stop-color:white;stop-opacity:1;"
         offset="1"
         id="stop2973" />
    </linearGradient>
    <linearGradient
       gradientTransform="translate(-2.813803,0)"
       gradientUnits="userSpaceOnUse"
       y2="607.07794"
       x2="381.77026"
       y1="608.15808"
       x1="204.00069"
       id="linearGradient3198"
       xlink:href="#linearGradient3169"
       inkscape:collect="always" />
    <linearGradient
       gradientUnits="userSpaceOnUse"
       y2="607.07794"
       x2="378.95645"
       y1="608.15808"
       x1="201.18689"
       id="linearGradient3190"
       xlink:href="#linearGradient3169"
       inkscape:collect="always" />
    <linearGradient
       gradientTransform="translate(362.9805,113.959)"
       gradientUnits="userSpaceOnUse"
       y2="699.92285"
       x2="229.23792"
       y1="558.12018"
       x1="219.43309"
       id="linearGradient3175"
       xlink:href="#linearGradient3169"
       inkscape:collect="always" />
    <linearGradient
       id="linearGradient2232">
      <stop
         id="stop2234"
         offset="0"
         style="stop-color:#0030ff;stop-opacity:1;" />
      <stop
         id="stop2236"
         offset="1"
         style="stop-color:#02116f;stop-opacity:1;" />
    </linearGradient>
    <linearGradient
       id="linearGradient2244">
      <stop
         style="stop-color:#6fff58;stop-opacity:1;"
         offset="0"
         id="stop2246" />
      <stop
         style="stop-color:#327e29;stop-opacity:1;"
         offset="1"
         id="stop2248" />
    </linearGradient>
    <linearGradient
       id="linearGradient2250">
      <stop
         id="stop2252"
         offset="0"
         style="stop-color:#ff0000;stop-opacity:1;" />
      <stop
         id="stop2254"
         offset="1"
         style="stop-color:#850000;stop-opacity:1;" />
    </linearGradient>
    <linearGradient
       id="linearGradient3169">
      <stop
         id="stop3171"
         offset="0"
         style="stop-color:#4d93ff;stop-opacity:1;" />
      <stop
         id="stop3173"
         offset="1"
         style="stop-color:#3470ac;stop-opacity:1;" />
    </linearGradient>
    <linearGradient
       y2="357.37271"
       x2="557.69232"
       y1="251.87074"
       x1="512.31555"
       gradientTransform="translate(-62.60711,270.1251)"
       gradientUnits="userSpaceOnUse"
       id="linearGradient2030"
       xlink:href="#linearGradient2244"
       inkscape:collect="always" />
    <linearGradient
       y2="432.35269"
       x2="702.09119"
       y1="346.53171"
       x1="528.2915"
       gradientTransform="translate(-47.48293,293.6907)"
       gradientUnits="userSpaceOnUse"
       id="linearGradient2028"
       xlink:href="#linearGradient2250"
       inkscape:collect="always" />
    <linearGradient
       y2="343.98737"
       x2="551.7702"
       y1="435.43597"
       x1="434.73245"
       gradientTransform="translate(-81.60028,294.7458)"
       gradientUnits="userSpaceOnUse"
       id="linearGradient2026"
       xlink:href="#linearGradient2232"
       inkscape:collect="always" />
    <linearGradient
       gradientTransform="translate(-81.60028,294.7458)"
       gradientUnits="userSpaceOnUse"
       y2="343.98737"
       x2="551.7702"
       y1="435.43597"
       x1="434.73245"
       id="linearGradient2242"
       xlink:href="#linearGradient2232"
       inkscape:collect="always" />
    <linearGradient
       gradientTransform="translate(-47.48293,293.6907)"
       gradientUnits="userSpaceOnUse"
       y2="432.35269"
       x2="702.09119"
       y1="346.53171"
       x1="528.2915"
       id="linearGradient2240"
       xlink:href="#linearGradient2250"
       inkscape:collect="always" />
    <linearGradient
       gradientTransform="translate(-62.60711,270.1251)"
       gradientUnits="userSpaceOnUse"
       y2="357.37271"
       x2="557.69232"
       y1="251.87074"
       x1="512.31555"
       id="linearGradient2238"
       xlink:href="#linearGradient2244"
       inkscape:collect="always" />
    <linearGradient
       id="linearGradient2017">
      <stop
         id="stop2019"
         offset="0"
         style="stop-color:#0030ff;stop-opacity:1;" />
      <stop
         id="stop2021"
         offset="1"
         style="stop-color:#02116f;stop-opacity:1;" />
    </linearGradient>
    <linearGradient
       id="linearGradient2011">
      <stop
         style="stop-color:#6fff58;stop-opacity:1;"
         offset="0"
         id="stop2013" />
      <stop
         style="stop-color:#327e29;stop-opacity:1;"
         offset="1"
         id="stop2015" />
    </linearGradient>
    <linearGradient
       id="linearGradient2005">
      <stop
         id="stop2007"
         offset="0"
         style="stop-color:#ff0000;stop-opacity:1;" />
      <stop
         id="stop2009"
         offset="1"
         style="stop-color:#850000;stop-opacity:1;" />
    </linearGradient>
    <radialGradient
       cx="42.785599"
       cy="42.188999"
       gradientUnits="userSpaceOnUse"
       id="XMLID_2_"
       r="69.833298"
       gradientTransform="matrix(1.11456,0,0,0.79531,241.7787,436.9974)">
      <stop
         id="stop6"
         offset="0"
         style="stop-color:#D1F593" />
      <stop
         id="stop8"
         offset="1"
         style="stop-color:#81CE09" />
    </radialGradient>
    <linearGradient
       inkscape:collect="always"
       xlink:href="#linearGradient2969"
       id="linearGradient5876"
       x1="280.40387"
       y1="298.07648"
       x2="433.88184"
       y2="298.07648"
       gradientUnits="userSpaceOnUse" />
    <linearGradient
       inkscape:collect="always"
       xlink:href="#linearGradient13873"
       id="linearGradient13879"
       x1="308.47046"
       y1="349.70087"
       x2="342.57428"
       y2="349.70087"
       gradientUnits="userSpaceOnUse" />
    <linearGradient
       inkscape:collect="always"
       xlink:href="#linearGradient13873"
       id="linearGradient2459"
       gradientUnits="userSpaceOnUse"
       gradientTransform="matrix(1.535099,0,0,1.535099,-415.36536,-513.54938)"
       x1="321.65128"
       y1="448.16879"
       x2="378.76166"
       y2="448.16879" />
    <linearGradient
       inkscape:collect="always"
       xlink:href="#linearGradient3477"
       id="linearGradient3491"
       x1="45.144611"
       y1="207.41763"
       x2="309.37885"
       y2="207.41763"
       gradientUnits="userSpaceOnUse" />
    <linearGradient
       inkscape:collect="always"
       xlink:href="#linearGradient3477"
       id="linearGradient3523"
       gradientUnits="userSpaceOnUse"
       x1="45.144611"
       y1="207.41763"
       x2="309.37885"
       y2="207.41763" />
    <linearGradient
       inkscape:collect="always"
       xlink:href="#linearGradient2969"
       id="linearGradient3525"
       gradientUnits="userSpaceOnUse"
       x1="280.40387"
       y1="298.07648"
       x2="433.88184"
       y2="298.07648" />
    <linearGradient
       inkscape:collect="always"
       xlink:href="#linearGradient13873"
       id="linearGradient3527"
       gradientUnits="userSpaceOnUse"
       x1="308.47046"
       y1="349.70087"
       x2="342.57428"
       y2="349.70087" />
    <linearGradient
       inkscape:collect="always"
       xlink:href="#linearGradient13873"
       id="linearGradient3529"
       gradientUnits="userSpaceOnUse"
       gradientTransform="matrix(1.535099,0,0,1.535099,-415.36536,-513.54938)"
       x1="321.65128"
       y1="448.16879"
       x2="378.76166"
       y2="448.16879" />
    <linearGradient
       inkscape:collect="always"
       xlink:href="#linearGradient13873"
       id="linearGradient3532"
       gradientUnits="userSpaceOnUse"
       gradientTransform="matrix(1.535099,0,0,1.535099,-415.36536,-513.54938)"
       x1="321.65128"
       y1="448.16879"
       x2="378.76166"
       y2="448.16879" />
    <linearGradient
       inkscape:collect="always"
       xlink:href="#linearGradient3477"
       id="linearGradient3537"
       gradientUnits="userSpaceOnUse"
       x1="45.144611"
       y1="207.41763"
       x2="309.37885"
       y2="207.41763" />
    <linearGradient
       inkscape:collect="always"
       xlink:href="#XMLID_67_"
       id="linearGradient3540"
       gradientUnits="userSpaceOnUse"
       gradientTransform="matrix(0.8313318,0,0,0.8313318,80.012512,121.31785)"
       x1="121.9199"
       y1="-31.549801"
       x2="192.1555"
       y2="164.10899" />
    <linearGradient
       inkscape:collect="always"
       xlink:href="#XMLID_66_"
       id="linearGradient3543"
       gradientUnits="userSpaceOnUse"
       gradientTransform="matrix(0.8313318,0,0,0.8313318,80.012512,121.31785)"
       x1="178.3188"
       y1="19.8276"
       x2="178.3188"
       y2="269.08029" />
    <linearGradient
       inkscape:collect="always"
       xlink:href="#XMLID_66_"
       id="linearGradient3555"
       gradientUnits="userSpaceOnUse"
       gradientTransform="matrix(0.8313318,0,0,0.8313318,80.012512,121.31785)"
       x1="178.3188"
       y1="19.8276"
       x2="178.3188"
       y2="269.08029" />
    <linearGradient
       inkscape:collect="always"
       xlink:href="#XMLID_67_"
       id="linearGradient3557"
       gradientUnits="userSpaceOnUse"
       gradientTransform="matrix(0.8313318,0,0,0.8313318,80.012512,121.31785)"
       x1="121.9199"
       y1="-31.549801"
       x2="192.1555"
       y2="164.10899" />
    <linearGradient
       inkscape:collect="always"
       xlink:href="#XMLID_67_"
       id="linearGradient3560"
       gradientUnits="userSpaceOnUse"
       gradientTransform="matrix(0.6293799,0,0,0.6293799,329.00344,212.29118)"
       x1="121.9199"
       y1="-31.549801"
       x2="192.1555"
       y2="164.10899" />
    <linearGradient
       inkscape:collect="always"
       xlink:href="#XMLID_66_"
       id="linearGradient3563"
       gradientUnits="userSpaceOnUse"
       gradientTransform="matrix(0.6293799,0,0,0.6293799,329.00344,212.29118)"
       x1="178.3188"
       y1="19.8276"
       x2="178.3188"
       y2="269.08029" />
    <linearGradient
       inkscape:collect="always"
       xlink:href="#linearGradient6924"
       id="linearGradient3542"
       gradientUnits="userSpaceOnUse"
       gradientTransform="matrix(8.420009,0,0,9.0954697,-18.437957,-13.914023)"
       x1="16.07143"
       y1="19.5"
       x2="15.785715"
       y2="30" />
    <linearGradient
       inkscape:collect="always"
       xlink:href="#linearGradient4176"
       id="linearGradient3546"
       gradientUnits="userSpaceOnUse"
       gradientTransform="matrix(8.420009,0,0,9.0954697,-17.23511,-37.95203)"
       x1="18.372278"
       y1="15.014635"
       x2="25.645538"
       y2="31.52413" />
    <linearGradient
       inkscape:collect="always"
       xlink:href="#linearGradient4134"
       id="linearGradient3549"
       gradientUnits="userSpaceOnUse"
       gradientTransform="matrix(8.6412616,0,0,9.3344714,-22.559408,-44.33776)"
       x1="9.3030529"
       y1="26.71875"
       x2="38.826412"
       y2="26.71875" />
    <radialGradient
       inkscape:collect="always"
       xlink:href="#XMLID_2_-2"
       id="radialGradient3585"
       gradientUnits="userSpaceOnUse"
       gradientTransform="matrix(1.8624509,0,0,1.3279334,145.45806,162.91927)"
       cx="42.785599"
       cy="42.188999"
       r="69.833298" />
    <radialGradient
       cx="42.785599"
       cy="42.188999"
       gradientUnits="userSpaceOnUse"
       id="XMLID_2_-2"
       r="69.833298"
       gradientTransform="matrix(1.11456,0,0,0.79531,241.7787,436.9974)">
      <stop
         id="stop6-5"
         offset="0"
         style="stop-color:white;stop-opacity:1;" />
      <stop
         id="stop8-1"
         offset="1"
         style="stop-color:#81ceff;stop-opacity:1;" />
    </radialGradient>
    <radialGradient
       inkscape:collect="always"
       xlink:href="#XMLID_2_-2"
       id="radialGradient3936"
       gradientUnits="userSpaceOnUse"
       gradientTransform="matrix(1.8624509,0,0,1.3279334,145.45806,162.91927)"
       cx="42.785599"
       cy="42.188999"
       r="69.833298" />
  </defs>
  <sodipodi:namedview
     id="base"
     pagecolor="#ffffff"
     bordercolor="#666666"
     borderopacity="1.0"
     inkscape:pageopacity="0.0"
     inkscape:pageshadow="2"
     inkscape:zoom="2.284375"
     inkscape:cx="160"
     inkscape:cy="160"
     inkscape:document-units="px"
     inkscape:current-layer="layer1"
     inkscape:window-width="1280"
     inkscape:window-height="940"
     inkscape:window-x="-8"
     inkscape:window-y="-8"
     width="400px"
     height="400px"
     showgrid="false"
     showguides="true"
     inkscape:guide-bbox="true"
     fit-margin-top="0"
     fit-margin-left="0"
     fit-margin-right="0"
     fit-margin-bottom="0"
     inkscape:window-maximized="1"
     inkscape:snap-global="false">
    <sodipodi:guide
       orientation="0,1"
       position="-20.699983,340.51848"
       id="guide3530" />
    <sodipodi:guide
       orientation="1,0"
       position="0.30001736,-50.481525"
       id="guide3532" />
    <sodipodi:guide
       orientation="0,1"
       position="131.30002,0.51847536"
       id="guide3534" />
    <sodipodi:guide
       orientation="1,0"
       position="272.7223,135.70451"
       id="guide3124" />
    <sodipodi:guide
       orientation="0,1"
       position="150.58824,62.599179"
       id="guide3126" />
  </sodipodi:namedview>
  <metadata
     id="metadata7">
    <rdf:RDF>
      <cc:Work
         rdf:about="">
        <dc:format>image/svg+xml</dc:format>
        <dc:type
           rdf:resource="http://purl.org/dc/dcmitype/StillImage" />
        <dc:title></dc:title>
      </cc:Work>
    </rdf:RDF>
  </metadata>
  <g
     inkscape:label="Ebene 1"
     inkscape:groupmode="layer"
     id="layer1"
     transform="translate(-39.699983,-60.51848)">
    <path
       style="font-size:medium;font-style:normal;font-variant:normal;font-weight:normal;font-stretch:normal;text-indent:0;text-align:start;text-decoration:none;line-height:normal;letter-spacing:normal;word-spacing:normal;text-transform:none;direction:ltr;block-progression:tb;writing-mode:lr-tb;text-anchor:start;baseline-shift:baseline;color:#000000;fill:#94d200;fill-opacity:1;stroke:none;stroke-width:22.78279305;marker:none;visibility:visible;display:block;overflow:visible;enable-background:accumulate;font-family:Sans;-inkscape-font-specification:Sans"
       d="m 206.34375,62.3125 c -33.13582,0 -63.24531,5.946787 -86.0625,16.21875 -11.4086,5.135981 -21.06312,11.357188 -28.3125,19.0625 -7.24938,7.70531 -12.156247,17.36201 -12.15625,27.9375 l 0,191.78125 c 0,10.57549 4.90687,20.23219 12.15625,27.9375 7.24938,7.70531 16.9039,13.92652 28.3125,19.0625 22.81719,10.27196 52.92668,16.21875 86.0625,16.21875 67.39271,0 119.64741,-44.33249 123.3125,-49.46875 3.66509,-5.13626 5.13769,-13.29291 5.13769,-13.29291 l -0.1154,-31.24093 -22.0634,11.03268 0.32236,20.59491 C 282.40608,338.668 265.93514,357.75 206.34375,357.75 c -30.35621,0 -57.81871,-5.72431 -76.6875,-14.21875 -9.4344,-4.24722 -16.67914,-9.18274 -21.09375,-13.875 -4.41461,-4.69226 -5.9375,-8.62547 -5.9375,-12.34375 l 0,-191.78125 c 0,-3.71829 1.52289,-7.65149 5.9375,-12.34375 4.41461,-4.69226 11.65935,-9.65902 21.09375,-13.90625 18.86879,-8.49445 46.3313,-14.1875 76.6875,-14.1875 30.35621,0 58.38222,5.713262 77.8125,14.25 9.71514,4.26837 17.22194,9.24556 21.8125,13.96875 4.59056,4.72319 6.15625,8.63698 6.15625,12.21875 l 0,61.21875 22.78125,16 0,-77.21875 c 0,-10.71201 -5.13488,-20.41937 -12.59375,-28.09375 -7.45887,-7.674383 -17.35823,-13.853914 -29,-18.96875 C 270.02896,68.239077 239.47958,62.3125 206.34375,62.3125 z"
       inkscape:connector-curvature="0"
       sodipodi:nodetypes="sssssssszccccsssssssssssccssss"
       id="path137" />
    <path
       transform="matrix(8.165153,0,0,7.7132594,10.891034,7.5712075)"
       d="m 36.857142,14.071428 c 0,3.037566 -5.756338,5.5 -12.857142,5.5 -7.100804,0 -12.857142,-2.462434 -12.857142,-5.5 0,-3.037566 5.756338,-5.4999997 12.857142,-5.4999997 7.100804,0 12.857142,2.4624337 12.857142,5.4999997 z"
       sodipodi:ry="5.5"
       sodipodi:rx="12.857142"
       sodipodi:cy="14.071428"
       sodipodi:cx="24"
       id="path3364"
       style="fill:none;stroke:#94d200;stroke-width:2.94118738000000010;stroke-linecap:butt;stroke-linejoin:miter;stroke-miterlimit:10;stroke-opacity:1;stroke-dasharray:none;stroke-dashoffset:0;marker:none;visibility:visible;display:block;overflow:visible"
       sodipodi:type="arc" />
    <path
       d="m 261.60847,197.88517 c 0,3.4396 0,6.87832 0,10.31791 0,1.55339 1.62305,10.63018 0,11.63397 -1.27641,0.79051 -8.46189,0 -10.07368,0 -7.7073,0 -15.41459,0 -23.12314,0 -9.95729,0 -28.00606,-2.4287 -34.06028,4.93945 -4.91671,5.98785 -1.90961,17.32558 -1.90961,23.83271 0,7.47879 -0.96858,15.31713 0,22.76915 0,11.91592 19.48786,9.9735 30.56764,9.9735 12.62151,0 25.24301,0 37.86451,0 1.54545,0 0.73456,19.08597 0.73456,21.52091 0,8.44775 12.34744,12.21837 20.89317,6.14308 7.48206,-5.31419 14.9616,-10.63019 22.44239,-15.94795 15.92142,-11.31454 34.01774,-22.11871 48.43497,-34.42364 10.17254,-7.27803 -0.13639,-14.20361 -7.31686,-19.32955 -9.78335,-6.98091 -19.56795,-13.96361 -29.35256,-20.94542 -9.6119,-6.86134 -19.22633,-13.72269 -28.84073,-20.58226 -6.23191,-4.44783 -14.13067,-10.13231 -23.29584,-4.46122 -1.87208,1.15814 -2.96454,2.78381 -2.96454,4.55936"
       id="path10"
       style="fill:none;fill-opacity:1"
       inkscape:connector-curvature="0" />
    <path
       style="fill:#94d200;stroke:none"
       d="M 213.28125 108.46875 C 211.08567 108.47714 208.71771 108.83483 206.15625 109.59375 C 191.78768 113.85167 197.59375 134.63754 197.59375 143.4375 C 197.59375 145.62015 161.30739 144.46875 156.84375 144.46875 C 90.59014 141.69422 103.84136 161.58008 103.8125 191.84375 C 103.7837 222.10743 95.13949 224.77854 149.9375 223.625 C 165.7223 223.29273 181.49299 223.625 197.28125 223.625 C 198.2433 223.625 197.00195 250.09093 197.875 253.625 C 199.97405 262.12849 216.41307 264.96502 224.6875 259.03125 C 237.32668 250.09809 251.01778 240.23543 262.15625 232.28125 C 274.1915 223.68826 286.21476 215.09411 298.25 206.5 C 304.5144 202.02844 314.55326 196.89699 318.34375 190.9375 C 324.39417 181.41821 313.66038 175.13796 305.40625 169.21875 C 293.75211 160.86182 282.09323 152.48193 270.4375 144.125 C 258.96141 135.89895 247.50736 127.66353 236.03125 119.4375 C 229.26005 114.57904 222.79545 108.4324 213.28125 108.46875 z M 161.6875 163.9375 C 167.74205 163.93755 172.58275 165.28208 176.15625 167.96875 C 179.72966 170.65551 182.28323 174.74789 183.84375 180.25 L 170.875 182.65625 C 170.43803 179.98566 169.45106 177.97645 167.90625 176.625 C 166.36136 175.27364 164.3405 174.59379 161.875 174.59375 C 158.598 174.59379 155.9818 175.761 154.03125 178.09375 C 152.08065 180.42656 151.12498 184.34257 151.125 189.8125 C 151.12498 195.89384 152.11195 200.17776 154.09375 202.6875 C 156.07552 205.19726 158.72308 206.46876 162.0625 206.46875 C 164.5592 206.46876 166.62704 205.74528 168.21875 204.28125 C 169.81039 202.81724 170.90707 200.29033 171.5625 196.71875 L 184.5 198.96875 C 183.15795 205.08225 180.58873 209.72266 176.78125 212.84375 C 172.97368 215.96485 167.86661 217.5 161.46875 217.5 C 154.19698 217.5 148.38496 215.13617 144.0625 210.40625 C 139.74002 205.67635 137.59375 199.14711 137.59375 190.78125 C 137.59375 182.31892 139.75566 175.71387 144.09375 171 C 148.43181 166.28623 154.29088 163.93755 161.6875 163.9375 z M 211.96875 163.9375 C 218.77233 163.93755 223.84804 165.09053 227.15625 167.375 C 230.46439 169.65957 232.72034 173.02754 233.96875 177.5 L 221.5625 179.875 C 221.03191 177.88011 220.04491 176.34311 218.5625 175.28125 C 217.08003 174.21947 214.96513 173.68754 212.21875 173.6875 C 208.7545 173.68754 206.27928 174.19008 204.78125 175.1875 C 203.78255 175.89542 203.28123 176.81137 203.28125 177.9375 C 203.28123 178.90282 203.71987 179.73059 204.59375 180.40625 C 205.77968 181.30722 209.86851 182.57779 216.875 184.21875 C 223.88144 185.85976 228.75359 187.86899 231.53125 190.25 C 234.27762 192.66324 235.6562 196.03215 235.65625 200.34375 C 235.6562 205.0415 233.77623 209.05901 229.96875 212.4375 C 226.16119 215.81602 220.52148 217.5 213.0625 217.5 C 206.29008 217.5 200.9167 216.11275 196.96875 213.28125 C 193.02077 210.44973 190.43591 206.57738 189.21875 201.71875 L 202.4375 199.65625 C 202.99925 202.29472 204.12722 204.28877 205.84375 205.65625 C 207.56022 207.02376 209.97277 207.71876 213.0625 207.71875 C 216.46428 207.71876 219.0022 207.06831 220.71875 205.78125 C 221.87346 204.88032 222.46871 203.66855 222.46875 202.15625 C 222.46871 201.12663 222.1554 200.30072 221.53125 199.625 C 220.87582 198.9815 219.40324 198.35951 217.125 197.8125 C 206.51384 195.3993 199.77753 193.21371 196.9375 191.21875 C 193.00513 188.45162 191.0625 184.6105 191.0625 179.6875 C 191.0625 175.24721 192.75443 171.49337 196.15625 168.46875 C 199.55803 165.44424 204.82181 163.93755 211.96875 163.9375 z M 240.875 165.09375 L 254.65625 165.09375 L 264.03125 191.25 L 266.75 200 C 267.46778 197.77985 267.90647 196.30165 268.09375 195.59375 C 268.53066 194.14585 269.00063 192.69795 269.5 191.25 L 278.96875 165.09375 L 292.5 165.09375 L 272.75 216.34375 L 260.90625 216.34375 L 240.875 165.09375 z M 113.90625 202.78125 L 127.0625 202.78125 L 127.0625 216.34375 L 113.90625 216.34375 L 113.90625 202.78125 z "
       transform="translate(39.699983,60.51848)"
       id="path138" />
    <text
       xml:space="preserve"
       style="font-size:40px;font-style:normal;font-variant:normal;font-weight:bold;font-stretch:normal;line-height:125%;letter-spacing:0px;word-spacing:0px;fill:#000000;fill-opacity:1;stroke:none;font-family:Arial;-inkscape-font-specification:Arial Bold"
       x="140.24965"
       y="106.96255"
       id="text3119"
       sodipodi:linespacing="125%"
       transform="translate(39.699983,60.51848)"><tspan
         sodipodi:role="line"
         id="tspan3121"
         x="140.24965"
         y="106.96255" /></text>
  </g>
</svg>
