<?xml version="1.0" encoding="UTF-8" standalone="no"?>
<!-- Generator: Adobe Illustrator 15.1.0, SVG Export Plug-In . SVG Version: 6.00 Build 0)  -->

<svg
   xmlns:dc="http://purl.org/dc/elements/1.1/"
   xmlns:cc="http://creativecommons.org/ns#"
   xmlns:rdf="http://www.w3.org/1999/02/22-rdf-syntax-ns#"
   xmlns:svg="http://www.w3.org/2000/svg"
   xmlns="http://www.w3.org/2000/svg"
   xmlns:sodipodi="http://sodipodi.sourceforge.net/DTD/sodipodi-0.dtd"
   xmlns:inkscape="http://www.inkscape.org/namespaces/inkscape"
   version="1.1"
   x="0px"
   y="0px"
   width="31.998px"
   height="32px"
   viewBox="0 0 31.998 32"
   style="enable-background:new 0 0 31.998 32;"
   xml:space="preserve"
   id="svg2"
   inkscape:version="0.48.1 "
   sodipodi:docname="global.svg"
   inkscape:export-filename="D:\web\xampp\htdocs\limesurvey_yii\images\global.png"
   inkscape:export-xdpi="90"
   inkscape:export-ydpi="90"><metadata
   id="metadata12"><rdf:RDF><cc:Work
       rdf:about=""><dc:format>image/svg+xml</dc:format><dc:type
         rdf:resource="http://purl.org/dc/dcmitype/StillImage" /><dc:title></dc:title></cc:Work></rdf:RDF></metadata><defs
   id="defs10">
	
</defs><sodipodi:namedview
   pagecolor="#ffffff"
   bordercolor="#666666"
   borderopacity="1"
   objecttolerance="10"
   gridtolerance="10"
   guidetolerance="10"
   inkscape:pageopacity="0"
   inkscape:pageshadow="2"
   inkscape:window-width="749"
   inkscape:window-height="480"
   id="namedview8"
   showgrid="false"
   inkscape:zoom="7.430605"
   inkscape:cx="15.999"
   inkscape:cy="16"
   inkscape:window-x="319"
   inkscape:window-y="196"
   inkscape:window-maximized="0"
   inkscape:current-layer="svg2" />
<g
   id="Layer_1">
</g>
<path
   inkscape:connector-curvature="0"
   id="path6"
   d="M 29.648112,7.0496609 25.153261,11.544512 H 20.455278 V 6.773151 l 4.43937,-4.4375807 c -0.656823,-0.1977627 -1.335122,-0.3355702 -2.05548,-0.3355702 -3.951674,0 -7.157041,3.2071565 -7.157041,7.1588315 0,1.1024604 0.269351,2.1342264 0.716778,3.0693494 L 2.0633445,26.559266 c -0.4295299,0.434004 -0.6988809,1.028188 -0.6988809,1.692169 0,1.314541 1.065771,2.383891 2.3874703,2.383891 0.6604022,0 1.2581646,-0.265772 1.68501,-0.698881 L 19.775189,15.602675 c 0.931543,0.443847 1.965994,0.714988 3.063979,0.714988 3.957045,0 7.158832,-3.207157 7.158832,-7.1588314 0,-0.7391493 -0.139597,-1.4380303 -0.349888,-2.1091707 z"
   style="fill:#94d200;fill-opacity:1" />
</svg>