<?xml version="1.0" encoding="UTF-8" standalone="no"?>
<!-- Generator: Adobe Illustrator 15.1.0, SVG Export Plug-In . SVG Version: 6.00 Build 0)  -->

<svg
   xmlns:dc="http://purl.org/dc/elements/1.1/"
   xmlns:cc="http://creativecommons.org/ns#"
   xmlns:rdf="http://www.w3.org/1999/02/22-rdf-syntax-ns#"
   xmlns:svg="http://www.w3.org/2000/svg"
   xmlns="http://www.w3.org/2000/svg"
   xmlns:sodipodi="http://sodipodi.sourceforge.net/DTD/sodipodi-0.dtd"
   xmlns:inkscape="http://www.inkscape.org/namespaces/inkscape"
   version="1.1"
   x="0px"
   y="0px"
   width="32"
   height="32"
   viewBox="0 0 32 32"
   xml:space="preserve"
   id="svg2"
   inkscape:version="0.48.3.1 r9886"
   sodipodi:docname="invite.svg"
   inkscape:export-filename="D:\web\xampp\htdocs\limesurvey_yii\styles\gringegreen\images\invite.png"
   inkscape:export-xdpi="90"
   inkscape:export-ydpi="90"><metadata
   id="metadata16"><rdf:RDF><cc:Work
       rdf:about=""><dc:format>image/svg+xml</dc:format><dc:type
         rdf:resource="http://purl.org/dc/dcmitype/StillImage" /><dc:title></dc:title></cc:Work></rdf:RDF></metadata><defs
   id="defs14">
	

		
		
	</defs><sodipodi:namedview
   pagecolor="#ffffff"
   bordercolor="#666666"
   borderopacity="1"
   objecttolerance="10"
   gridtolerance="10"
   guidetolerance="10"
   inkscape:pageopacity="0"
   inkscape:pageshadow="2"
   inkscape:window-width="1280"
   inkscape:window-height="940"
   id="namedview12"
   showgrid="false"
   inkscape:zoom="13.581259"
   inkscape:cx="19.860913"
   inkscape:cy="7.5149394"
   inkscape:window-x="-8"
   inkscape:window-y="-8"
   inkscape:window-maximized="1"
   inkscape:current-layer="svg2" />
<g
   id="Layer_1"
   transform="translate(0,8)">
</g>
<polygon
   style="fill:#94d200;fill-opacity:1"
   points="32,0 0,0 0,3.906 16.078,11.457 32,3.918 "
   id="polygon8"
   transform="translate(0,8)" /><path
   style="fill:#94d200;fill-opacity:1"
   d="M 0 16.3125 L 0 32 L 32 32 L 32 26.625 C 31.981677 26.666517 31.965022 26.706699 31.9375 26.75 C 31.66163 27.183731 30.92467 27.580812 30.46875 27.90625 C 29.592829 28.531726 28.719672 29.155855 27.84375 29.78125 C 27.033095 30.360153 26.044875 31.068596 25.125 31.71875 C 24.522789 32.150608 23.340268 31.931383 23.1875 31.3125 C 23.12396 31.055293 23.19502 28.5 23.125 28.5 C 21.975936 28.5 20.836312 28.47581 19.6875 28.5 C 15.699315 28.583955 16.34165 29.046331 16.34375 26.84375 C 16.345851 24.641168 15.365582 23.829322 20.1875 24.03125 C 20.512362 24.03125 23.15625 24.127603 23.15625 23.96875 C 23.15625 23.328293 22.735509 21.153638 23.78125 20.84375 C 24.7755 20.549168 25.36222 21.127303 25.96875 21.5625 C 26.803979 22.161187 27.633522 22.745061 28.46875 23.34375 C 29.31705 23.951966 30.151812 24.579286 31 25.1875 C 31.375457 25.456749 31.82593 25.721292 32 26.0625 L 32 16.34375 L 16.09375 23.875 L 0 16.3125 z "
   id="polygon10" />
</svg>