<?xml version="1.0" encoding="UTF-8" standalone="no"?>
<!-- Generator: Adobe Illustrator 15.1.0, SVG Export Plug-In . SVG Version: 6.00 Build 0)  -->

<svg
   xmlns:dc="http://purl.org/dc/elements/1.1/"
   xmlns:cc="http://creativecommons.org/ns#"
   xmlns:rdf="http://www.w3.org/1999/02/22-rdf-syntax-ns#"
   xmlns:svg="http://www.w3.org/2000/svg"
   xmlns="http://www.w3.org/2000/svg"
   xmlns:sodipodi="http://sodipodi.sourceforge.net/DTD/sodipodi-0.dtd"
   xmlns:inkscape="http://www.inkscape.org/namespaces/inkscape"
   version="1.1"
   x="0px"
   y="0px"
   width="32"
   height="32"
   viewBox="0 0 32 32"
   xml:space="preserve"
   id="svg2"
   inkscape:version="0.48.3.1 r9886"
   sodipodi:docname="mail.svg"><metadata
   id="metadata16"><rdf:RDF><cc:Work
       rdf:about=""><dc:format>image/svg+xml</dc:format><dc:type
         rdf:resource="http://purl.org/dc/dcmitype/StillImage" /><dc:title></dc:title></cc:Work></rdf:RDF></metadata><defs
   id="defs14" /><sodipodi:namedview
   pagecolor="#ffffff"
   bordercolor="#666666"
   borderopacity="1"
   objecttolerance="10"
   gridtolerance="10"
   guidetolerance="10"
   inkscape:pageopacity="0"
   inkscape:pageshadow="2"
   inkscape:window-width="1280"
   inkscape:window-height="940"
   id="namedview12"
   showgrid="false"
   inkscape:zoom="4.6295638"
   inkscape:cx="19.860913"
   inkscape:cy="7.5149394"
   inkscape:window-x="-8"
   inkscape:window-y="-8"
   inkscape:window-maximized="1"
   inkscape:current-layer="svg2" />
<g
   id="Layer_1"
   transform="translate(0,8)">
</g>
<g
   id="mail"
   transform="translate(0,8)"
   style="fill:#94d200;fill-opacity:1">
	<g
   id="g6"
   style="fill:#94d200;fill-opacity:1">
		<polygon
   style="fill:#94d200;fill-opacity:1"
   points="0,0 0,3.906 16.078,11.457 32,3.918 32,0 "
   id="polygon8" />
		<polygon
   style="fill:#94d200;fill-opacity:1"
   points="32,24 32,8.344 16.086,15.879 0,8.32 0,24 "
   id="polygon10" />
	</g>
</g>
<path
   d="m 23.779829,20.841719 c -1.045741,0.309888 -0.622443,2.480946 -0.622443,3.121403 0,0.158853 -2.640382,0.07572 -2.965244,0.07572 -4.821918,-0.201928 -3.858465,0.587602 -3.860566,2.790184 -0.0021,2.202581 -0.631733,1.739354 3.356452,1.655399 1.148812,-0.02419 2.298015,0 3.447079,0 0.07002,0 -0.02228,2.583212 0.04126,2.840419 0.152768,0.618883 1.349573,0.825123 1.951784,0.393265 0.919875,-0.650154 1.916568,-1.368527 2.727223,-1.94743 0.875922,-0.625395 1.751617,-1.250629 2.627538,-1.876105 0.45592,-0.325438 1.186234,-0.698511 1.462104,-1.132242 0.440349,-0.692811 -0.340548,-1.150887 -0.94128,-1.581685 -0.848188,-0.608214 -1.696602,-1.216511 -2.544902,-1.824727 -0.835228,-0.598689 -1.670116,-1.197542 -2.505345,-1.796229 -0.60653,-0.435197 -1.179412,-1.012554 -2.173662,-0.717972"
   style="fill:#ffffff;stroke:none"
   inkscape:connector-curvature="0"
   sodipodi:nodetypes="csczssccccccccc"
   id="path138" /></svg>