<?xml version="1.0" encoding="UTF-8" standalone="no"?>
<!-- Generator: Adobe Illustrator 15.1.0, SVG Export Plug-In . SVG Version: 6.00 Build 0)  -->

<svg
   xmlns:dc="http://purl.org/dc/elements/1.1/"
   xmlns:cc="http://creativecommons.org/ns#"
   xmlns:rdf="http://www.w3.org/1999/02/22-rdf-syntax-ns#"
   xmlns:svg="http://www.w3.org/2000/svg"
   xmlns="http://www.w3.org/2000/svg"
   xmlns:sodipodi="http://sodipodi.sourceforge.net/DTD/sodipodi-0.dtd"
   xmlns:inkscape="http://www.inkscape.org/namespaces/inkscape"
   version="1.1"
   x="0px"
   y="0px"
   width="32"
   height="32"
   viewBox="0 0 32 32"
   xml:space="preserve"
   id="svg2"
   inkscape:version="0.48.3.1 r9886"
   sodipodi:docname="preview.svg"
   inkscape:export-filename="D:\web\xampp\htdocs\limesurvey_yii\styles\gringegreen\images\preview.png"
   inkscape:export-xdpi="90"
   inkscape:export-ydpi="90"><metadata
   id="metadata12"><rdf:RDF><cc:Work
       rdf:about=""><dc:format>image/svg+xml</dc:format><dc:type
         rdf:resource="http://purl.org/dc/dcmitype/StillImage" /><dc:title></dc:title></cc:Work></rdf:RDF></metadata><defs
   id="defs10">
	
</defs><sodipodi:namedview
   pagecolor="#ffffff"
   bordercolor="#666666"
   borderopacity="1"
   objecttolerance="10"
   gridtolerance="10"
   guidetolerance="10"
   inkscape:pageopacity="0"
   inkscape:pageshadow="2"
   inkscape:window-width="1209"
   inkscape:window-height="686"
   id="namedview8"
   showgrid="false"
   inkscape:zoom="16.275393"
   inkscape:cx="10.829014"
   inkscape:cy="22.560662"
   inkscape:window-x="25"
   inkscape:window-y="25"
   inkscape:window-maximized="0"
   inkscape:current-layer="svg2" />
<g
   id="Layer_1">
</g>
<path
   style="fill:#94d200"
   d="m 12.875,0 1.1875,0.71875 c 0,0 2.202241,-0.42228585 3.315673,-0.875 L 19.25,1.53125 20.675867,4 l 0,8 L 28,12 28,28 12,28 12,20.3125 10.875,21 8.5,21 8,19.84375 8,32 32,32 32,10 22,0 z"
   id="path6"
   inkscape:connector-curvature="0"
   sodipodi:nodetypes="cccccccccccccccccc" />
<g
   id="Layer_1-1"
   transform="matrix(0.59741395,0,0,0.59741395,0.10344203,-0.10344225)" /><path
   inkscape:connector-curvature="0"
   id="path6-4"
   d="M 19.101404,10.61681 V 8.256975 L 16.280811,7.0817774 C 16.202347,6.8605429 16.119753,6.6463878 16.01828,6.4363625 L 17.1569,3.6016111 15.487907,1.9332081 12.678524,3.090117 C 12.464369,2.9862843 12.245494,2.8989704 12.01954,2.8181461 L 10.823694,0.01584248 H 8.4638589 L 7.2975108,2.8087067 C 7.0627072,2.8918909 6.8367532,2.9792048 6.6131591,3.0853973 l -2.8046649,-1.126821 -1.668402,1.6684031 1.14334,2.7792952 c -0.110913,0.228314 -0.200586,0.4607578 -0.28613,0.700871 L 0.22272622,8.2935524 v 2.3598346 l 2.77693598,1.156908 c 0.08554,0.239524 0.177577,0.472557 0.287899,0.700871 l -1.122101,2.797585 1.668403,1.668402 2.7863755,-1.14747 c 0.2235941,0.106193 0.4519079,0.191147 0.6867116,0.271972 l 1.193486,2.792864 h 2.3598347 l 1.168118,-2.807023 c 0.223595,-0.08318 0.444829,-0.170498 0.656624,-0.271971 l 2.830032,1.1339 1.668403,-1.668403 -1.161628,-2.815873 c 0.09911,-0.211794 0.179937,-0.42654 0.258401,-0.645414 l 2.821183,-1.202925 z m -9.4576276,2.378122 c -1.9539429,0 -3.5397516,-1.585808 -3.5397516,-3.5397514 0,-1.9539427 1.5858087,-3.5397515 3.5397516,-3.5397515 1.9539436,0 3.5397516,1.5858088 3.5397516,3.5397515 0,1.9539434 -1.585808,3.5397514 -3.5397516,3.5397514 z"
   style="fill:#94d200" /></svg>