<?xml version="1.0" encoding="UTF-8" standalone="no"?>
<!-- Generator: Adobe Illustrator 15.1.0, SVG Export Plug-In . SVG Version: 6.00 Build 0)  -->

<svg
   xmlns:dc="http://purl.org/dc/elements/1.1/"
   xmlns:cc="http://creativecommons.org/ns#"
   xmlns:rdf="http://www.w3.org/1999/02/22-rdf-syntax-ns#"
   xmlns:svg="http://www.w3.org/2000/svg"
   xmlns="http://www.w3.org/2000/svg"
   xmlns:sodipodi="http://sodipodi.sourceforge.net/DTD/sodipodi-0.dtd"
   xmlns:inkscape="http://www.inkscape.org/namespaces/inkscape"
   version="1.1"
   x="0px"
   y="0px"
   width="32"
   height="32"
   viewBox="0 0 32 32"
   xml:space="preserve"
   id="svg2"
   inkscape:version="0.48.3.1 r9886"
   sodipodi:docname="remind.svg"
   inkscape:export-filename="D:\web\xampp\htdocs\limesurvey_yii\styles\gringegreen\images\token_remind.png"
   inkscape:export-xdpi="45"
   inkscape:export-ydpi="45"><metadata
   id="metadata16"><rdf:RDF><cc:Work
       rdf:about=""><dc:format>image/svg+xml</dc:format><dc:type
         rdf:resource="http://purl.org/dc/dcmitype/StillImage" /><dc:title></dc:title></cc:Work></rdf:RDF></metadata><defs
   id="defs14">
	

		
		
	</defs><sodipodi:namedview
   pagecolor="#ffffff"
   bordercolor="#666666"
   borderopacity="1"
   objecttolerance="10"
   gridtolerance="10"
   guidetolerance="10"
   inkscape:pageopacity="0"
   inkscape:pageshadow="2"
   inkscape:window-width="1280"
   inkscape:window-height="940"
   id="namedview12"
   showgrid="false"
   inkscape:zoom="22.84375"
   inkscape:cx="16"
   inkscape:cy="16"
   inkscape:window-x="-8"
   inkscape:window-y="-8"
   inkscape:window-maximized="1"
   inkscape:current-layer="svg2"
   showguides="true"
   inkscape:guide-bbox="true"
   inkscape:snap-global="false"><sodipodi:guide
     orientation="0,1"
     position="25.039672,8.4049248"
     id="guide2987" /><sodipodi:guide
     orientation="0,1"
     position="20.53078,5.0341997"
     id="guide2989" /><sodipodi:guide
     orientation="1,0"
     position="19.830369,8.3611491"
     id="guide2991" /><sodipodi:guide
     orientation="1,0"
     position="24.514364,8.2735978"
     id="guide2995" /></sodipodi:namedview>
<g
   id="Layer_1"
   transform="translate(0,8)">
</g>
<path
   style="fill:#94d200;fill-opacity:1"
   d="m 0,8 0,3.90625 7.34375,3.4375 c 1.7513963,-2.252938 4.459125,-3.74275 7.5,-3.8125 0.04804,-0.02184 0.28125,-0.125 0.28125,-0.125 0,0 -0.391702,-2.5609879 0.5625,-2.84375 0.907219,-0.2687969 1.415312,0.2591479 1.96875,0.65625 0.762117,0.5462818 1.55038,1.078716 2.3125,1.625 0.774045,0.554975 1.538554,1.101274 2.3125,1.65625 0.548145,0.393088 1.245553,0.805336 0.84375,1.4375 -0.251723,0.395764 -0.896489,0.734301 -1.3125,1.03125 -0.799248,0.570726 -1.607002,1.148099 -2.40625,1.71875 -0.739693,0.528228 -1.660646,1.188008 -2.5,1.78125 -0.549495,0.394055 -1.641867,0.22096 -1.78125,-0.34375 -0.0049,-0.677386 -0.04216,-1.354152 -0.0625,-2.03125 -1.331393,0 -2.520146,0.480796 -3.4375,1.28125 L 16.0625,19.46875 32,11.90625 32,8 z M 0,16.3125 0,32 32,32 32,16.34375 16.09375,23.875 9.875,20.9375 c -0.00748,0.115506 -0.03125,0.226105 -0.03125,0.34375 0,2.903571 2.315181,5.21875 5.21875,5.21875 2.903572,0 4.212167,-0.571762 4.78125,-2.90625 l 4.65625,0 c 0.04378,4.465117 -4.068261,7.46875 -9.4375,7.46875 -5.3692355,0 -9.78125,-4.412015 -9.78125,-9.78125 0,-0.809093 0.1239781,-1.59108 0.3125,-2.34375 z"
   id="polygon10"
   inkscape:connector-curvature="0"
   sodipodi:nodetypes="ccccccccccccccccccccccccccssccsscc" />
</svg>