<?xml version="1.0" encoding="UTF-8" standalone="no"?>
<!-- Generator: Adobe Illustrator 15.1.0, SVG Export Plug-In . SVG Version: 6.00 Build 0)  -->

<svg
   xmlns:dc="http://purl.org/dc/elements/1.1/"
   xmlns:cc="http://creativecommons.org/ns#"
   xmlns:rdf="http://www.w3.org/1999/02/22-rdf-syntax-ns#"
   xmlns:svg="http://www.w3.org/2000/svg"
   xmlns="http://www.w3.org/2000/svg"
   xmlns:sodipodi="http://sodipodi.sourceforge.net/DTD/sodipodi-0.dtd"
   xmlns:inkscape="http://www.inkscape.org/namespaces/inkscape"
   version="1.1"
   x="0px"
   y="0px"
   width="32px"
   height="32px"
   viewBox="0 0 32 32"
   style="enable-background:new 0 0 32 32;"
   xml:space="preserve"
   id="svg2"
   inkscape:version="0.48.3.1 r9886"
   sodipodi:docname="magnifying_glass.svg"
   inkscape:export-filename="D:\web\xampp\htdocs\limesurvey_yii\styles\gringegreen\images\search.png"
   inkscape:export-xdpi="56.25"
   inkscape:export-ydpi="56.25"><metadata
   id="metadata16"><rdf:RDF><cc:Work
       rdf:about=""><dc:format>image/svg+xml</dc:format><dc:type
         rdf:resource="http://purl.org/dc/dcmitype/StillImage" /><dc:title></dc:title></cc:Work></rdf:RDF></metadata><defs
   id="defs14">
	

		
		
	</defs><sodipodi:namedview
   pagecolor="#ffffff"
   bordercolor="#666666"
   borderopacity="1"
   objecttolerance="10"
   gridtolerance="10"
   guidetolerance="10"
   inkscape:pageopacity="0"
   inkscape:pageshadow="2"
   inkscape:window-width="640"
   inkscape:window-height="480"
   id="namedview12"
   showgrid="false"
   inkscape:zoom="8.3833008"
   inkscape:cx="16"
   inkscape:cy="16"
   inkscape:window-x="0"
   inkscape:window-y="0"
   inkscape:window-maximized="0"
   inkscape:current-layer="svg2" />
<g
   id="Layer_1">
</g>
<path
   style="fill:#94d200"
   d="m 20.133,0 c -6.539,0 -11.86,5.32 -11.86,11.863 0,1.566 0.32,3.051 0.871,4.418 L 0,25.426 6.57,32 15.718,22.848 c 1.367,0.555 2.852,0.875 4.414,0.875 6.543,0 11.867,-5.32 11.867,-11.859 C 32,5.32 26.676,0 20.133,0 z m 0,19.727 c -4.332,0 -7.863,-3.531 -7.863,-7.863 0,-4.336 3.531,-7.867 7.863,-7.867 4.34,0 7.871,3.531 7.871,7.867 0,4.331 -3.531,7.863 -7.871,7.863 z"
   id="path10"
   inkscape:connector-curvature="0" />
</svg>