<?xml version="1.0" encoding="UTF-8" standalone="no"?>
<!-- Generator: Adobe Illustrator 15.1.0, SVG Export Plug-In . SVG Version: 6.00 Build 0)  -->

<svg
   xmlns:dc="http://purl.org/dc/elements/1.1/"
   xmlns:cc="http://creativecommons.org/ns#"
   xmlns:rdf="http://www.w3.org/1999/02/22-rdf-syntax-ns#"
   xmlns:svg="http://www.w3.org/2000/svg"
   xmlns="http://www.w3.org/2000/svg"
   xmlns:sodipodi="http://sodipodi.sourceforge.net/DTD/sodipodi-0.dtd"
   xmlns:inkscape="http://www.inkscape.org/namespaces/inkscape"
   version="1.1"
   x="0px"
   y="0px"
   width="31.998px"
   height="32px"
   viewBox="0 0 31.998 32"
   style="enable-background:new 0 0 31.998 32;"
   xml:space="preserve"
   id="svg2"
   inkscape:version="0.48.3.1 r9886"
   sodipodi:docname="share.svg"
   inkscape:export-filename="D:\web\xampp\htdocs\limesurvey_yii\styles\gringegreen\images\share.png"
   inkscape:export-xdpi="90.010002"
   inkscape:export-ydpi="90.010002"><metadata
   id="metadata12"><rdf:RDF><cc:Work
       rdf:about=""><dc:format>image/svg+xml</dc:format><dc:type
         rdf:resource="http://purl.org/dc/dcmitype/StillImage" /><dc:title></dc:title></cc:Work></rdf:RDF></metadata><defs
   id="defs10">
	
</defs><sodipodi:namedview
   pagecolor="#ffffff"
   bordercolor="#666666"
   borderopacity="1"
   objecttolerance="10"
   gridtolerance="10"
   guidetolerance="10"
   inkscape:pageopacity="0"
   inkscape:pageshadow="2"
   inkscape:window-width="802"
   inkscape:window-height="678"
   id="namedview8"
   showgrid="false"
   inkscape:zoom="30.588123"
   inkscape:cx="15.999"
   inkscape:cy="17.133586"
   inkscape:window-x="0"
   inkscape:window-y="0"
   inkscape:window-maximized="0"
   inkscape:current-layer="svg2" />
<g
   id="Layer_1">
</g>
<path
   inkscape:connector-curvature="0"
   id="path6"
   d="m 27.998,24 c -0.969,0 -1.828,0.391 -2.523,0.965 L 19.379,20.613 C 19.766,19.816 20,18.941 20,18 20,16.707 19.578,15.512 18.883,14.535 L 26.014,7.398 C 26.607,7.746 27.264,8 27.998,8 c 2.211,0 4,-1.789 4,-4 0,-2.211 -1.789,-4 -4,-4 -2.211,0 -4,1.789 -4,4 0,0.738 0.258,1.391 0.602,1.984 l -7.131,7.137 C 16.484,12.418 15.297,12 14,12 11.711,12 9.742,13.301 8.73,15.191 L 3.914,13.582 C 3.719,12.684 2.957,12 2,12 c -1.105,0 -2,0.895 -2,2 0,1.105 0.895,2 2,2 0.504,0 0.953,-0.203 1.305,-0.512 l 4.789,1.598 C 8.047,17.387 8,17.688 8,18 c 0,3.312 2.688,6 6,6 1.648,0 3.145,-0.668 4.23,-1.746 l 6.057,4.324 c -0.172,0.445 -0.289,0.918 -0.289,1.422 0,2.207 1.789,4 4,4 2.211,0 4,-1.793 4,-4 0,-2.207 -1.789,-4 -4,-4 z"
   style="fill:#94d200" />
</svg>