<?xml version="1.0" encoding="UTF-8" standalone="no"?>
<!-- Generator: Adobe Illustrator 15.1.0, SVG Export Plug-In . SVG Version: 6.00 Build 0)  -->

<svg
   xmlns:dc="http://purl.org/dc/elements/1.1/"
   xmlns:cc="http://creativecommons.org/ns#"
   xmlns:rdf="http://www.w3.org/1999/02/22-rdf-syntax-ns#"
   xmlns:svg="http://www.w3.org/2000/svg"
   xmlns="http://www.w3.org/2000/svg"
   xmlns:sodipodi="http://sodipodi.sourceforge.net/DTD/sodipodi-0.dtd"
   xmlns:inkscape="http://www.inkscape.org/namespaces/inkscape"
   version="1.1"
   x="0px"
   y="0px"
   width="32"
   height="32"
   viewBox="0 0 32 32"
   xml:space="preserve"
   id="svg2"
   inkscape:version="0.48.1 "
   sodipodi:docname="summary.svg"
   inkscape:export-filename="D:\web\xampp\htdocs\limesurvey_yii\styles\gringegreen\images\summary.png"
   inkscape:export-xdpi="90"
   inkscape:export-ydpi="90"><metadata
   id="metadata16"><rdf:RDF><cc:Work
       rdf:about=""><dc:format>image/svg+xml</dc:format><dc:type
         rdf:resource="http://purl.org/dc/dcmitype/StillImage" /><dc:title></dc:title></cc:Work></rdf:RDF></metadata><defs
   id="defs14" /><sodipodi:namedview
   pagecolor="#ffffff"
   bordercolor="#666666"
   borderopacity="1"
   objecttolerance="10"
   gridtolerance="10"
   guidetolerance="10"
   inkscape:pageopacity="0"
   inkscape:pageshadow="2"
   inkscape:window-width="640"
   inkscape:window-height="480"
   id="namedview12"
   showgrid="false"
   inkscape:zoom="8.15625"
   inkscape:cx="8"
   inkscape:cy="14.755219"
   inkscape:window-x="328"
   inkscape:window-y="244"
   inkscape:window-maximized="0"
   inkscape:current-layer="svg2" />
<g
   id="Layer_1">
</g>
<g
   id="info"
   transform="translate(8.091954,0)"
   style="fill:#94d200">
	<g
   id="g6"
   style="fill:#94d200">
		<path
   style="fill:#94d200"
   d="m 2,16 c 1.105,0 2,0.895 2,2 v 8 c 0,1.105 -0.895,2 -2,2 H 0 v 4 h 16 v -4 h -1.992 c -1.102,0 -2,-0.895 -2,-2 L 12,12 H 0 v 4 h 2 z"
   id="path8"
   inkscape:connector-curvature="0" />
		<circle
   style="fill:#94d200"
   cx="8"
   cy="4"
   r="4"
   id="circle10"
   sodipodi:cx="8"
   sodipodi:cy="4"
   sodipodi:rx="4"
   sodipodi:ry="4"
   d="M 12,4 C 12,6.209139 10.209139,8 8,8 5.790861,8 4,6.209139 4,4 4,1.790861 5.790861,0 8,0 c 2.209139,0 4,1.790861 4,4 z" />
	</g>
</g>
</svg>