<?xml version="1.0" encoding="UTF-8" standalone="no"?>
<!-- Generator: Adobe Illustrator 15.1.0, SVG Export Plug-In . SVG Version: 6.00 Build 0)  -->

<svg
   xmlns:dc="http://purl.org/dc/elements/1.1/"
   xmlns:cc="http://creativecommons.org/ns#"
   xmlns:rdf="http://www.w3.org/1999/02/22-rdf-syntax-ns#"
   xmlns:svg="http://www.w3.org/2000/svg"
   xmlns="http://www.w3.org/2000/svg"
   xmlns:sodipodi="http://sodipodi.sourceforge.net/DTD/sodipodi-0.dtd"
   xmlns:inkscape="http://www.inkscape.org/namespaces/inkscape"
   version="1.1"
   x="0px"
   y="0px"
   width="32px"
   height="32px"
   viewBox="0 0 32 32"
   style="enable-background:new 0 0 32 32;"
   xml:space="preserve"
   id="svg2"
   inkscape:version="0.48.1 "
   sodipodi:docname="surveysettings.svg"
   inkscape:export-filename="D:\web\xampp\htdocs\limesurvey_yii\styles\gringegreen\images\surveysettings_30.png"
   inkscape:export-xdpi="45"
   inkscape:export-ydpi="45"><metadata
   id="metadata18"><rdf:RDF><cc:Work
       rdf:about=""><dc:format>image/svg+xml</dc:format><dc:type
         rdf:resource="http://purl.org/dc/dcmitype/StillImage" /><dc:title></dc:title></cc:Work></rdf:RDF></metadata><defs
   id="defs16">
	

		
		
		
	</defs><sodipodi:namedview
   pagecolor="#ffffff"
   bordercolor="#666666"
   borderopacity="1"
   objecttolerance="10"
   gridtolerance="10"
   guidetolerance="10"
   inkscape:pageopacity="0"
   inkscape:pageshadow="2"
   inkscape:window-width="640"
   inkscape:window-height="480"
   id="namedview14"
   showgrid="false"
   inkscape:zoom="8.15625"
   inkscape:cx="16"
   inkscape:cy="16"
   inkscape:window-x="125"
   inkscape:window-y="125"
   inkscape:window-maximized="0"
   inkscape:current-layer="svg2" />

<g
   id="g3002"
   style="fill:#94d200"><g
     id="Layer_1"
     style="fill:#94d200">
</g><path
     inkscape:connector-curvature="0"
     id="path8"
     d="M 20,20 H 18 V 2 C 18,0.895 17.109,0 16,0 14.898,0 14,0.895 14,2 v 18 h -2 v 4 h 2 v 6 c 0,1.105 0.898,2 2,2 1.109,0 2,-0.895 2,-2 v -6 h 2 v -4 z"
     style="fill:#94d200" /><path
     inkscape:connector-curvature="0"
     id="path10"
     d="M 32,8 H 30 V 2 C 30,0.895 29.109,0 28,0 26.898,0 26,0.895 26,2 v 6 h -2 v 4 h 2 v 18 c 0,1.105 0.898,2 2,2 1.109,0 2,-0.895 2,-2 V 12 h 2 V 8 z"
     style="fill:#94d200" /><path
     inkscape:connector-curvature="0"
     id="path12"
     d="M 8,12 H 6 V 2 C 6,0.895 5.109,0 4,0 2.898,0 2,0.895 2,2 V 12 H 0 v 4 h 2 v 14 c 0,1.105 0.898,2 2,2 1.109,0 2,-0.895 2,-2 V 16 h 2 v -4 z"
     style="fill:#94d200" /></g>
</svg>