<?xml version="1.0" encoding="UTF-8" standalone="no"?>
<!-- Generator: Adobe Illustrator 15.1.0, SVG Export Plug-In . SVG Version: 6.00 Build 0)  -->

<svg
   xmlns:dc="http://purl.org/dc/elements/1.1/"
   xmlns:cc="http://creativecommons.org/ns#"
   xmlns:rdf="http://www.w3.org/1999/02/22-rdf-syntax-ns#"
   xmlns:svg="http://www.w3.org/2000/svg"
   xmlns="http://www.w3.org/2000/svg"
   xmlns:sodipodi="http://sodipodi.sourceforge.net/DTD/sodipodi-0.dtd"
   xmlns:inkscape="http://www.inkscape.org/namespaces/inkscape"
   version="1.1"
   x="0px"
   y="0px"
   width="32"
   height="32"
   viewBox="0 0 32 32"
   xml:space="preserve"
   id="svg2"
   inkscape:version="0.48.3.1 r9886"
   sodipodi:docname="takeownership.svg"
   inkscape:export-filename="D:\web\xampp\htdocs\limesurvey_yii\styles\gringegreen\images\takeownership.png"
   inkscape:export-xdpi="45"
   inkscape:export-ydpi="45"><metadata
   id="metadata16"><rdf:RDF><cc:Work
       rdf:about=""><dc:format>image/svg+xml</dc:format><dc:type
         rdf:resource="http://purl.org/dc/dcmitype/StillImage" /><dc:title></dc:title></cc:Work></rdf:RDF></metadata><defs
   id="defs14">
	

		
		
	</defs><sodipodi:namedview
   pagecolor="#ffffff"
   bordercolor="#666666"
   borderopacity="1"
   objecttolerance="10"
   gridtolerance="10"
   guidetolerance="10"
   inkscape:pageopacity="0"
   inkscape:pageshadow="2"
   inkscape:window-width="1920"
   inkscape:window-height="994"
   id="namedview12"
   showgrid="false"
   inkscape:zoom="24.107358"
   inkscape:cx="10.59375"
   inkscape:cy="11.010836"
   inkscape:window-x="-8"
   inkscape:window-y="-8"
   inkscape:window-maximized="1"
   inkscape:current-layer="svg2"
   inkscape:snap-global="false"
   showguides="true"
   inkscape:guide-bbox="true"><sodipodi:guide
     orientation="1,0"
     position="23.063498,11.905079"
     id="guide3798" /><sodipodi:guide
     orientation="0,1"
     position="25.303478,5.5169879"
     id="guide3800" /></sodipodi:namedview>

<g
   id="Layer_1"
   transform="translate(6.4367815,0)">
</g><path
   style="fill:#85bd00;fill-opacity:1"
   d="m 11.9375,-0.0625 c -3.3194442,0 -6,2.7118058 -6,6.03125 0,3.3194442 2.6805558,6 6,6 3.319444,0 6,-2.6805558 6,-6 0,-3.3194442 -2.680556,-6.03125 -6,-6.03125 z m 0,16.03125 c -6.6364686,0 -12.03125,5.394783 -12.03125,12.03125 0,2.214828 1.8164614,3.986965 4.03125,4 l 14.03125,0.08258 c 2.29166,-0.08968 3.323714,0.175484 3.25,-0.835781 -1.061315,0 -3.246409,-0.02234 -4.30749,0 -3.683621,0.07756 -3.324855,-3.3458 -3.322855,-5.380711 0.0019,-2.034912 1.136619,-5.617782 5.590305,-5.431225 0.222361,0 0.778205,-0.0034 1.486693,-0.04129 C 19.030613,17.772126 16.739968,15.96875 11.9375,15.96875 z"
   id="circle10"
   inkscape:connector-curvature="0"
   sodipodi:nodetypes="ssssssssccscccs" />
<path
   d="m 23.516087,23.279034 c 0,0.14676 -2.895038,0.06996 -3.195092,0.06996 -4.453686,-0.186557 -3.563809,1.150338 -3.56575,3.18525 -0.002,2.034911 -0.583489,2.214413 3.100132,2.13685 1.061081,-0.02234 2.578818,0 3.640133,0 0.06467,0 0.07959,2.390058 0.07959,2.390058 l 7.393838,-4.920373 -7.417198,-5.262508 c 0,0 -0.03565,1.80906 -0.03565,2.400763 z"
   style="fill:#85bd00;fill-opacity:1;stroke:#85bd00;stroke-width:1.47096765;stroke-linecap:square;stroke-linejoin:miter;stroke-miterlimit:4;stroke-opacity:1;stroke-dasharray:none"
   inkscape:connector-curvature="0"
   sodipodi:nodetypes="sczsscccs"
   id="path138" /></svg>