<?xml version="1.0" encoding="UTF-8" standalone="no"?>
<!-- Generator: Adobe Illustrator 15.1.0, SVG Export Plug-In . SVG Version: 6.00 Build 0)  -->

<svg
   xmlns:dc="http://purl.org/dc/elements/1.1/"
   xmlns:cc="http://creativecommons.org/ns#"
   xmlns:rdf="http://www.w3.org/1999/02/22-rdf-syntax-ns#"
   xmlns:svg="http://www.w3.org/2000/svg"
   xmlns="http://www.w3.org/2000/svg"
   xmlns:sodipodi="http://sodipodi.sourceforge.net/DTD/sodipodi-0.dtd"
   xmlns:inkscape="http://www.inkscape.org/namespaces/inkscape"
   version="1.1"
   x="0px"
   y="0px"
   width="31.998px"
   height="32px"
   viewBox="0 0 31.998 32"
   style="enable-background:new 0 0 31.998 32;"
   xml:space="preserve"
   id="svg2"
   inkscape:version="0.48.1 "
   sodipodi:docname="templates.svg"
   inkscape:export-filename="D:\web\xampp\htdocs\limesurvey_yii\images\showhelp.png"
   inkscape:export-xdpi="90.010002"
   inkscape:export-ydpi="90.010002"><metadata
   id="metadata16"><rdf:RDF><cc:Work
       rdf:about=""><dc:format>image/svg+xml</dc:format><dc:type
         rdf:resource="http://purl.org/dc/dcmitype/StillImage" /><dc:title></dc:title></cc:Work></rdf:RDF></metadata><defs
   id="defs14">
	

		
		
	</defs><sodipodi:namedview
   pagecolor="#ffffff"
   bordercolor="#666666"
   borderopacity="1"
   objecttolerance="10"
   gridtolerance="10"
   guidetolerance="10"
   inkscape:pageopacity="0"
   inkscape:pageshadow="2"
   inkscape:window-width="1280"
   inkscape:window-height="940"
   id="namedview12"
   showgrid="false"
   inkscape:zoom="21.508118"
   inkscape:cx="17.01382"
   inkscape:cy="17.342438"
   inkscape:window-x="-8"
   inkscape:window-y="-8"
   inkscape:window-maximized="1"
   inkscape:current-layer="svg2" />
<g
   id="Layer_1"
   style="fill:#94d200;fill-opacity:1"
   transform="matrix(0.93897558,0,0,0.93897558,0.97633739,0.97640605)">
</g>
<path
   style="fill:#94d200;fill-opacity:1"
   d="m 12.244044,23.51182 c 0,-2.076075 -1.683583,-3.755902 -3.755902,-3.755902 -2.076075,0 -3.7559023,1.679827 -3.7559023,3.755902 v 0.0075 c 0,2.77655 -1.5108117,5.197229 -3.75590231,6.495833 l 0.0150236,0.01127 c 1.1004794,0.633809 2.3765472,0.997192 3.7408787,0.997192 4.1483941,0 7.5118043,-3.36341 7.5118043,-7.511804 l 0,0 z"
   id="path8"
   inkscape:connector-curvature="0" /><path
   style="fill:#94d200;fill-opacity:1"
   d="m 29.921198,2.0768854 c -1.466679,-1.46667983 -3.844166,-1.46667983 -5.310845,0 L 10.410225,16.278891 c 2.589695,0.692964 4.621638,2.721151 5.310846,5.314602 L 29.921198,7.3877313 c 1.467619,-1.4666799 1.467619,-3.844166 0,-5.3108459 z"
   id="path10"
   inkscape:connector-curvature="0" />
</svg>