<?xml version="1.0" encoding="UTF-8" standalone="no"?>
<!-- Generator: Adobe Illustrator 15.1.0, SVG Export Plug-In . SVG Version: 6.00 Build 0)  -->

<svg
   xmlns:dc="http://purl.org/dc/elements/1.1/"
   xmlns:cc="http://creativecommons.org/ns#"
   xmlns:rdf="http://www.w3.org/1999/02/22-rdf-syntax-ns#"
   xmlns:svg="http://www.w3.org/2000/svg"
   xmlns="http://www.w3.org/2000/svg"
   xmlns:sodipodi="http://sodipodi.sourceforge.net/DTD/sodipodi-0.dtd"
   xmlns:inkscape="http://www.inkscape.org/namespaces/inkscape"
   version="1.1"
   x="0px"
   y="0px"
   width="31.998px"
   height="32px"
   viewBox="0 0 31.998 32"
   style="enable-background:new 0 0 31.998 32;"
   xml:space="preserve"
   id="svg2"
   inkscape:version="0.48.3.1 r9886"
   sodipodi:docname="templatepermissions.svg"
   inkscape:export-filename="D:\web\xampp\htdocs\limesurvey_yii\styles\gringegreen\images\templatepermissions_small.png"
   inkscape:export-xdpi="45"
   inkscape:export-ydpi="45"><metadata
   id="metadata16"><rdf:RDF><cc:Work
       rdf:about=""><dc:format>image/svg+xml</dc:format><dc:type
         rdf:resource="http://purl.org/dc/dcmitype/StillImage" /><dc:title></dc:title></cc:Work></rdf:RDF></metadata><defs
   id="defs14">
	

		
		
	</defs><sodipodi:namedview
   pagecolor="#ffffff"
   bordercolor="#666666"
   borderopacity="1"
   objecttolerance="10"
   gridtolerance="10"
   guidetolerance="10"
   inkscape:pageopacity="0"
   inkscape:pageshadow="2"
   inkscape:window-width="1280"
   inkscape:window-height="940"
   id="namedview12"
   showgrid="false"
   inkscape:zoom="22.84375"
   inkscape:cx="15.999"
   inkscape:cy="16"
   inkscape:window-x="-8"
   inkscape:window-y="-8"
   inkscape:window-maximized="1"
   inkscape:current-layer="svg2" />

<g
   id="g3003"
   transform="translate(-0.9630643,-1.00684)"><g
     transform="matrix(0.93897558,0,0,0.93897558,0.97633739,0.97640605)"
     style="fill:#94d200;fill-opacity:1"
     id="Layer_1">
</g><path
     inkscape:connector-curvature="0"
     id="path8"
     d="m 12.244044,23.51182 c 0,-2.076075 -1.683583,-3.755902 -3.755902,-3.755902 -2.076075,0 -3.7559023,1.679827 -3.7559023,3.755902 v 0.0075 c 0,2.77655 -1.5108117,5.197229 -3.75590231,6.495833 l 0.0150236,0.01127 c 1.10047941,0.633809 2.37654721,0.997192 3.74087871,0.997192 4.1483941,0 7.5118043,-3.36341 7.5118043,-7.511804 l 0,0 z"
     style="fill:#94d200;fill-opacity:1" /><path
     inkscape:connector-curvature="0"
     id="path10"
     d="m 29.921198,2.0768854 c -1.466679,-1.46667983 -3.844166,-1.46667983 -5.310845,0 L 10.410225,16.278891 c 2.589695,0.692964 4.621638,2.721151 5.310846,5.314602 L 29.921198,7.3877313 c 1.467619,-1.4666799 1.467619,-3.844166 0,-5.3108459 z"
     style="fill:#94d200;fill-opacity:1" /></g>
<g
   id="g2997"
   transform="matrix(0.58413132,0,0,0.58413132,17.766994,13.247554)"><g
     id="g2984"
     transform="translate(-3.6297987,0.06566372)"><g
       id="Layer_1-1" /><path
       style="fill:#94d200;fill-opacity:1"
       d="M 16.004,0 C 10.494,0 6.006,4.484 6.006,10 l 0,2 L 4,12 4,26 c 0,3.305 2.695,6 5.998,6 L 22,32 c 3.312,0 6.409935,-2.720522 6,-6 L 28.022445,12.261049 26.145358,12.021102 26,10 C 25.60431,4.4982107 21.516,0 16.004,0 z m -5.998,10 c 0,-3.312 2.693,-6 5.998,-6 C 19.312,4 22,6.688 22,10 l 0,2 -11.994,0 z M 22,28 9.998,28 c -1.102,0 -2,-0.898 -2,-2 l 0,-10 16.002,0 0,10 c 0,1.102 -0.891,2 -2,2 z"
       id="path8-7"
       inkscape:connector-curvature="0"
       sodipodi:nodetypes="ssccssssccsssssccssssccss" /><path
       style="fill:#94d200;fill-opacity:1"
       d="m 18.004,22 c 0,1.102 -0.898,2 -2,2 -1.109,0 -2,-0.898 -2,-2 0,-1.109 0.891,-2 2,-2 1.101,0 2,0.891 2,2 z"
       id="path10-4"
       inkscape:connector-curvature="0" /></g></g></svg>